<?xml version="1.0" encoding="utf-8" standalone="no"?>
<!DOCTYPE svg PUBLIC "-//W3C//DTD SVG 1.1//EN"
  "http://www.w3.org/Graphics/SVG/1.1/DTD/svg11.dtd">
<!-- Created with matplotlib (http://matplotlib.org/) -->
<svg height="432pt" version="1.1" viewBox="0 0 720 432" width="720pt" xmlns="http://www.w3.org/2000/svg" xmlns:xlink="http://www.w3.org/1999/xlink">
 <defs>
  <style type="text/css">
*{stroke-linecap:butt;stroke-linejoin:round;}
  </style>
 </defs>
 <g id="figure_1">
  <g id="patch_1">
   <path d="M 0 432 
L 720 432 
L 720 0 
L 0 0 
z
" style="fill:#ffffff;"/>
  </g>
  <g id="axes_1">
   <g id="patch_2">
    <path d="M 39.8 395.2 
L 694.09 395.2 
L 694.09 14.3 
L 39.8 14.3 
z
" style="fill:#ffffff;"/>
   </g>
   <g id="matplotlib.axis_1">
    <g id="xtick_1"/>
    <g id="xtick_2"/>
    <g id="xtick_3"/>
    <g id="xtick_4"/>
    <g id="xtick_5"/>
    <g id="xtick_6"/>
    <g id="xtick_7"/>
    <g id="xtick_8"/>
    <g id="xtick_9"/>
    <g id="xtick_10"/>
    <g id="xtick_11"/>
    <g id="xtick_12"/>
    <g id="xtick_13"/>
    <g id="xtick_14"/>
    <g id="xtick_15"/>
    <g id="xtick_16"/>
    <g id="xtick_17"/>
    <g id="xtick_18"/>
    <g id="xtick_19"/>
    <g id="text_1">
     <!-- MSE -->
     <defs>
      <path d="M 7.421875 0 
L 7.421875 71.578125 
L 21.6875 71.578125 
L 38.625 20.90625 
Q 40.96875 13.8125 42.046875 10.296875 
Q 43.265625 14.203125 45.84375 21.78125 
L 62.984375 71.578125 
L 75.734375 71.578125 
L 75.734375 0 
L 66.609375 0 
L 66.609375 59.90625 
L 45.796875 0 
L 37.25 0 
L 16.546875 60.9375 
L 16.546875 0 
z
" id="ArialMT-4d"/>
      <path d="M 4.5 23 
L 13.421875 23.78125 
Q 14.0625 18.40625 16.375 14.96875 
Q 18.703125 11.53125 23.578125 9.40625 
Q 28.46875 7.28125 34.578125 7.28125 
Q 39.984375 7.28125 44.140625 8.890625 
Q 48.296875 10.5 50.3125 13.296875 
Q 52.34375 16.109375 52.34375 19.4375 
Q 52.34375 22.796875 50.390625 25.3125 
Q 48.4375 27.828125 43.953125 29.546875 
Q 41.0625 30.671875 31.203125 33.03125 
Q 21.34375 35.40625 17.390625 37.5 
Q 12.25 40.1875 9.734375 44.15625 
Q 7.234375 48.140625 7.234375 53.078125 
Q 7.234375 58.5 10.296875 63.203125 
Q 13.375 67.921875 19.28125 70.359375 
Q 25.203125 72.796875 32.421875 72.796875 
Q 40.375 72.796875 46.453125 70.234375 
Q 52.546875 67.671875 55.8125 62.6875 
Q 59.078125 57.71875 59.328125 51.421875 
L 50.25 50.734375 
Q 49.515625 57.515625 45.28125 60.984375 
Q 41.0625 64.453125 32.8125 64.453125 
Q 24.21875 64.453125 20.28125 61.296875 
Q 16.359375 58.15625 16.359375 53.71875 
Q 16.359375 49.859375 19.140625 47.359375 
Q 21.875 44.875 33.421875 42.265625 
Q 44.96875 39.65625 49.265625 37.703125 
Q 55.515625 34.8125 58.484375 30.390625 
Q 61.46875 25.984375 61.46875 20.21875 
Q 61.46875 14.5 58.203125 9.4375 
Q 54.9375 4.390625 48.796875 1.578125 
Q 42.671875 -1.21875 35.015625 -1.21875 
Q 25.296875 -1.21875 18.71875 1.609375 
Q 12.15625 4.4375 8.421875 10.125 
Q 4.6875 15.828125 4.5 23 
z
" id="ArialMT-53"/>
      <path d="M 7.90625 0 
L 7.90625 71.578125 
L 59.671875 71.578125 
L 59.671875 63.140625 
L 17.390625 63.140625 
L 17.390625 41.21875 
L 56.984375 41.21875 
L 56.984375 32.8125 
L 17.390625 32.8125 
L 17.390625 8.453125 
L 61.328125 8.453125 
L 61.328125 0 
z
" id="ArialMT-45"/>
     </defs>
     <g style="fill:#262626;" transform="translate(349.60875 417.6525)scale(0.16 -0.16)">
      <use xlink:href="#ArialMT-4d"/>
      <use x="83.300781" xlink:href="#ArialMT-53"/>
      <use x="150" xlink:href="#ArialMT-45"/>
     </g>
    </g>
   </g>
   <g id="matplotlib.axis_2">
    <g id="ytick_1"/>
    <g id="ytick_2"/>
    <g id="ytick_3"/>
    <g id="ytick_4"/>
    <g id="ytick_5"/>
    <g id="ytick_6"/>
    <g id="ytick_7"/>
    <g id="text_2">
     <!-- Complexity -->
     <defs>
      <path d="M 58.796875 25.09375 
L 68.265625 22.703125 
Q 65.28125 11.03125 57.546875 4.90625 
Q 49.8125 -1.21875 38.625 -1.21875 
Q 27.046875 -1.21875 19.796875 3.484375 
Q 12.546875 8.203125 8.765625 17.140625 
Q 4.984375 26.078125 4.984375 36.328125 
Q 4.984375 47.515625 9.25 55.828125 
Q 13.53125 64.15625 21.40625 68.46875 
Q 29.296875 72.796875 38.765625 72.796875 
Q 49.515625 72.796875 56.828125 67.328125 
Q 64.15625 61.859375 67.046875 51.953125 
L 57.71875 49.75 
Q 55.21875 57.5625 50.484375 61.125 
Q 45.75 64.703125 38.578125 64.703125 
Q 30.328125 64.703125 24.78125 60.734375 
Q 19.234375 56.78125 16.984375 50.109375 
Q 14.75 43.453125 14.75 36.375 
Q 14.75 27.25 17.40625 20.4375 
Q 20.0625 13.625 25.671875 10.25 
Q 31.296875 6.890625 37.84375 6.890625 
Q 45.796875 6.890625 51.3125 11.46875 
Q 56.84375 16.0625 58.796875 25.09375 
z
" id="ArialMT-43"/>
      <path d="M 3.328125 25.921875 
Q 3.328125 40.328125 11.328125 47.265625 
Q 18.015625 53.03125 27.640625 53.03125 
Q 38.328125 53.03125 45.109375 46.015625 
Q 51.90625 39.015625 51.90625 26.65625 
Q 51.90625 16.65625 48.90625 10.90625 
Q 45.90625 5.171875 40.15625 2 
Q 34.421875 -1.171875 27.640625 -1.171875 
Q 16.75 -1.171875 10.03125 5.8125 
Q 3.328125 12.796875 3.328125 25.921875 
z
M 12.359375 25.921875 
Q 12.359375 15.96875 16.703125 11.015625 
Q 21.046875 6.0625 27.640625 6.0625 
Q 34.1875 6.0625 38.53125 11.03125 
Q 42.875 16.015625 42.875 26.21875 
Q 42.875 35.84375 38.5 40.796875 
Q 34.125 45.75 27.640625 45.75 
Q 21.046875 45.75 16.703125 40.8125 
Q 12.359375 35.890625 12.359375 25.921875 
z
" id="ArialMT-6f"/>
      <path d="M 6.59375 0 
L 6.59375 51.859375 
L 14.453125 51.859375 
L 14.453125 44.578125 
Q 16.890625 48.390625 20.9375 50.703125 
Q 25 53.03125 30.171875 53.03125 
Q 35.9375 53.03125 39.625 50.640625 
Q 43.3125 48.25 44.828125 43.953125 
Q 50.984375 53.03125 60.84375 53.03125 
Q 68.5625 53.03125 72.703125 48.75 
Q 76.859375 44.484375 76.859375 35.59375 
L 76.859375 0 
L 68.109375 0 
L 68.109375 32.671875 
Q 68.109375 37.9375 67.25 40.25 
Q 66.40625 42.578125 64.15625 43.984375 
Q 61.921875 45.40625 58.890625 45.40625 
Q 53.421875 45.40625 49.796875 41.765625 
Q 46.1875 38.140625 46.1875 30.125 
L 46.1875 0 
L 37.40625 0 
L 37.40625 33.6875 
Q 37.40625 39.546875 35.25 42.46875 
Q 33.109375 45.40625 28.21875 45.40625 
Q 24.515625 45.40625 21.359375 43.453125 
Q 18.21875 41.5 16.796875 37.734375 
Q 15.375 33.984375 15.375 26.90625 
L 15.375 0 
z
" id="ArialMT-6d"/>
      <path d="M 6.59375 -19.875 
L 6.59375 51.859375 
L 14.59375 51.859375 
L 14.59375 45.125 
Q 17.4375 49.078125 21 51.046875 
Q 24.5625 53.03125 29.640625 53.03125 
Q 36.28125 53.03125 41.359375 49.609375 
Q 46.4375 46.1875 49.015625 39.953125 
Q 51.609375 33.734375 51.609375 26.3125 
Q 51.609375 18.359375 48.75 11.984375 
Q 45.90625 5.609375 40.453125 2.21875 
Q 35.015625 -1.171875 29 -1.171875 
Q 24.609375 -1.171875 21.109375 0.6875 
Q 17.625 2.546875 15.375 5.375 
L 15.375 -19.875 
z
M 14.546875 25.640625 
Q 14.546875 15.625 18.59375 10.84375 
Q 22.65625 6.0625 28.421875 6.0625 
Q 34.28125 6.0625 38.453125 11.015625 
Q 42.625 15.96875 42.625 26.375 
Q 42.625 36.28125 38.546875 41.203125 
Q 34.46875 46.140625 28.8125 46.140625 
Q 23.1875 46.140625 18.859375 40.890625 
Q 14.546875 35.640625 14.546875 25.640625 
z
" id="ArialMT-70"/>
      <path d="M 6.390625 0 
L 6.390625 71.578125 
L 15.1875 71.578125 
L 15.1875 0 
z
" id="ArialMT-6c"/>
      <path d="M 42.09375 16.703125 
L 51.171875 15.578125 
Q 49.03125 7.625 43.21875 3.21875 
Q 37.40625 -1.171875 28.375 -1.171875 
Q 17 -1.171875 10.328125 5.828125 
Q 3.65625 12.84375 3.65625 25.484375 
Q 3.65625 38.578125 10.390625 45.796875 
Q 17.140625 53.03125 27.875 53.03125 
Q 38.28125 53.03125 44.875 45.953125 
Q 51.46875 38.875 51.46875 26.03125 
Q 51.46875 25.25 51.421875 23.6875 
L 12.75 23.6875 
Q 13.234375 15.140625 17.578125 10.59375 
Q 21.921875 6.0625 28.421875 6.0625 
Q 33.25 6.0625 36.671875 8.59375 
Q 40.09375 11.140625 42.09375 16.703125 
z
M 13.234375 30.90625 
L 42.1875 30.90625 
Q 41.609375 37.453125 38.875 40.71875 
Q 34.671875 45.796875 27.984375 45.796875 
Q 21.921875 45.796875 17.796875 41.75 
Q 13.671875 37.703125 13.234375 30.90625 
z
" id="ArialMT-65"/>
      <path d="M 0.734375 0 
L 19.671875 26.953125 
L 2.15625 51.859375 
L 13.140625 51.859375 
L 21.09375 39.703125 
Q 23.34375 36.234375 24.703125 33.890625 
Q 26.859375 37.109375 28.65625 39.59375 
L 37.40625 51.859375 
L 47.90625 51.859375 
L 29.984375 27.4375 
L 49.265625 0 
L 38.484375 0 
L 27.828125 16.109375 
L 25 20.453125 
L 11.375 0 
z
" id="ArialMT-78"/>
      <path d="M 6.640625 61.46875 
L 6.640625 71.578125 
L 15.4375 71.578125 
L 15.4375 61.46875 
z
M 6.640625 0 
L 6.640625 51.859375 
L 15.4375 51.859375 
L 15.4375 0 
z
" id="ArialMT-69"/>
      <path d="M 25.78125 7.859375 
L 27.046875 0.09375 
Q 23.34375 -0.6875 20.40625 -0.6875 
Q 15.625 -0.6875 12.984375 0.828125 
Q 10.359375 2.34375 9.28125 4.8125 
Q 8.203125 7.28125 8.203125 15.1875 
L 8.203125 45.015625 
L 1.765625 45.015625 
L 1.765625 51.859375 
L 8.203125 51.859375 
L 8.203125 64.703125 
L 16.9375 69.96875 
L 16.9375 51.859375 
L 25.78125 51.859375 
L 25.78125 45.015625 
L 16.9375 45.015625 
L 16.9375 14.703125 
Q 16.9375 10.9375 17.40625 9.859375 
Q 17.875 8.796875 18.921875 8.15625 
Q 19.96875 7.515625 21.921875 7.515625 
Q 23.390625 7.515625 25.78125 7.859375 
z
" id="ArialMT-74"/>
      <path d="M 6.203125 -19.96875 
L 5.21875 -11.71875 
Q 8.109375 -12.5 10.25 -12.5 
Q 13.1875 -12.5 14.9375 -11.515625 
Q 16.703125 -10.546875 17.828125 -8.796875 
Q 18.65625 -7.46875 20.515625 -2.25 
Q 20.75 -1.515625 21.296875 -0.09375 
L 1.609375 51.859375 
L 11.078125 51.859375 
L 21.875 21.828125 
Q 23.96875 16.109375 25.640625 9.8125 
Q 27.15625 15.875 29.25 21.625 
L 40.328125 51.859375 
L 49.125 51.859375 
L 29.390625 -0.875 
Q 26.21875 -9.421875 24.46875 -12.640625 
Q 22.125 -17 19.09375 -19.015625 
Q 16.0625 -21.046875 11.859375 -21.046875 
Q 9.328125 -21.046875 6.203125 -19.96875 
z
" id="ArialMT-79"/>
     </defs>
     <g style="fill:#262626;" transform="translate(25.011562 249.260625)rotate(-90)scale(0.18 -0.18)">
      <use xlink:href="#ArialMT-43"/>
      <use x="72.216797" xlink:href="#ArialMT-6f"/>
      <use x="127.832031" xlink:href="#ArialMT-6d"/>
      <use x="211.132812" xlink:href="#ArialMT-70"/>
      <use x="266.748047" xlink:href="#ArialMT-6c"/>
      <use x="288.964844" xlink:href="#ArialMT-65"/>
      <use x="344.580078" xlink:href="#ArialMT-78"/>
      <use x="394.580078" xlink:href="#ArialMT-69"/>
      <use x="416.796875" xlink:href="#ArialMT-74"/>
      <use x="444.580078" xlink:href="#ArialMT-79"/>
     </g>
    </g>
   </g>
   <g id="line2d_1">
    <path clip-path="url(#p303b43e0ac)" d="M 373.990525 366.148305 
L 291.678675 360.279276 
L 287.464273 354.410247 
L 284.905702 348.541217 
L 284.905702 342.672188 
L 196.977683 330.934129 
L 187.658991 325.0651 
L 178.776708 319.196071 
L 176.000047 313.327042 
L 170.66472 301.588983 
L 164.068908 295.719954 
L 156.090373 289.850924 
L 152.242979 283.981895 
L 148.39575 278.112866 
L 148.395748 272.243837 
L 148.395748 266.374807 
L 136.007243 260.505778 
L 117.512908 254.636749 
L 115.175816 248.76772 
L 114.759196 242.89869 
L 114.759195 237.029661 
L 109.200081 231.160632 
L 108.921456 225.291602 
L 108.389015 219.422573 
L 108.389014 213.553544 
L 100.618885 207.684515 
L 100.618884 201.815485 
L 98.62168 190.077427 
L 94.251177 184.208398 
L 88.069048 178.339368 
L 87.463484 166.60131 
L 83.000047 160.73228 
L 81.090883 148.994222 
L 80.400808 143.125193 
L 74.297024 137.256163 
L 73.115654 131.387134 
L 72.795435 119.649076 
L 70.187057 102.041988 
L 67.307478 72.696841 
L 67.244975 60.958783 
L 66.302631 49.220724 
L 66.293263 37.482666 
L 65.176618 31.613636 
" style="fill:none;stroke:#ff0000;stroke-dasharray:5.55,2.4;stroke-dashoffset:0;stroke-width:1.5;"/>
    <defs>
     <path d="M 0 3 
C 0.795609 3 1.55874 2.683901 2.12132 2.12132 
C 2.683901 1.55874 3 0.795609 3 0 
C 3 -0.795609 2.683901 -1.55874 2.12132 -2.12132 
C 1.55874 -2.683901 0.795609 -3 0 -3 
C -0.795609 -3 -1.55874 -2.683901 -2.12132 -2.12132 
C -2.683901 -1.55874 -3 -0.795609 -3 0 
C -3 0.795609 -2.683901 1.55874 -2.12132 2.12132 
C -1.55874 2.683901 -0.795609 3 0 3 
z
" id="m0bd6e19590" style="stroke:#ff0000;"/>
    </defs>
    <g clip-path="url(#p303b43e0ac)">
     <use style="fill:#ff0000;stroke:#ff0000;" x="373.990525" xlink:href="#m0bd6e19590" y="366.148305"/>
     <use style="fill:#ff0000;stroke:#ff0000;" x="291.678675" xlink:href="#m0bd6e19590" y="360.279276"/>
     <use style="fill:#ff0000;stroke:#ff0000;" x="287.464273" xlink:href="#m0bd6e19590" y="354.410247"/>
     <use style="fill:#ff0000;stroke:#ff0000;" x="284.905702" xlink:href="#m0bd6e19590" y="348.541217"/>
     <use style="fill:#ff0000;stroke:#ff0000;" x="284.905702" xlink:href="#m0bd6e19590" y="342.672188"/>
     <use style="fill:#ff0000;stroke:#ff0000;" x="196.977683" xlink:href="#m0bd6e19590" y="330.934129"/>
     <use style="fill:#ff0000;stroke:#ff0000;" x="187.658991" xlink:href="#m0bd6e19590" y="325.0651"/>
     <use style="fill:#ff0000;stroke:#ff0000;" x="178.776708" xlink:href="#m0bd6e19590" y="319.196071"/>
     <use style="fill:#ff0000;stroke:#ff0000;" x="176.000047" xlink:href="#m0bd6e19590" y="313.327042"/>
     <use style="fill:#ff0000;stroke:#ff0000;" x="170.66472" xlink:href="#m0bd6e19590" y="301.588983"/>
     <use style="fill:#ff0000;stroke:#ff0000;" x="164.068908" xlink:href="#m0bd6e19590" y="295.719954"/>
     <use style="fill:#ff0000;stroke:#ff0000;" x="156.090373" xlink:href="#m0bd6e19590" y="289.850924"/>
     <use style="fill:#ff0000;stroke:#ff0000;" x="152.242979" xlink:href="#m0bd6e19590" y="283.981895"/>
     <use style="fill:#ff0000;stroke:#ff0000;" x="148.39575" xlink:href="#m0bd6e19590" y="278.112866"/>
     <use style="fill:#ff0000;stroke:#ff0000;" x="148.395748" xlink:href="#m0bd6e19590" y="272.243837"/>
     <use style="fill:#ff0000;stroke:#ff0000;" x="148.395748" xlink:href="#m0bd6e19590" y="266.374807"/>
     <use style="fill:#ff0000;stroke:#ff0000;" x="136.007243" xlink:href="#m0bd6e19590" y="260.505778"/>
     <use style="fill:#ff0000;stroke:#ff0000;" x="117.512908" xlink:href="#m0bd6e19590" y="254.636749"/>
     <use style="fill:#ff0000;stroke:#ff0000;" x="115.175816" xlink:href="#m0bd6e19590" y="248.76772"/>
     <use style="fill:#ff0000;stroke:#ff0000;" x="114.759196" xlink:href="#m0bd6e19590" y="242.89869"/>
     <use style="fill:#ff0000;stroke:#ff0000;" x="114.759195" xlink:href="#m0bd6e19590" y="237.029661"/>
     <use style="fill:#ff0000;stroke:#ff0000;" x="109.200081" xlink:href="#m0bd6e19590" y="231.160632"/>
     <use style="fill:#ff0000;stroke:#ff0000;" x="108.921456" xlink:href="#m0bd6e19590" y="225.291602"/>
     <use style="fill:#ff0000;stroke:#ff0000;" x="108.389015" xlink:href="#m0bd6e19590" y="219.422573"/>
     <use style="fill:#ff0000;stroke:#ff0000;" x="108.389014" xlink:href="#m0bd6e19590" y="213.553544"/>
     <use style="fill:#ff0000;stroke:#ff0000;" x="100.618885" xlink:href="#m0bd6e19590" y="207.684515"/>
     <use style="fill:#ff0000;stroke:#ff0000;" x="100.618884" xlink:href="#m0bd6e19590" y="201.815485"/>
     <use style="fill:#ff0000;stroke:#ff0000;" x="98.62168" xlink:href="#m0bd6e19590" y="190.077427"/>
     <use style="fill:#ff0000;stroke:#ff0000;" x="94.251177" xlink:href="#m0bd6e19590" y="184.208398"/>
     <use style="fill:#ff0000;stroke:#ff0000;" x="88.069048" xlink:href="#m0bd6e19590" y="178.339368"/>
     <use style="fill:#ff0000;stroke:#ff0000;" x="87.463484" xlink:href="#m0bd6e19590" y="166.60131"/>
     <use style="fill:#ff0000;stroke:#ff0000;" x="83.000047" xlink:href="#m0bd6e19590" y="160.73228"/>
     <use style="fill:#ff0000;stroke:#ff0000;" x="81.090883" xlink:href="#m0bd6e19590" y="148.994222"/>
     <use style="fill:#ff0000;stroke:#ff0000;" x="80.400808" xlink:href="#m0bd6e19590" y="143.125193"/>
     <use style="fill:#ff0000;stroke:#ff0000;" x="74.297024" xlink:href="#m0bd6e19590" y="137.256163"/>
     <use style="fill:#ff0000;stroke:#ff0000;" x="73.115654" xlink:href="#m0bd6e19590" y="131.387134"/>
     <use style="fill:#ff0000;stroke:#ff0000;" x="72.795435" xlink:href="#m0bd6e19590" y="119.649076"/>
     <use style="fill:#ff0000;stroke:#ff0000;" x="70.187057" xlink:href="#m0bd6e19590" y="102.041988"/>
     <use style="fill:#ff0000;stroke:#ff0000;" x="67.307478" xlink:href="#m0bd6e19590" y="72.696841"/>
     <use style="fill:#ff0000;stroke:#ff0000;" x="67.244975" xlink:href="#m0bd6e19590" y="60.958783"/>
     <use style="fill:#ff0000;stroke:#ff0000;" x="66.302631" xlink:href="#m0bd6e19590" y="49.220724"/>
     <use style="fill:#ff0000;stroke:#ff0000;" x="66.293263" xlink:href="#m0bd6e19590" y="37.482666"/>
     <use style="fill:#ff0000;stroke:#ff0000;" x="65.176618" xlink:href="#m0bd6e19590" y="31.613636"/>
    </g>
   </g>
   <g id="line2d_2">
    <path clip-path="url(#p303b43e0ac)" d="M 371.378669 366.148305 
L 267.641293 360.279276 
L 262.010573 354.410247 
L 256.11248 348.541217 
L 256.112508 342.672188 
L 193.165584 330.934129 
L 174.668521 325.0651 
L 168.147726 319.196071 
L 169.522914 313.327042 
L 161.570013 301.588983 
L 157.899627 295.719954 
L 138.300145 289.850924 
L 166.342286 283.981895 
L 158.626172 278.112866 
L 158.627512 272.243837 
L 158.627959 266.374807 
L 143.713443 260.505778 
L 126.097152 254.636749 
L 118.016333 248.76772 
L 120.849075 242.89869 
L 120.850357 237.029661 
L 109.317969 231.160632 
L 106.635548 225.291602 
L 109.857534 219.422573 
L 109.858867 213.553544 
L 123.012169 207.684515 
L 123.013576 201.815485 
L 95.414969 190.077427 
L 111.579552 184.208398 
L 123.708125 178.339368 
L 102.447649 166.60131 
L 102.591396 160.73228 
L 105.998894 148.994222 
L 264.521407 143.125193 
L 99.906037 137.256163 
L 99.7272 131.387134 
L 343.620226 119.649076 
L 100.112118 102.041988 
L 93.948406 72.696841 
L 91.649038 60.958783 
L 112.843709 49.220724 
L 108.358161 37.482666 
L 107.055446 31.613636 
" style="fill:none;stroke:#0000ff;stroke-dasharray:5.55,2.4;stroke-dashoffset:0;stroke-width:1.5;"/>
    <defs>
     <path d="M -3 3 
L 3 -3 
M -3 -3 
L 3 3 
" id="mf46bad0371" style="stroke:#0000ff;"/>
    </defs>
    <g clip-path="url(#p303b43e0ac)">
     <use style="fill:#0000ff;stroke:#0000ff;" x="371.378669" xlink:href="#mf46bad0371" y="366.148305"/>
     <use style="fill:#0000ff;stroke:#0000ff;" x="267.641293" xlink:href="#mf46bad0371" y="360.279276"/>
     <use style="fill:#0000ff;stroke:#0000ff;" x="262.010573" xlink:href="#mf46bad0371" y="354.410247"/>
     <use style="fill:#0000ff;stroke:#0000ff;" x="256.11248" xlink:href="#mf46bad0371" y="348.541217"/>
     <use style="fill:#0000ff;stroke:#0000ff;" x="256.112508" xlink:href="#mf46bad0371" y="342.672188"/>
     <use style="fill:#0000ff;stroke:#0000ff;" x="193.165584" xlink:href="#mf46bad0371" y="330.934129"/>
     <use style="fill:#0000ff;stroke:#0000ff;" x="174.668521" xlink:href="#mf46bad0371" y="325.0651"/>
     <use style="fill:#0000ff;stroke:#0000ff;" x="168.147726" xlink:href="#mf46bad0371" y="319.196071"/>
     <use style="fill:#0000ff;stroke:#0000ff;" x="169.522914" xlink:href="#mf46bad0371" y="313.327042"/>
     <use style="fill:#0000ff;stroke:#0000ff;" x="161.570013" xlink:href="#mf46bad0371" y="301.588983"/>
     <use style="fill:#0000ff;stroke:#0000ff;" x="157.899627" xlink:href="#mf46bad0371" y="295.719954"/>
     <use style="fill:#0000ff;stroke:#0000ff;" x="138.300145" xlink:href="#mf46bad0371" y="289.850924"/>
     <use style="fill:#0000ff;stroke:#0000ff;" x="166.342286" xlink:href="#mf46bad0371" y="283.981895"/>
     <use style="fill:#0000ff;stroke:#0000ff;" x="158.626172" xlink:href="#mf46bad0371" y="278.112866"/>
     <use style="fill:#0000ff;stroke:#0000ff;" x="158.627512" xlink:href="#mf46bad0371" y="272.243837"/>
     <use style="fill:#0000ff;stroke:#0000ff;" x="158.627959" xlink:href="#mf46bad0371" y="266.374807"/>
     <use style="fill:#0000ff;stroke:#0000ff;" x="143.713443" xlink:href="#mf46bad0371" y="260.505778"/>
     <use style="fill:#0000ff;stroke:#0000ff;" x="126.097152" xlink:href="#mf46bad0371" y="254.636749"/>
     <use style="fill:#0000ff;stroke:#0000ff;" x="118.016333" xlink:href="#mf46bad0371" y="248.76772"/>
     <use style="fill:#0000ff;stroke:#0000ff;" x="120.849075" xlink:href="#mf46bad0371" y="242.89869"/>
     <use style="fill:#0000ff;stroke:#0000ff;" x="120.850357" xlink:href="#mf46bad0371" y="237.029661"/>
     <use style="fill:#0000ff;stroke:#0000ff;" x="109.317969" xlink:href="#mf46bad0371" y="231.160632"/>
     <use style="fill:#0000ff;stroke:#0000ff;" x="106.635548" xlink:href="#mf46bad0371" y="225.291602"/>
     <use style="fill:#0000ff;stroke:#0000ff;" x="109.857534" xlink:href="#mf46bad0371" y="219.422573"/>
     <use style="fill:#0000ff;stroke:#0000ff;" x="109.858867" xlink:href="#mf46bad0371" y="213.553544"/>
     <use style="fill:#0000ff;stroke:#0000ff;" x="123.012169" xlink:href="#mf46bad0371" y="207.684515"/>
     <use style="fill:#0000ff;stroke:#0000ff;" x="123.013576" xlink:href="#mf46bad0371" y="201.815485"/>
     <use style="fill:#0000ff;stroke:#0000ff;" x="95.414969" xlink:href="#mf46bad0371" y="190.077427"/>
     <use style="fill:#0000ff;stroke:#0000ff;" x="111.579552" xlink:href="#mf46bad0371" y="184.208398"/>
     <use style="fill:#0000ff;stroke:#0000ff;" x="123.708125" xlink:href="#mf46bad0371" y="178.339368"/>
     <use style="fill:#0000ff;stroke:#0000ff;" x="102.447649" xlink:href="#mf46bad0371" y="166.60131"/>
     <use style="fill:#0000ff;stroke:#0000ff;" x="102.591396" xlink:href="#mf46bad0371" y="160.73228"/>
     <use style="fill:#0000ff;stroke:#0000ff;" x="105.998894" xlink:href="#mf46bad0371" y="148.994222"/>
     <use style="fill:#0000ff;stroke:#0000ff;" x="264.521407" xlink:href="#mf46bad0371" y="143.125193"/>
     <use style="fill:#0000ff;stroke:#0000ff;" x="99.906037" xlink:href="#mf46bad0371" y="137.256163"/>
     <use style="fill:#0000ff;stroke:#0000ff;" x="99.7272" xlink:href="#mf46bad0371" y="131.387134"/>
     <use style="fill:#0000ff;stroke:#0000ff;" x="343.620226" xlink:href="#mf46bad0371" y="119.649076"/>
     <use style="fill:#0000ff;stroke:#0000ff;" x="100.112118" xlink:href="#mf46bad0371" y="102.041988"/>
     <use style="fill:#0000ff;stroke:#0000ff;" x="93.948406" xlink:href="#mf46bad0371" y="72.696841"/>
     <use style="fill:#0000ff;stroke:#0000ff;" x="91.649038" xlink:href="#mf46bad0371" y="60.958783"/>
     <use style="fill:#0000ff;stroke:#0000ff;" x="112.843709" xlink:href="#mf46bad0371" y="49.220724"/>
     <use style="fill:#0000ff;stroke:#0000ff;" x="108.358161" xlink:href="#mf46bad0371" y="37.482666"/>
     <use style="fill:#0000ff;stroke:#0000ff;" x="107.055446" xlink:href="#mf46bad0371" y="31.613636"/>
    </g>
   </g>
   <g id="line2d_3">
    <defs>
     <path d="M -8 8 
L 8 8 
L 8 -8 
L -8 -8 
z
" id="m90114f708e" style="stroke:#000000;stroke-linejoin:miter;"/>
    </defs>
    <g clip-path="url(#p303b43e0ac)">
     <use style="fill-opacity:0;stroke:#000000;stroke-linejoin:miter;" x="91.649038" xlink:href="#m90114f708e" y="60.958783"/>
    </g>
   </g>
   <g id="line2d_4">
    <path clip-path="url(#p303b43e0ac)" d="M 110.968155 377.886364 
L 110.968155 31.613636 
" style="fill:none;opacity:0.5;stroke:#000000;stroke-dasharray:5.55,2.4;stroke-dashoffset:0;stroke-width:1.5;"/>
   </g>
   <g id="line2d_5">
    <path clip-path="url(#p303b43e0ac)" d="M 165.548731 377.886364 
L 165.548731 31.613636 
" style="fill:none;opacity:0.5;stroke:#008000;stroke-dasharray:9.6,2.4,1.5,2.4;stroke-dashoffset:0;stroke-width:1.5;"/>
    <defs>
     <path d="M -3 3 
L 3 -3 
M -3 -3 
L 3 3 
" id="m075f086f8b" style="stroke:#008000;"/>
    </defs>
    <g clip-path="url(#p303b43e0ac)">
     <use style="fill:#008000;opacity:0.5;stroke:#008000;" x="165.548731" xlink:href="#m075f086f8b" y="377.886364"/>
     <use style="fill:#008000;opacity:0.5;stroke:#008000;" x="165.548731" xlink:href="#m075f086f8b" y="31.613636"/>
    </g>
   </g>
   <g id="line2d_6">
    <path clip-path="url(#p303b43e0ac)" d="M 282.245404 377.886364 
L 282.245404 31.613636 
" style="fill:none;opacity:0.5;stroke:#bf00bf;stroke-linecap:round;stroke-width:1.5;"/>
    <defs>
     <path d="M -3 3 
L 3 3 
L 3 -3 
L -3 -3 
z
" id="me9a399f42e" style="stroke:#bf00bf;stroke-linejoin:miter;"/>
    </defs>
    <g clip-path="url(#p303b43e0ac)">
     <use style="fill:#bf00bf;opacity:0.5;stroke:#bf00bf;stroke-linejoin:miter;" x="282.245404" xlink:href="#me9a399f42e" y="377.886364"/>
     <use style="fill:#bf00bf;opacity:0.5;stroke:#bf00bf;stroke-linejoin:miter;" x="282.245404" xlink:href="#me9a399f42e" y="31.613636"/>
    </g>
   </g>
   <g id="patch_3">
    <path d="M 39.8 395.2 
L 39.8 14.3 
" style="fill:none;stroke:#262626;stroke-linecap:square;stroke-linejoin:miter;stroke-width:0.8;"/>
   </g>
   <g id="patch_4">
    <path d="M 694.09 395.2 
L 694.09 14.3 
" style="fill:none;stroke:#262626;stroke-linecap:square;stroke-linejoin:miter;stroke-width:0.8;"/>
   </g>
   <g id="patch_5">
    <path d="M 39.8 395.2 
L 694.09 395.2 
" style="fill:none;stroke:#262626;stroke-linecap:square;stroke-linejoin:miter;stroke-width:0.8;"/>
   </g>
   <g id="patch_6">
    <path d="M 39.8 14.3 
L 694.09 14.3 
" style="fill:none;stroke:#262626;stroke-linecap:square;stroke-linejoin:miter;stroke-width:0.8;"/>
   </g>
   <g id="text_3">
    <g id="patch_7">
     <path d="M 386.20124 379.554834 
L 449.56124 379.554834 
L 449.56124 354.894834 
L 386.20124 354.894834 
z
" style="fill:#ffffff;opacity:0.75;"/>
    </g>
    <!-- $\leftarrow[x_1]$ -->
    <defs>
     <path d="M 4.890625 29.15625 
L 4.890625 33.546875 
L 24.078125 52.734375 
L 29.9375 46.875 
L 18.5625 35.5 
L 78.078125 35.5 
L 78.078125 27.203125 
L 18.5625 27.203125 
L 29.9375 15.828125 
L 24.078125 9.96875 
z
" id="DejaVuSans-2190"/>
     <path d="M 8.59375 75.984375 
L 29.296875 75.984375 
L 29.296875 69 
L 17.578125 69 
L 17.578125 -6.203125 
L 29.296875 -6.203125 
L 29.296875 -13.1875 
L 8.59375 -13.1875 
z
" id="DejaVuSans-5b"/>
     <path d="M 60.015625 54.6875 
L 34.90625 27.875 
L 50.296875 0 
L 39.984375 0 
L 28.421875 21.6875 
L 8.296875 0 
L -2.59375 0 
L 24.3125 28.8125 
L 10.015625 54.6875 
L 20.3125 54.6875 
L 30.8125 34.90625 
L 49.125 54.6875 
z
" id="DejaVuSans-Oblique-78"/>
     <path d="M 12.40625 8.296875 
L 28.515625 8.296875 
L 28.515625 63.921875 
L 10.984375 60.40625 
L 10.984375 69.390625 
L 28.421875 72.90625 
L 38.28125 72.90625 
L 38.28125 8.296875 
L 54.390625 8.296875 
L 54.390625 0 
L 12.40625 0 
z
" id="DejaVuSans-31"/>
     <path d="M 30.421875 75.984375 
L 30.421875 -13.1875 
L 9.71875 -13.1875 
L 9.71875 -6.203125 
L 21.390625 -6.203125 
L 21.390625 69 
L 9.71875 69 
L 9.71875 75.984375 
z
" id="DejaVuSans-5d"/>
    </defs>
    <g style="fill:#262626;" transform="translate(390.16124 372.017334)scale(0.18 -0.18)">
     <use transform="translate(19.482422 0.015625)" xlink:href="#DejaVuSans-2190"/>
     <use transform="translate(122.753906 0.015625)" xlink:href="#DejaVuSans-5b"/>
     <use transform="translate(161.767578 0.015625)" xlink:href="#DejaVuSans-Oblique-78"/>
     <use transform="translate(220.947266 -16.390625)scale(0.7)" xlink:href="#DejaVuSans-31"/>
     <use transform="translate(268.217773 0.015625)" xlink:href="#DejaVuSans-5d"/>
    </g>
   </g>
   <g id="text_4">
    <g id="patch_8">
     <path d="M 292.982126 356.078717 
L 489.182126 356.078717 
L 489.182126 331.238717 
L 292.982126 331.238717 
z
" style="fill:#ffffff;opacity:0.75;"/>
    </g>
    <!-- $\leftarrow[x_1][x_1][x_3][x_2][x_0]$ -->
    <defs>
     <path d="M 40.578125 39.3125 
Q 47.65625 37.796875 51.625 33 
Q 55.609375 28.21875 55.609375 21.1875 
Q 55.609375 10.40625 48.1875 4.484375 
Q 40.765625 -1.421875 27.09375 -1.421875 
Q 22.515625 -1.421875 17.65625 -0.515625 
Q 12.796875 0.390625 7.625 2.203125 
L 7.625 11.71875 
Q 11.71875 9.328125 16.59375 8.109375 
Q 21.484375 6.890625 26.8125 6.890625 
Q 36.078125 6.890625 40.9375 10.546875 
Q 45.796875 14.203125 45.796875 21.1875 
Q 45.796875 27.640625 41.28125 31.265625 
Q 36.765625 34.90625 28.71875 34.90625 
L 20.21875 34.90625 
L 20.21875 43.015625 
L 29.109375 43.015625 
Q 36.375 43.015625 40.234375 45.921875 
Q 44.09375 48.828125 44.09375 54.296875 
Q 44.09375 59.90625 40.109375 62.90625 
Q 36.140625 65.921875 28.71875 65.921875 
Q 24.65625 65.921875 20.015625 65.03125 
Q 15.375 64.15625 9.8125 62.3125 
L 9.8125 71.09375 
Q 15.4375 72.65625 20.34375 73.4375 
Q 25.25 74.21875 29.59375 74.21875 
Q 40.828125 74.21875 47.359375 69.109375 
Q 53.90625 64.015625 53.90625 55.328125 
Q 53.90625 49.265625 50.4375 45.09375 
Q 46.96875 40.921875 40.578125 39.3125 
z
" id="DejaVuSans-33"/>
     <path d="M 19.1875 8.296875 
L 53.609375 8.296875 
L 53.609375 0 
L 7.328125 0 
L 7.328125 8.296875 
Q 12.9375 14.109375 22.625 23.890625 
Q 32.328125 33.6875 34.8125 36.53125 
Q 39.546875 41.84375 41.421875 45.53125 
Q 43.3125 49.21875 43.3125 52.78125 
Q 43.3125 58.59375 39.234375 62.25 
Q 35.15625 65.921875 28.609375 65.921875 
Q 23.96875 65.921875 18.8125 64.3125 
Q 13.671875 62.703125 7.8125 59.421875 
L 7.8125 69.390625 
Q 13.765625 71.78125 18.9375 73 
Q 24.125 74.21875 28.421875 74.21875 
Q 39.75 74.21875 46.484375 68.546875 
Q 53.21875 62.890625 53.21875 53.421875 
Q 53.21875 48.921875 51.53125 44.890625 
Q 49.859375 40.875 45.40625 35.40625 
Q 44.1875 33.984375 37.640625 27.21875 
Q 31.109375 20.453125 19.1875 8.296875 
z
" id="DejaVuSans-32"/>
     <path d="M 31.78125 66.40625 
Q 24.171875 66.40625 20.328125 58.90625 
Q 16.5 51.421875 16.5 36.375 
Q 16.5 21.390625 20.328125 13.890625 
Q 24.171875 6.390625 31.78125 6.390625 
Q 39.453125 6.390625 43.28125 13.890625 
Q 47.125 21.390625 47.125 36.375 
Q 47.125 51.421875 43.28125 58.90625 
Q 39.453125 66.40625 31.78125 66.40625 
z
M 31.78125 74.21875 
Q 44.046875 74.21875 50.515625 64.515625 
Q 56.984375 54.828125 56.984375 36.375 
Q 56.984375 17.96875 50.515625 8.265625 
Q 44.046875 -1.421875 31.78125 -1.421875 
Q 19.53125 -1.421875 13.0625 8.265625 
Q 6.59375 17.96875 6.59375 36.375 
Q 6.59375 54.828125 13.0625 64.515625 
Q 19.53125 74.21875 31.78125 74.21875 
z
" id="DejaVuSans-30"/>
    </defs>
    <g style="fill:#262626;" transform="translate(296.942126 348.541217)scale(0.18 -0.18)">
     <use transform="translate(19.482422 0.015625)" xlink:href="#DejaVuSans-2190"/>
     <use transform="translate(122.753906 0.015625)" xlink:href="#DejaVuSans-5b"/>
     <use transform="translate(161.767578 0.015625)" xlink:href="#DejaVuSans-Oblique-78"/>
     <use transform="translate(220.947266 -16.390625)scale(0.7)" xlink:href="#DejaVuSans-31"/>
     <use transform="translate(268.217773 0.015625)" xlink:href="#DejaVuSans-5d"/>
     <use transform="translate(307.231445 0.015625)" xlink:href="#DejaVuSans-5b"/>
     <use transform="translate(346.245117 0.015625)" xlink:href="#DejaVuSans-Oblique-78"/>
     <use transform="translate(405.424805 -16.390625)scale(0.7)" xlink:href="#DejaVuSans-31"/>
     <use transform="translate(452.695312 0.015625)" xlink:href="#DejaVuSans-5d"/>
     <use transform="translate(491.708984 0.015625)" xlink:href="#DejaVuSans-5b"/>
     <use transform="translate(530.722656 0.015625)" xlink:href="#DejaVuSans-Oblique-78"/>
     <use transform="translate(589.902344 -16.390625)scale(0.7)" xlink:href="#DejaVuSans-33"/>
     <use transform="translate(637.172852 0.015625)" xlink:href="#DejaVuSans-5d"/>
     <use transform="translate(676.186523 0.015625)" xlink:href="#DejaVuSans-5b"/>
     <use transform="translate(715.200195 0.015625)" xlink:href="#DejaVuSans-Oblique-78"/>
     <use transform="translate(774.379883 -16.390625)scale(0.7)" xlink:href="#DejaVuSans-32"/>
     <use transform="translate(821.650391 0.015625)" xlink:href="#DejaVuSans-5d"/>
     <use transform="translate(860.664062 0.015625)" xlink:href="#DejaVuSans-5b"/>
     <use transform="translate(899.677734 0.015625)" xlink:href="#DejaVuSans-Oblique-78"/>
     <use transform="translate(958.857422 -16.390625)scale(0.7)" xlink:href="#DejaVuSans-30"/>
     <use transform="translate(1006.12793 0.015625)" xlink:href="#DejaVuSans-5d"/>
    </g>
   </g>
   <g id="text_5">
    <g id="patch_9">
     <path d="M 180.616372 314.995512 
L 460.696372 314.995512 
L 460.696372 290.155512 
L 180.616372 290.155512 
z
" style="fill:#ffffff;opacity:0.75;"/>
    </g>
    <!-- $\leftarrow[(x_2+x_0)][(x_1-x_3)][sin(x_1)]$ -->
    <defs>
     <path d="M 31 75.875 
Q 24.46875 64.65625 21.28125 53.65625 
Q 18.109375 42.671875 18.109375 31.390625 
Q 18.109375 20.125 21.3125 9.0625 
Q 24.515625 -2 31 -13.1875 
L 23.1875 -13.1875 
Q 15.875 -1.703125 12.234375 9.375 
Q 8.59375 20.453125 8.59375 31.390625 
Q 8.59375 42.28125 12.203125 53.3125 
Q 15.828125 64.359375 23.1875 75.875 
z
" id="DejaVuSans-28"/>
     <path d="M 46 62.703125 
L 46 35.5 
L 73.1875 35.5 
L 73.1875 27.203125 
L 46 27.203125 
L 46 0 
L 37.796875 0 
L 37.796875 27.203125 
L 10.59375 27.203125 
L 10.59375 35.5 
L 37.796875 35.5 
L 37.796875 62.703125 
z
" id="DejaVuSans-2b"/>
     <path d="M 8.015625 75.875 
L 15.828125 75.875 
Q 23.140625 64.359375 26.78125 53.3125 
Q 30.421875 42.28125 30.421875 31.390625 
Q 30.421875 20.453125 26.78125 9.375 
Q 23.140625 -1.703125 15.828125 -13.1875 
L 8.015625 -13.1875 
Q 14.5 -2 17.703125 9.0625 
Q 20.90625 20.125 20.90625 31.390625 
Q 20.90625 42.671875 17.703125 53.65625 
Q 14.5 64.65625 8.015625 75.875 
z
" id="DejaVuSans-29"/>
     <path d="M 10.59375 35.5 
L 73.1875 35.5 
L 73.1875 27.203125 
L 10.59375 27.203125 
z
" id="DejaVuSans-2212"/>
     <path d="M 50 53.078125 
L 48.296875 44.578125 
Q 44.734375 46.53125 40.765625 47.5 
Q 36.8125 48.484375 32.625 48.484375 
Q 25.53125 48.484375 21.453125 46.0625 
Q 17.390625 43.65625 17.390625 39.5 
Q 17.390625 34.671875 26.859375 32.078125 
Q 27.59375 31.890625 27.9375 31.78125 
L 30.8125 30.90625 
Q 39.796875 28.421875 42.796875 25.6875 
Q 45.796875 22.953125 45.796875 18.21875 
Q 45.796875 9.515625 38.890625 4.046875 
Q 31.984375 -1.421875 20.796875 -1.421875 
Q 16.453125 -1.421875 11.671875 -0.578125 
Q 6.890625 0.25 1.125 2 
L 2.875 11.28125 
Q 7.8125 8.734375 12.59375 7.421875 
Q 17.390625 6.109375 21.78125 6.109375 
Q 28.375 6.109375 32.5 8.9375 
Q 36.625 11.765625 36.625 16.109375 
Q 36.625 20.796875 25.78125 23.6875 
L 24.859375 23.921875 
L 21.78125 24.703125 
Q 14.9375 26.515625 11.765625 29.46875 
Q 8.59375 32.421875 8.59375 37.015625 
Q 8.59375 45.75 15.15625 50.875 
Q 21.734375 56 33.015625 56 
Q 37.453125 56 41.671875 55.265625 
Q 45.90625 54.546875 50 53.078125 
z
" id="DejaVuSans-Oblique-73"/>
     <path d="M 18.3125 75.984375 
L 27.296875 75.984375 
L 25.09375 64.59375 
L 16.109375 64.59375 
z
M 14.203125 54.6875 
L 23.1875 54.6875 
L 12.5 0 
L 3.515625 0 
z
" id="DejaVuSans-Oblique-69"/>
     <path d="M 55.71875 33.015625 
L 49.3125 0 
L 40.28125 0 
L 46.6875 32.671875 
Q 47.125 34.96875 47.359375 36.71875 
Q 47.609375 38.484375 47.609375 39.5 
Q 47.609375 43.609375 45.015625 45.890625 
Q 42.4375 48.1875 37.796875 48.1875 
Q 30.5625 48.1875 25.34375 43.375 
Q 20.125 38.578125 18.5 30.328125 
L 12.5 0 
L 3.515625 0 
L 14.109375 54.6875 
L 23.09375 54.6875 
L 21.296875 46.09375 
Q 25.046875 50.828125 30.3125 53.40625 
Q 35.59375 56 41.40625 56 
Q 48.640625 56 52.609375 52.09375 
Q 56.59375 48.1875 56.59375 41.109375 
Q 56.59375 39.359375 56.375 37.359375 
Q 56.15625 35.359375 55.71875 33.015625 
z
" id="DejaVuSans-Oblique-6e"/>
    </defs>
    <g style="fill:#262626;" transform="translate(184.576372 307.458012)scale(0.18 -0.18)">
     <use transform="translate(19.482422 0.015625)" xlink:href="#DejaVuSans-2190"/>
     <use transform="translate(122.753906 0.015625)" xlink:href="#DejaVuSans-5b"/>
     <use transform="translate(161.767578 0.015625)" xlink:href="#DejaVuSans-28"/>
     <use transform="translate(200.78125 0.015625)" xlink:href="#DejaVuSans-Oblique-78"/>
     <use transform="translate(259.960938 -16.390625)scale(0.7)" xlink:href="#DejaVuSans-32"/>
     <use transform="translate(326.713867 0.015625)" xlink:href="#DejaVuSans-2b"/>
     <use transform="translate(429.985352 0.015625)" xlink:href="#DejaVuSans-Oblique-78"/>
     <use transform="translate(489.165039 -16.390625)scale(0.7)" xlink:href="#DejaVuSans-30"/>
     <use transform="translate(536.435547 0.015625)" xlink:href="#DejaVuSans-29"/>
     <use transform="translate(575.449219 0.015625)" xlink:href="#DejaVuSans-5d"/>
     <use transform="translate(614.462891 0.015625)" xlink:href="#DejaVuSans-5b"/>
     <use transform="translate(653.476562 0.015625)" xlink:href="#DejaVuSans-28"/>
     <use transform="translate(692.490234 0.015625)" xlink:href="#DejaVuSans-Oblique-78"/>
     <use transform="translate(751.669922 -16.390625)scale(0.7)" xlink:href="#DejaVuSans-31"/>
     <use transform="translate(818.422852 0.015625)" xlink:href="#DejaVuSans-2212"/>
     <use transform="translate(921.694336 0.015625)" xlink:href="#DejaVuSans-Oblique-78"/>
     <use transform="translate(980.874023 -16.390625)scale(0.7)" xlink:href="#DejaVuSans-33"/>
     <use transform="translate(1028.144531 0.015625)" xlink:href="#DejaVuSans-29"/>
     <use transform="translate(1067.158203 0.015625)" xlink:href="#DejaVuSans-5d"/>
     <use transform="translate(1106.171875 0.015625)" xlink:href="#DejaVuSans-5b"/>
     <use transform="translate(1145.185547 0.015625)" xlink:href="#DejaVuSans-Oblique-73"/>
     <use transform="translate(1197.285156 0.015625)" xlink:href="#DejaVuSans-Oblique-69"/>
     <use transform="translate(1225.068359 0.015625)" xlink:href="#DejaVuSans-Oblique-6e"/>
     <use transform="translate(1288.447266 0.015625)" xlink:href="#DejaVuSans-28"/>
     <use transform="translate(1327.460938 0.015625)" xlink:href="#DejaVuSans-Oblique-78"/>
     <use transform="translate(1386.640625 -16.390625)scale(0.7)" xlink:href="#DejaVuSans-31"/>
     <use transform="translate(1433.911133 0.015625)" xlink:href="#DejaVuSans-29"/>
     <use transform="translate(1472.924805 0.015625)" xlink:href="#DejaVuSans-5d"/>
    </g>
   </g>
   <g id="text_6">
    <g id="patch_10">
     <path d="M 127.347722 204.226456 
L 653.667722 204.226456 
L 653.667722 178.126456 
L 127.347722 178.126456 
z
" style="fill:#ffffff;opacity:0.75;"/>
    </g>
    <!-- $\leftarrow[relu(x_3)][tanh(x_0)][(sqrt(|x_3|)*x_1)][x_1][(x_3*x_3)][x_2][x_3]$ -->
    <defs>
     <path d="M 44.578125 46.390625 
Q 43.21875 47.125 41.453125 47.515625 
Q 39.703125 47.90625 37.703125 47.90625 
Q 30.515625 47.90625 25.140625 42.453125 
Q 19.78125 37.015625 18.015625 27.875 
L 12.5 0 
L 3.515625 0 
L 14.203125 54.6875 
L 23.1875 54.6875 
L 21.484375 46.1875 
Q 25.046875 50.921875 30 53.453125 
Q 34.96875 56 40.578125 56 
Q 42.046875 56 43.453125 55.828125 
Q 44.875 55.671875 46.296875 55.28125 
z
" id="DejaVuSans-Oblique-72"/>
     <path d="M 48.09375 32.234375 
Q 48.25 33.015625 48.3125 33.84375 
Q 48.390625 34.671875 48.390625 35.5 
Q 48.390625 41.453125 44.890625 44.921875 
Q 41.40625 48.390625 35.40625 48.390625 
Q 28.71875 48.390625 23.578125 44.15625 
Q 18.453125 39.9375 15.828125 32.171875 
z
M 55.90625 25.203125 
L 14.109375 25.203125 
Q 13.8125 23.34375 13.71875 22.265625 
Q 13.625 21.1875 13.625 20.40625 
Q 13.625 13.625 17.796875 9.90625 
Q 21.96875 6.203125 29.59375 6.203125 
Q 35.453125 6.203125 40.671875 7.515625 
Q 45.90625 8.84375 50.390625 11.375 
L 48.6875 2.484375 
Q 43.84375 0.53125 38.6875 -0.4375 
Q 33.546875 -1.421875 28.21875 -1.421875 
Q 16.84375 -1.421875 10.71875 4.015625 
Q 4.59375 9.46875 4.59375 19.484375 
Q 4.59375 28.03125 7.640625 35.375 
Q 10.6875 42.71875 16.609375 48.484375 
Q 20.40625 52.09375 25.65625 54.046875 
Q 30.90625 56 36.8125 56 
Q 46.09375 56 51.578125 50.4375 
Q 57.078125 44.875 57.078125 35.5 
Q 57.078125 33.25 56.78125 30.6875 
Q 56.5 28.125 55.90625 25.203125 
z
" id="DejaVuSans-Oblique-65"/>
     <path d="M 18.3125 75.984375 
L 27.296875 75.984375 
L 12.5 0 
L 3.515625 0 
z
" id="DejaVuSans-Oblique-6c"/>
     <path d="M 6.6875 21.6875 
L 13.09375 54.6875 
L 22.125 54.6875 
L 15.71875 22.015625 
Q 15.234375 19.625 15.015625 17.921875 
Q 14.796875 16.21875 14.796875 15.09375 
Q 14.796875 10.9375 17.328125 8.65625 
Q 19.875 6.390625 24.515625 6.390625 
Q 31.734375 6.390625 37 11.265625 
Q 42.28125 16.15625 43.890625 24.421875 
L 49.90625 54.6875 
L 58.890625 54.6875 
L 48.296875 0 
L 39.3125 0 
L 41.109375 8.59375 
Q 37.3125 3.8125 32.0625 1.1875 
Q 26.8125 -1.421875 20.90625 -1.421875 
Q 13.71875 -1.421875 9.71875 2.515625 
Q 5.71875 6.453125 5.71875 13.484375 
Q 5.71875 14.9375 5.953125 17.140625 
Q 6.203125 19.34375 6.6875 21.6875 
z
" id="DejaVuSans-Oblique-75"/>
     <path d="M 42.28125 54.6875 
L 40.921875 47.703125 
L 23 47.703125 
L 17.1875 18.015625 
Q 16.890625 16.359375 16.75 15.234375 
Q 16.609375 14.109375 16.609375 13.484375 
Q 16.609375 10.359375 18.484375 8.9375 
Q 20.359375 7.515625 24.515625 7.515625 
L 33.59375 7.515625 
L 32.078125 0 
L 23.484375 0 
Q 15.484375 0 11.546875 3.125 
Q 7.625 6.25 7.625 12.59375 
Q 7.625 13.71875 7.765625 15.0625 
Q 7.90625 16.40625 8.203125 18.015625 
L 14.015625 47.703125 
L 6.390625 47.703125 
L 7.8125 54.6875 
L 15.28125 54.6875 
L 18.3125 70.21875 
L 27.296875 70.21875 
L 24.3125 54.6875 
z
" id="DejaVuSans-Oblique-74"/>
     <path d="M 53.71875 31.203125 
L 47.609375 0 
L 38.625 0 
L 40.28125 8.296875 
Q 36.328125 3.421875 31.265625 1 
Q 26.21875 -1.421875 20.015625 -1.421875 
Q 13.03125 -1.421875 8.5625 2.84375 
Q 4.109375 7.125 4.109375 13.8125 
Q 4.109375 23.390625 11.75 28.953125 
Q 19.390625 34.515625 32.8125 34.515625 
L 45.3125 34.515625 
L 45.796875 36.921875 
Q 45.90625 37.3125 45.953125 37.765625 
Q 46 38.234375 46 39.203125 
Q 46 43.5625 42.453125 45.96875 
Q 38.921875 48.390625 32.515625 48.390625 
Q 28.125 48.390625 23.5 47.265625 
Q 18.890625 46.140625 14.015625 43.890625 
L 15.578125 52.203125 
Q 20.65625 54.109375 25.515625 55.046875 
Q 30.375 56 34.90625 56 
Q 44.578125 56 49.625 51.796875 
Q 54.6875 47.609375 54.6875 39.59375 
Q 54.6875 37.984375 54.4375 35.8125 
Q 54.203125 33.640625 53.71875 31.203125 
z
M 44 27.484375 
L 35.015625 27.484375 
Q 23.96875 27.484375 18.671875 24.53125 
Q 13.375 21.578125 13.375 15.375 
Q 13.375 11.078125 16.078125 8.640625 
Q 18.796875 6.203125 23.578125 6.203125 
Q 30.90625 6.203125 36.375 11.453125 
Q 41.84375 16.703125 43.609375 25.484375 
z
" id="DejaVuSans-Oblique-61"/>
     <path d="M 55.71875 33.015625 
L 49.3125 0 
L 40.28125 0 
L 46.6875 32.671875 
Q 47.125 34.96875 47.359375 36.71875 
Q 47.609375 38.484375 47.609375 39.5 
Q 47.609375 43.609375 45.015625 45.890625 
Q 42.4375 48.1875 37.796875 48.1875 
Q 30.5625 48.1875 25.265625 43.296875 
Q 19.96875 38.421875 18.40625 30.328125 
L 12.5 0 
L 3.515625 0 
L 18.3125 75.984375 
L 27.296875 75.984375 
L 21.484375 46.09375 
Q 24.90625 50.6875 30.21875 53.34375 
Q 35.546875 56 41.40625 56 
Q 48.640625 56 52.609375 52.09375 
Q 56.59375 48.1875 56.59375 41.109375 
Q 56.59375 39.359375 56.375 37.359375 
Q 56.15625 35.359375 55.71875 33.015625 
z
" id="DejaVuSans-Oblique-68"/>
     <path d="M 41.703125 8.203125 
Q 38.09375 3.46875 33.171875 1.015625 
Q 28.265625 -1.421875 22.3125 -1.421875 
Q 14.015625 -1.421875 9.296875 4.171875 
Q 4.59375 9.765625 4.59375 19.578125 
Q 4.59375 27.484375 7.5 34.859375 
Q 10.40625 42.234375 15.828125 48.09375 
Q 19.34375 51.90625 23.90625 53.953125 
Q 28.46875 56 33.5 56 
Q 39.546875 56 43.453125 53.609375 
Q 47.359375 51.21875 49.125 46.390625 
L 50.6875 54.59375 
L 59.71875 54.59375 
L 45.125 -20.609375 
L 36.078125 -20.609375 
z
M 13.921875 20.90625 
Q 13.921875 13.671875 16.9375 9.890625 
Q 19.96875 6.109375 25.6875 6.109375 
Q 34.1875 6.109375 40.1875 14.234375 
Q 46.1875 22.359375 46.1875 33.984375 
Q 46.1875 41.015625 43.078125 44.75 
Q 39.984375 48.484375 34.1875 48.484375 
Q 29.9375 48.484375 26.3125 46.5 
Q 22.703125 44.53125 20.015625 40.71875 
Q 17.1875 36.71875 15.546875 31.34375 
Q 13.921875 25.984375 13.921875 20.90625 
z
" id="DejaVuSans-Oblique-71"/>
     <path d="M 21 76.421875 
L 21 -23.578125 
L 12.703125 -23.578125 
L 12.703125 76.421875 
z
" id="DejaVuSans-7c"/>
     <path d="M 47.015625 60.890625 
L 29.5 51.421875 
L 47.015625 41.890625 
L 44.1875 37.109375 
L 27.78125 47.015625 
L 27.78125 28.609375 
L 22.21875 28.609375 
L 22.21875 47.015625 
L 5.8125 37.109375 
L 2.984375 41.890625 
L 20.515625 51.421875 
L 2.984375 60.890625 
L 5.8125 65.71875 
L 22.21875 55.8125 
L 22.21875 74.21875 
L 27.78125 74.21875 
L 27.78125 55.8125 
L 44.1875 65.71875 
z
" id="DejaVuSans-2a"/>
    </defs>
    <g style="fill:#262626;" transform="translate(131.307722 195.946456)scale(0.18 -0.18)">
     <use transform="translate(19.482422 0.578125)" xlink:href="#DejaVuSans-2190"/>
     <use transform="translate(122.753906 0.578125)" xlink:href="#DejaVuSans-5b"/>
     <use transform="translate(161.767578 0.578125)" xlink:href="#DejaVuSans-Oblique-72"/>
     <use transform="translate(202.880859 0.578125)" xlink:href="#DejaVuSans-Oblique-65"/>
     <use transform="translate(264.404297 0.578125)" xlink:href="#DejaVuSans-Oblique-6c"/>
     <use transform="translate(292.1875 0.578125)" xlink:href="#DejaVuSans-Oblique-75"/>
     <use transform="translate(355.566406 0.578125)" xlink:href="#DejaVuSans-28"/>
     <use transform="translate(394.580078 0.578125)" xlink:href="#DejaVuSans-Oblique-78"/>
     <use transform="translate(453.759766 -15.828125)scale(0.7)" xlink:href="#DejaVuSans-33"/>
     <use transform="translate(501.030273 0.578125)" xlink:href="#DejaVuSans-29"/>
     <use transform="translate(540.043945 0.578125)" xlink:href="#DejaVuSans-5d"/>
     <use transform="translate(579.057617 0.578125)" xlink:href="#DejaVuSans-5b"/>
     <use transform="translate(618.071289 0.578125)" xlink:href="#DejaVuSans-Oblique-74"/>
     <use transform="translate(657.280273 0.578125)" xlink:href="#DejaVuSans-Oblique-61"/>
     <use transform="translate(718.55957 0.578125)" xlink:href="#DejaVuSans-Oblique-6e"/>
     <use transform="translate(781.938477 0.578125)" xlink:href="#DejaVuSans-Oblique-68"/>
     <use transform="translate(845.317383 0.578125)" xlink:href="#DejaVuSans-28"/>
     <use transform="translate(884.331055 0.578125)" xlink:href="#DejaVuSans-Oblique-78"/>
     <use transform="translate(943.510742 -15.828125)scale(0.7)" xlink:href="#DejaVuSans-30"/>
     <use transform="translate(990.78125 0.578125)" xlink:href="#DejaVuSans-29"/>
     <use transform="translate(1029.794922 0.578125)" xlink:href="#DejaVuSans-5d"/>
     <use transform="translate(1068.808594 0.578125)" xlink:href="#DejaVuSans-5b"/>
     <use transform="translate(1107.822266 0.578125)" xlink:href="#DejaVuSans-28"/>
     <use transform="translate(1146.835938 0.578125)" xlink:href="#DejaVuSans-Oblique-73"/>
     <use transform="translate(1198.935547 0.578125)" xlink:href="#DejaVuSans-Oblique-71"/>
     <use transform="translate(1262.412109 0.578125)" xlink:href="#DejaVuSans-Oblique-72"/>
     <use transform="translate(1303.525391 0.578125)" xlink:href="#DejaVuSans-Oblique-74"/>
     <use transform="translate(1342.734375 0.578125)" xlink:href="#DejaVuSans-28"/>
     <use transform="translate(1381.748047 0.578125)" xlink:href="#DejaVuSans-7c"/>
     <use transform="translate(1415.439453 0.578125)" xlink:href="#DejaVuSans-Oblique-78"/>
     <use transform="translate(1474.619141 -15.828125)scale(0.7)" xlink:href="#DejaVuSans-33"/>
     <use transform="translate(1521.889648 0.578125)" xlink:href="#DejaVuSans-7c"/>
     <use transform="translate(1555.581055 0.578125)" xlink:href="#DejaVuSans-29"/>
     <use transform="translate(1614.077148 0.578125)" xlink:href="#DejaVuSans-2a"/>
     <use transform="translate(1683.55957 0.578125)" xlink:href="#DejaVuSans-Oblique-78"/>
     <use transform="translate(1742.739258 -15.828125)scale(0.7)" xlink:href="#DejaVuSans-31"/>
     <use transform="translate(1790.009766 0.578125)" xlink:href="#DejaVuSans-29"/>
     <use transform="translate(1829.023438 0.578125)" xlink:href="#DejaVuSans-5d"/>
     <use transform="translate(1868.037109 0.578125)" xlink:href="#DejaVuSans-5b"/>
     <use transform="translate(1907.050781 0.578125)" xlink:href="#DejaVuSans-Oblique-78"/>
     <use transform="translate(1966.230469 -15.828125)scale(0.7)" xlink:href="#DejaVuSans-31"/>
     <use transform="translate(2013.500977 0.578125)" xlink:href="#DejaVuSans-5d"/>
     <use transform="translate(2052.514648 0.578125)" xlink:href="#DejaVuSans-5b"/>
     <use transform="translate(2091.52832 0.578125)" xlink:href="#DejaVuSans-28"/>
     <use transform="translate(2130.541992 0.578125)" xlink:href="#DejaVuSans-Oblique-78"/>
     <use transform="translate(2189.72168 -15.828125)scale(0.7)" xlink:href="#DejaVuSans-33"/>
     <use transform="translate(2256.474609 0.578125)" xlink:href="#DejaVuSans-2a"/>
     <use transform="translate(2325.957031 0.578125)" xlink:href="#DejaVuSans-Oblique-78"/>
     <use transform="translate(2385.136719 -15.828125)scale(0.7)" xlink:href="#DejaVuSans-33"/>
     <use transform="translate(2432.407227 0.578125)" xlink:href="#DejaVuSans-29"/>
     <use transform="translate(2471.420898 0.578125)" xlink:href="#DejaVuSans-5d"/>
     <use transform="translate(2510.43457 0.578125)" xlink:href="#DejaVuSans-5b"/>
     <use transform="translate(2549.448242 0.578125)" xlink:href="#DejaVuSans-Oblique-78"/>
     <use transform="translate(2608.62793 -15.828125)scale(0.7)" xlink:href="#DejaVuSans-32"/>
     <use transform="translate(2655.898438 0.578125)" xlink:href="#DejaVuSans-5d"/>
     <use transform="translate(2694.912109 0.578125)" xlink:href="#DejaVuSans-5b"/>
     <use transform="translate(2733.925781 0.578125)" xlink:href="#DejaVuSans-Oblique-78"/>
     <use transform="translate(2793.105469 -15.828125)scale(0.7)" xlink:href="#DejaVuSans-33"/>
     <use transform="translate(2840.375977 0.578125)" xlink:href="#DejaVuSans-5d"/>
    </g>
   </g>
   <g id="text_7">
    <!-- $\leftarrow$ overfitting -->
    <defs>
     <path id="ArialMT-20"/>
     <path d="M 21 0 
L 1.265625 51.859375 
L 10.546875 51.859375 
L 21.6875 20.796875 
Q 23.484375 15.765625 25 10.359375 
Q 26.171875 14.453125 28.265625 20.21875 
L 39.796875 51.859375 
L 48.828125 51.859375 
L 29.203125 0 
z
" id="ArialMT-76"/>
     <path d="M 6.5 0 
L 6.5 51.859375 
L 14.40625 51.859375 
L 14.40625 44 
Q 17.4375 49.515625 20 51.265625 
Q 22.5625 53.03125 25.640625 53.03125 
Q 30.078125 53.03125 34.671875 50.203125 
L 31.640625 42.046875 
Q 28.421875 43.953125 25.203125 43.953125 
Q 22.3125 43.953125 20.015625 42.21875 
Q 17.71875 40.484375 16.75 37.40625 
Q 15.28125 32.71875 15.28125 27.15625 
L 15.28125 0 
z
" id="ArialMT-72"/>
     <path d="M 8.6875 0 
L 8.6875 45.015625 
L 0.921875 45.015625 
L 0.921875 51.859375 
L 8.6875 51.859375 
L 8.6875 57.375 
Q 8.6875 62.59375 9.625 65.140625 
Q 10.890625 68.5625 14.078125 70.671875 
Q 17.28125 72.796875 23.046875 72.796875 
Q 26.765625 72.796875 31.25 71.921875 
L 29.9375 64.265625 
Q 27.203125 64.75 24.75 64.75 
Q 20.75 64.75 19.09375 63.03125 
Q 17.4375 61.328125 17.4375 56.640625 
L 17.4375 51.859375 
L 27.546875 51.859375 
L 27.546875 45.015625 
L 17.4375 45.015625 
L 17.4375 0 
z
" id="ArialMT-66"/>
     <path d="M 6.59375 0 
L 6.59375 51.859375 
L 14.5 51.859375 
L 14.5 44.484375 
Q 20.21875 53.03125 31 53.03125 
Q 35.6875 53.03125 39.625 51.34375 
Q 43.5625 49.65625 45.515625 46.921875 
Q 47.46875 44.1875 48.25 40.4375 
Q 48.734375 37.984375 48.734375 31.890625 
L 48.734375 0 
L 39.9375 0 
L 39.9375 31.546875 
Q 39.9375 36.921875 38.90625 39.578125 
Q 37.890625 42.234375 35.28125 43.8125 
Q 32.671875 45.40625 29.15625 45.40625 
Q 23.53125 45.40625 19.453125 41.84375 
Q 15.375 38.28125 15.375 28.328125 
L 15.375 0 
z
" id="ArialMT-6e"/>
     <path d="M 4.984375 -4.296875 
L 13.53125 -5.5625 
Q 14.0625 -9.515625 16.5 -11.328125 
Q 19.78125 -13.765625 25.4375 -13.765625 
Q 31.546875 -13.765625 34.859375 -11.328125 
Q 38.1875 -8.890625 39.359375 -4.5 
Q 40.046875 -1.8125 39.984375 6.78125 
Q 34.234375 0 25.640625 0 
Q 14.9375 0 9.078125 7.71875 
Q 3.21875 15.4375 3.21875 26.21875 
Q 3.21875 33.640625 5.90625 39.90625 
Q 8.59375 46.1875 13.6875 49.609375 
Q 18.796875 53.03125 25.6875 53.03125 
Q 34.859375 53.03125 40.828125 45.609375 
L 40.828125 51.859375 
L 48.921875 51.859375 
L 48.921875 7.03125 
Q 48.921875 -5.078125 46.453125 -10.125 
Q 44 -15.1875 38.640625 -18.109375 
Q 33.296875 -21.046875 25.484375 -21.046875 
Q 16.21875 -21.046875 10.5 -16.875 
Q 4.78125 -12.703125 4.984375 -4.296875 
z
M 12.25 26.859375 
Q 12.25 16.65625 16.296875 11.96875 
Q 20.359375 7.28125 26.46875 7.28125 
Q 32.515625 7.28125 36.609375 11.9375 
Q 40.71875 16.609375 40.71875 26.5625 
Q 40.71875 36.078125 36.5 40.90625 
Q 32.28125 45.75 26.3125 45.75 
Q 20.453125 45.75 16.34375 40.984375 
Q 12.25 36.234375 12.25 26.859375 
z
" id="ArialMT-67"/>
    </defs>
    <g style="fill:#262626;" transform="translate(349.904468 125.518105)scale(0.18 -0.18)">
     <use transform="translate(19.482422 0.203125)" xlink:href="#DejaVuSans-2190"/>
     <use transform="translate(122.753906 0.203125)" xlink:href="#ArialMT-20"/>
     <use transform="translate(150.537109 0.203125)" xlink:href="#ArialMT-6f"/>
     <use transform="translate(206.152344 0.203125)" xlink:href="#ArialMT-76"/>
     <use transform="translate(256.152344 0.203125)" xlink:href="#ArialMT-65"/>
     <use transform="translate(311.767578 0.203125)" xlink:href="#ArialMT-72"/>
     <use transform="translate(345.068359 0.203125)" xlink:href="#ArialMT-66"/>
     <use transform="translate(372.851562 0.203125)" xlink:href="#ArialMT-69"/>
     <use transform="translate(395.068359 0.203125)" xlink:href="#ArialMT-74"/>
     <use transform="translate(422.851562 0.203125)" xlink:href="#ArialMT-74"/>
     <use transform="translate(450.634766 0.203125)" xlink:href="#ArialMT-69"/>
     <use transform="translate(472.851562 0.203125)" xlink:href="#ArialMT-6e"/>
     <use transform="translate(528.466797 0.203125)" xlink:href="#ArialMT-67"/>
    </g>
   </g>
   <g id="text_8">
    <g id="patch_11">
     <path d="M 112.472974 98.480429 
L 685.592974 98.480429 
L 685.592974 52.049429 
L 112.472974 52.049429 
z
" style="fill:#ffffff;opacity:0.75;"/>
    </g>
    <!-- $\leftarrow[(sqrt(|x_3|)*x_1)][sqrt(|(x_1-x_3)|)][(x_2/x_1)][(x_1-x_3)][tanh(x_0)]$ -->
    <defs>
     <path d="M 25.390625 72.90625 
L 33.6875 72.90625 
L 8.296875 -9.28125 
L 0 -9.28125 
z
" id="DejaVuSans-2f"/>
    </defs>
    <g style="fill:#262626;" transform="translate(116.432974 70.611929)scale(0.18 -0.18)">
     <use transform="translate(19.482422 0.578125)" xlink:href="#DejaVuSans-2190"/>
     <use transform="translate(122.753906 0.578125)" xlink:href="#DejaVuSans-5b"/>
     <use transform="translate(161.767578 0.578125)" xlink:href="#DejaVuSans-28"/>
     <use transform="translate(200.78125 0.578125)" xlink:href="#DejaVuSans-Oblique-73"/>
     <use transform="translate(252.880859 0.578125)" xlink:href="#DejaVuSans-Oblique-71"/>
     <use transform="translate(316.357422 0.578125)" xlink:href="#DejaVuSans-Oblique-72"/>
     <use transform="translate(357.470703 0.578125)" xlink:href="#DejaVuSans-Oblique-74"/>
     <use transform="translate(396.679688 0.578125)" xlink:href="#DejaVuSans-28"/>
     <use transform="translate(435.693359 0.578125)" xlink:href="#DejaVuSans-7c"/>
     <use transform="translate(469.384766 0.578125)" xlink:href="#DejaVuSans-Oblique-78"/>
     <use transform="translate(528.564453 -15.828125)scale(0.7)" xlink:href="#DejaVuSans-33"/>
     <use transform="translate(575.834961 0.578125)" xlink:href="#DejaVuSans-7c"/>
     <use transform="translate(609.526367 0.578125)" xlink:href="#DejaVuSans-29"/>
     <use transform="translate(668.022461 0.578125)" xlink:href="#DejaVuSans-2a"/>
     <use transform="translate(737.504883 0.578125)" xlink:href="#DejaVuSans-Oblique-78"/>
     <use transform="translate(796.68457 -15.828125)scale(0.7)" xlink:href="#DejaVuSans-31"/>
     <use transform="translate(843.955078 0.578125)" xlink:href="#DejaVuSans-29"/>
     <use transform="translate(882.96875 0.578125)" xlink:href="#DejaVuSans-5d"/>
     <use transform="translate(921.982422 0.578125)" xlink:href="#DejaVuSans-5b"/>
     <use transform="translate(960.996094 0.578125)" xlink:href="#DejaVuSans-Oblique-73"/>
     <use transform="translate(1013.095703 0.578125)" xlink:href="#DejaVuSans-Oblique-71"/>
     <use transform="translate(1076.572266 0.578125)" xlink:href="#DejaVuSans-Oblique-72"/>
     <use transform="translate(1117.685547 0.578125)" xlink:href="#DejaVuSans-Oblique-74"/>
     <use transform="translate(1156.894531 0.578125)" xlink:href="#DejaVuSans-28"/>
     <use transform="translate(1195.908203 0.578125)" xlink:href="#DejaVuSans-7c"/>
     <use transform="translate(1229.599609 0.578125)" xlink:href="#DejaVuSans-28"/>
     <use transform="translate(1268.613281 0.578125)" xlink:href="#DejaVuSans-Oblique-78"/>
     <use transform="translate(1327.792969 -15.828125)scale(0.7)" xlink:href="#DejaVuSans-31"/>
     <use transform="translate(1394.545898 0.578125)" xlink:href="#DejaVuSans-2212"/>
     <use transform="translate(1497.817383 0.578125)" xlink:href="#DejaVuSans-Oblique-78"/>
     <use transform="translate(1556.99707 -15.828125)scale(0.7)" xlink:href="#DejaVuSans-33"/>
     <use transform="translate(1604.267578 0.578125)" xlink:href="#DejaVuSans-29"/>
     <use transform="translate(1643.28125 0.578125)" xlink:href="#DejaVuSans-7c"/>
     <use transform="translate(1676.972656 0.578125)" xlink:href="#DejaVuSans-29"/>
     <use transform="translate(1715.986328 0.578125)" xlink:href="#DejaVuSans-5d"/>
     <use transform="translate(1755 0.578125)" xlink:href="#DejaVuSans-5b"/>
     <use transform="translate(1794.013672 0.578125)" xlink:href="#DejaVuSans-28"/>
     <use transform="translate(1833.027344 0.578125)" xlink:href="#DejaVuSans-Oblique-78"/>
     <use transform="translate(1892.207031 -15.828125)scale(0.7)" xlink:href="#DejaVuSans-32"/>
     <use transform="translate(1939.477539 0.578125)" xlink:href="#DejaVuSans-2f"/>
     <use transform="translate(1973.168945 0.578125)" xlink:href="#DejaVuSans-Oblique-78"/>
     <use transform="translate(2032.348633 -15.828125)scale(0.7)" xlink:href="#DejaVuSans-31"/>
     <use transform="translate(2079.619141 0.578125)" xlink:href="#DejaVuSans-29"/>
     <use transform="translate(2118.632812 0.578125)" xlink:href="#DejaVuSans-5d"/>
     <use transform="translate(2157.646484 0.578125)" xlink:href="#DejaVuSans-5b"/>
     <use transform="translate(2196.660156 0.578125)" xlink:href="#DejaVuSans-28"/>
     <use transform="translate(2235.673828 0.578125)" xlink:href="#DejaVuSans-Oblique-78"/>
     <use transform="translate(2294.853516 -15.828125)scale(0.7)" xlink:href="#DejaVuSans-31"/>
     <use transform="translate(2361.606445 0.578125)" xlink:href="#DejaVuSans-2212"/>
     <use transform="translate(2464.87793 0.578125)" xlink:href="#DejaVuSans-Oblique-78"/>
     <use transform="translate(2524.057617 -15.828125)scale(0.7)" xlink:href="#DejaVuSans-33"/>
     <use transform="translate(2571.328125 0.578125)" xlink:href="#DejaVuSans-29"/>
     <use transform="translate(2610.341797 0.578125)" xlink:href="#DejaVuSans-5d"/>
     <use transform="translate(2649.355469 0.578125)" xlink:href="#DejaVuSans-5b"/>
     <use transform="translate(2688.369141 0.578125)" xlink:href="#DejaVuSans-Oblique-74"/>
     <use transform="translate(2727.578125 0.578125)" xlink:href="#DejaVuSans-Oblique-61"/>
     <use transform="translate(2788.857422 0.578125)" xlink:href="#DejaVuSans-Oblique-6e"/>
     <use transform="translate(2852.236328 0.578125)" xlink:href="#DejaVuSans-Oblique-68"/>
     <use transform="translate(2915.615234 0.578125)" xlink:href="#DejaVuSans-28"/>
     <use transform="translate(2954.628906 0.578125)" xlink:href="#DejaVuSans-Oblique-78"/>
     <use transform="translate(3013.808594 -15.828125)scale(0.7)" xlink:href="#DejaVuSans-30"/>
     <use transform="translate(3061.079102 0.578125)" xlink:href="#DejaVuSans-29"/>
     <use transform="translate(3100.092773 0.578125)" xlink:href="#DejaVuSans-5d"/>
    </g>
    <!-- $[(sin(x_1)/x_1)][x_0][x_2]$ -->
    <g style="fill:#262626;" transform="translate(502.892974 90.942929)scale(0.18 -0.18)">
     <use transform="translate(0 0.015625)" xlink:href="#DejaVuSans-5b"/>
     <use transform="translate(39.013672 0.015625)" xlink:href="#DejaVuSans-28"/>
     <use transform="translate(78.027344 0.015625)" xlink:href="#DejaVuSans-Oblique-73"/>
     <use transform="translate(130.126953 0.015625)" xlink:href="#DejaVuSans-Oblique-69"/>
     <use transform="translate(157.910156 0.015625)" xlink:href="#DejaVuSans-Oblique-6e"/>
     <use transform="translate(221.289062 0.015625)" xlink:href="#DejaVuSans-28"/>
     <use transform="translate(260.302734 0.015625)" xlink:href="#DejaVuSans-Oblique-78"/>
     <use transform="translate(319.482422 -16.390625)scale(0.7)" xlink:href="#DejaVuSans-31"/>
     <use transform="translate(366.75293 0.015625)" xlink:href="#DejaVuSans-29"/>
     <use transform="translate(405.766602 0.015625)" xlink:href="#DejaVuSans-2f"/>
     <use transform="translate(439.458008 0.015625)" xlink:href="#DejaVuSans-Oblique-78"/>
     <use transform="translate(498.637695 -16.390625)scale(0.7)" xlink:href="#DejaVuSans-31"/>
     <use transform="translate(545.908203 0.015625)" xlink:href="#DejaVuSans-29"/>
     <use transform="translate(584.921875 0.015625)" xlink:href="#DejaVuSans-5d"/>
     <use transform="translate(623.935547 0.015625)" xlink:href="#DejaVuSans-5b"/>
     <use transform="translate(662.949219 0.015625)" xlink:href="#DejaVuSans-Oblique-78"/>
     <use transform="translate(722.128906 -16.390625)scale(0.7)" xlink:href="#DejaVuSans-30"/>
     <use transform="translate(769.399414 0.015625)" xlink:href="#DejaVuSans-5d"/>
     <use transform="translate(808.413086 0.015625)" xlink:href="#DejaVuSans-5b"/>
     <use transform="translate(847.426758 0.015625)" xlink:href="#DejaVuSans-Oblique-78"/>
     <use transform="translate(906.606445 -16.390625)scale(0.7)" xlink:href="#DejaVuSans-32"/>
     <use transform="translate(953.876953 0.015625)" xlink:href="#DejaVuSans-5d"/>
    </g>
   </g>
   <g id="legend_1">
    <g id="patch_12">
     <path d="M 514.0888 376.155 
L 679.1263 376.155 
Q 682.3263 376.155 682.3263 372.955 
L 682.3263 238.76 
Q 682.3263 235.56 679.1263 235.56 
L 514.0888 235.56 
Q 510.8888 235.56 510.8888 238.76 
L 510.8888 372.955 
Q 510.8888 376.155 514.0888 376.155 
z
" style="fill:#ffffff;opacity:0.8;stroke:#cccccc;stroke-linejoin:miter;"/>
    </g>
    <g id="line2d_7">
     <path d="M 517.2888 247.8125 
L 549.2888 247.8125 
" style="fill:none;stroke:#ff0000;stroke-dasharray:5.55,2.4;stroke-dashoffset:0;stroke-width:1.5;"/>
    </g>
    <g id="line2d_8">
     <g>
      <use style="fill:#ff0000;stroke:#ff0000;" x="533.2888" xlink:href="#m0bd6e19590" y="247.8125"/>
     </g>
    </g>
    <g id="text_9">
     <!-- Train -->
     <defs>
      <path d="M 25.921875 0 
L 25.921875 63.140625 
L 2.34375 63.140625 
L 2.34375 71.578125 
L 59.078125 71.578125 
L 59.078125 63.140625 
L 35.40625 63.140625 
L 35.40625 0 
z
" id="ArialMT-54"/>
      <path d="M 40.4375 6.390625 
Q 35.546875 2.25 31.03125 0.53125 
Q 26.515625 -1.171875 21.34375 -1.171875 
Q 12.796875 -1.171875 8.203125 3 
Q 3.609375 7.171875 3.609375 13.671875 
Q 3.609375 17.484375 5.34375 20.625 
Q 7.078125 23.78125 9.890625 25.6875 
Q 12.703125 27.59375 16.21875 28.5625 
Q 18.796875 29.25 24.03125 29.890625 
Q 34.671875 31.15625 39.703125 32.90625 
Q 39.75 34.71875 39.75 35.203125 
Q 39.75 40.578125 37.25 42.78125 
Q 33.890625 45.75 27.25 45.75 
Q 21.046875 45.75 18.09375 43.578125 
Q 15.140625 41.40625 13.71875 35.890625 
L 5.125 37.0625 
Q 6.296875 42.578125 8.984375 45.96875 
Q 11.671875 49.359375 16.75 51.1875 
Q 21.828125 53.03125 28.515625 53.03125 
Q 35.15625 53.03125 39.296875 51.46875 
Q 43.453125 49.90625 45.40625 47.53125 
Q 47.359375 45.171875 48.140625 41.546875 
Q 48.578125 39.3125 48.578125 33.453125 
L 48.578125 21.734375 
Q 48.578125 9.46875 49.140625 6.21875 
Q 49.703125 2.984375 51.375 0 
L 42.1875 0 
Q 40.828125 2.734375 40.4375 6.390625 
z
M 39.703125 26.03125 
Q 34.90625 24.078125 25.34375 22.703125 
Q 19.921875 21.921875 17.671875 20.9375 
Q 15.4375 19.96875 14.203125 18.09375 
Q 12.984375 16.21875 12.984375 13.921875 
Q 12.984375 10.40625 15.640625 8.0625 
Q 18.3125 5.71875 23.4375 5.71875 
Q 28.515625 5.71875 32.46875 7.9375 
Q 36.421875 10.15625 38.28125 14.015625 
Q 39.703125 17 39.703125 22.796875 
z
" id="ArialMT-61"/>
     </defs>
     <g style="fill:#262626;" transform="translate(562.0888 253.4125)scale(0.16 -0.16)">
      <use xlink:href="#ArialMT-54"/>
      <use x="61.037109" xlink:href="#ArialMT-72"/>
      <use x="94.337891" xlink:href="#ArialMT-61"/>
      <use x="149.953125" xlink:href="#ArialMT-69"/>
      <use x="172.169922" xlink:href="#ArialMT-6e"/>
     </g>
    </g>
    <g id="line2d_9">
     <path d="M 517.2888 270.445 
L 549.2888 270.445 
" style="fill:none;stroke:#0000ff;stroke-dasharray:5.55,2.4;stroke-dashoffset:0;stroke-width:1.5;"/>
    </g>
    <g id="line2d_10">
     <g>
      <use style="fill:#0000ff;stroke:#0000ff;" x="533.2888" xlink:href="#mf46bad0371" y="270.445"/>
     </g>
    </g>
    <g id="text_10">
     <!-- Validation -->
     <defs>
      <path d="M 28.171875 0 
L 0.4375 71.578125 
L 10.6875 71.578125 
L 29.296875 19.578125 
Q 31.546875 13.328125 33.0625 7.859375 
Q 34.71875 13.71875 36.921875 19.578125 
L 56.25 71.578125 
L 65.921875 71.578125 
L 37.890625 0 
z
" id="ArialMT-56"/>
      <path d="M 40.234375 0 
L 40.234375 6.546875 
Q 35.296875 -1.171875 25.734375 -1.171875 
Q 19.53125 -1.171875 14.328125 2.25 
Q 9.125 5.671875 6.265625 11.796875 
Q 3.421875 17.921875 3.421875 25.875 
Q 3.421875 33.640625 6 39.96875 
Q 8.59375 46.296875 13.765625 49.65625 
Q 18.953125 53.03125 25.34375 53.03125 
Q 30.03125 53.03125 33.6875 51.046875 
Q 37.359375 49.078125 39.65625 45.90625 
L 39.65625 71.578125 
L 48.390625 71.578125 
L 48.390625 0 
z
M 12.453125 25.875 
Q 12.453125 15.921875 16.640625 10.984375 
Q 20.84375 6.0625 26.5625 6.0625 
Q 32.328125 6.0625 36.34375 10.765625 
Q 40.375 15.484375 40.375 25.140625 
Q 40.375 35.796875 36.265625 40.765625 
Q 32.171875 45.75 26.171875 45.75 
Q 20.3125 45.75 16.375 40.96875 
Q 12.453125 36.1875 12.453125 25.875 
z
" id="ArialMT-64"/>
     </defs>
     <g style="fill:#262626;" transform="translate(562.0888 276.045)scale(0.16 -0.16)">
      <use xlink:href="#ArialMT-56"/>
      <use x="66.589844" xlink:href="#ArialMT-61"/>
      <use x="122.205078" xlink:href="#ArialMT-6c"/>
      <use x="144.421875" xlink:href="#ArialMT-69"/>
      <use x="166.638672" xlink:href="#ArialMT-64"/>
      <use x="222.253906" xlink:href="#ArialMT-61"/>
      <use x="277.869141" xlink:href="#ArialMT-74"/>
      <use x="305.652344" xlink:href="#ArialMT-69"/>
      <use x="327.869141" xlink:href="#ArialMT-6f"/>
      <use x="383.484375" xlink:href="#ArialMT-6e"/>
     </g>
    </g>
    <g id="line2d_11"/>
    <g id="line2d_12">
     <g>
      <use style="fill-opacity:0;stroke:#000000;stroke-linejoin:miter;" x="533.2888" xlink:href="#m90114f708e" y="293.0775"/>
     </g>
    </g>
    <g id="text_11">
     <!-- Model Selection -->
     <defs>
      <path d="M 40.4375 19 
L 49.078125 17.875 
Q 47.65625 8.9375 41.8125 3.875 
Q 35.984375 -1.171875 27.484375 -1.171875 
Q 16.84375 -1.171875 10.375 5.78125 
Q 3.90625 12.75 3.90625 25.734375 
Q 3.90625 34.125 6.6875 40.421875 
Q 9.46875 46.734375 15.15625 49.875 
Q 20.84375 53.03125 27.546875 53.03125 
Q 35.984375 53.03125 41.359375 48.75 
Q 46.734375 44.484375 48.25 36.625 
L 39.703125 35.296875 
Q 38.484375 40.53125 35.375 43.15625 
Q 32.28125 45.796875 27.875 45.796875 
Q 21.234375 45.796875 17.078125 41.03125 
Q 12.9375 36.28125 12.9375 25.984375 
Q 12.9375 15.53125 16.9375 10.796875 
Q 20.953125 6.0625 27.390625 6.0625 
Q 32.5625 6.0625 36.03125 9.234375 
Q 39.5 12.40625 40.4375 19 
z
" id="ArialMT-63"/>
     </defs>
     <g style="fill:#262626;" transform="translate(562.0888 298.6775)scale(0.16 -0.16)">
      <use xlink:href="#ArialMT-4d"/>
      <use x="83.300781" xlink:href="#ArialMT-6f"/>
      <use x="138.916016" xlink:href="#ArialMT-64"/>
      <use x="194.53125" xlink:href="#ArialMT-65"/>
      <use x="250.146484" xlink:href="#ArialMT-6c"/>
      <use x="272.363281" xlink:href="#ArialMT-20"/>
      <use x="300.146484" xlink:href="#ArialMT-53"/>
      <use x="366.845703" xlink:href="#ArialMT-65"/>
      <use x="422.460938" xlink:href="#ArialMT-6c"/>
      <use x="444.677734" xlink:href="#ArialMT-65"/>
      <use x="500.292969" xlink:href="#ArialMT-63"/>
      <use x="550.292969" xlink:href="#ArialMT-74"/>
      <use x="578.076172" xlink:href="#ArialMT-69"/>
      <use x="600.292969" xlink:href="#ArialMT-6f"/>
      <use x="655.908203" xlink:href="#ArialMT-6e"/>
     </g>
    </g>
    <g id="line2d_13">
     <path d="M 517.2888 315.71 
L 549.2888 315.71 
" style="fill:none;opacity:0.5;stroke:#000000;stroke-dasharray:5.55,2.4;stroke-dashoffset:0;stroke-width:1.5;"/>
    </g>
    <g id="line2d_14"/>
    <g id="text_12">
     <!-- FEAT Test -->
     <defs>
      <path d="M 8.203125 0 
L 8.203125 71.578125 
L 56.5 71.578125 
L 56.5 63.140625 
L 17.671875 63.140625 
L 17.671875 40.96875 
L 51.265625 40.96875 
L 51.265625 32.515625 
L 17.671875 32.515625 
L 17.671875 0 
z
" id="ArialMT-46"/>
      <path d="M -0.140625 0 
L 27.34375 71.578125 
L 37.546875 71.578125 
L 66.84375 0 
L 56.0625 0 
L 47.703125 21.6875 
L 17.78125 21.6875 
L 9.90625 0 
z
M 20.515625 29.390625 
L 44.78125 29.390625 
L 37.3125 49.21875 
Q 33.890625 58.25 32.234375 64.0625 
Q 30.859375 57.171875 28.375 50.390625 
z
" id="ArialMT-41"/>
      <path d="M 3.078125 15.484375 
L 11.765625 16.84375 
Q 12.5 11.625 15.84375 8.84375 
Q 19.1875 6.0625 25.203125 6.0625 
Q 31.25 6.0625 34.171875 8.515625 
Q 37.109375 10.984375 37.109375 14.3125 
Q 37.109375 17.28125 34.515625 19 
Q 32.71875 20.171875 25.53125 21.96875 
Q 15.875 24.421875 12.140625 26.203125 
Q 8.40625 27.984375 6.46875 31.125 
Q 4.546875 34.28125 4.546875 38.09375 
Q 4.546875 41.546875 6.125 44.5 
Q 7.71875 47.46875 10.453125 49.421875 
Q 12.5 50.921875 16.03125 51.96875 
Q 19.578125 53.03125 23.640625 53.03125 
Q 29.734375 53.03125 34.34375 51.265625 
Q 38.96875 49.515625 41.15625 46.5 
Q 43.359375 43.5 44.1875 38.484375 
L 35.59375 37.3125 
Q 35.015625 41.3125 32.203125 43.546875 
Q 29.390625 45.796875 24.265625 45.796875 
Q 18.21875 45.796875 15.625 43.796875 
Q 13.03125 41.796875 13.03125 39.109375 
Q 13.03125 37.40625 14.109375 36.03125 
Q 15.1875 34.625 17.484375 33.6875 
Q 18.796875 33.203125 25.25 31.453125 
Q 34.578125 28.953125 38.25 27.359375 
Q 41.9375 25.78125 44.03125 22.75 
Q 46.140625 19.734375 46.140625 15.234375 
Q 46.140625 10.84375 43.578125 6.953125 
Q 41.015625 3.078125 36.171875 0.953125 
Q 31.34375 -1.171875 25.25 -1.171875 
Q 15.140625 -1.171875 9.84375 3.03125 
Q 4.546875 7.234375 3.078125 15.484375 
z
" id="ArialMT-73"/>
     </defs>
     <g style="fill:#262626;" transform="translate(562.0888 321.31)scale(0.16 -0.16)">
      <use xlink:href="#ArialMT-46"/>
      <use x="61.083984" xlink:href="#ArialMT-45"/>
      <use x="127.783203" xlink:href="#ArialMT-41"/>
      <use x="194.373047" xlink:href="#ArialMT-54"/>
      <use x="255.441406" xlink:href="#ArialMT-20"/>
      <use x="283.208984" xlink:href="#ArialMT-54"/>
      <use x="344.121094" xlink:href="#ArialMT-65"/>
      <use x="399.736328" xlink:href="#ArialMT-73"/>
      <use x="449.736328" xlink:href="#ArialMT-74"/>
     </g>
    </g>
    <g id="line2d_15">
     <path d="M 517.2888 338.3425 
L 549.2888 338.3425 
" style="fill:none;opacity:0.5;stroke:#008000;stroke-dasharray:9.6,2.4,1.5,2.4;stroke-dashoffset:0;stroke-width:1.5;"/>
    </g>
    <g id="line2d_16">
     <g>
      <use style="fill:#008000;opacity:0.5;stroke:#008000;" x="533.2888" xlink:href="#m075f086f8b" y="338.3425"/>
     </g>
    </g>
    <g id="text_13">
     <!-- RF Test -->
     <defs>
      <path d="M 7.859375 0 
L 7.859375 71.578125 
L 39.59375 71.578125 
Q 49.171875 71.578125 54.140625 69.640625 
Q 59.125 67.71875 62.109375 62.828125 
Q 65.09375 57.953125 65.09375 52.046875 
Q 65.09375 44.4375 60.15625 39.203125 
Q 55.21875 33.984375 44.921875 32.5625 
Q 48.6875 30.765625 50.640625 29 
Q 54.78125 25.203125 58.5 19.484375 
L 70.953125 0 
L 59.03125 0 
L 49.5625 14.890625 
Q 45.40625 21.34375 42.71875 24.75 
Q 40.046875 28.171875 37.921875 29.53125 
Q 35.796875 30.90625 33.59375 31.453125 
Q 31.984375 31.78125 28.328125 31.78125 
L 17.328125 31.78125 
L 17.328125 0 
z
M 17.328125 39.984375 
L 37.703125 39.984375 
Q 44.1875 39.984375 47.84375 41.328125 
Q 51.515625 42.671875 53.421875 45.625 
Q 55.328125 48.578125 55.328125 52.046875 
Q 55.328125 57.125 51.640625 60.390625 
Q 47.953125 63.671875 39.984375 63.671875 
L 17.328125 63.671875 
z
" id="ArialMT-52"/>
     </defs>
     <g style="fill:#262626;" transform="translate(562.0888 343.9425)scale(0.16 -0.16)">
      <use xlink:href="#ArialMT-52"/>
      <use x="72.216797" xlink:href="#ArialMT-46"/>
      <use x="133.300781" xlink:href="#ArialMT-20"/>
      <use x="161.068359" xlink:href="#ArialMT-54"/>
      <use x="221.980469" xlink:href="#ArialMT-65"/>
      <use x="277.595703" xlink:href="#ArialMT-73"/>
      <use x="327.595703" xlink:href="#ArialMT-74"/>
     </g>
    </g>
    <g id="line2d_17">
     <path d="M 517.2888 360.975 
L 549.2888 360.975 
" style="fill:none;opacity:0.5;stroke:#bf00bf;stroke-linecap:round;stroke-width:1.5;"/>
    </g>
    <g id="line2d_18">
     <g>
      <use style="fill:#bf00bf;opacity:0.5;stroke:#bf00bf;stroke-linejoin:miter;" x="533.2888" xlink:href="#me9a399f42e" y="360.975"/>
     </g>
    </g>
    <g id="text_14">
     <!-- ElasticNet Test -->
     <defs>
      <path d="M 7.625 0 
L 7.625 71.578125 
L 17.328125 71.578125 
L 54.9375 15.375 
L 54.9375 71.578125 
L 64.015625 71.578125 
L 64.015625 0 
L 54.296875 0 
L 16.703125 56.25 
L 16.703125 0 
z
" id="ArialMT-4e"/>
     </defs>
     <g style="fill:#262626;" transform="translate(562.0888 366.575)scale(0.16 -0.16)">
      <use xlink:href="#ArialMT-45"/>
      <use x="66.699219" xlink:href="#ArialMT-6c"/>
      <use x="88.916016" xlink:href="#ArialMT-61"/>
      <use x="144.53125" xlink:href="#ArialMT-73"/>
      <use x="194.53125" xlink:href="#ArialMT-74"/>
      <use x="222.314453" xlink:href="#ArialMT-69"/>
      <use x="244.53125" xlink:href="#ArialMT-63"/>
      <use x="294.53125" xlink:href="#ArialMT-4e"/>
      <use x="366.748047" xlink:href="#ArialMT-65"/>
      <use x="422.363281" xlink:href="#ArialMT-74"/>
      <use x="450.146484" xlink:href="#ArialMT-20"/>
      <use x="477.914062" xlink:href="#ArialMT-54"/>
      <use x="538.826172" xlink:href="#ArialMT-65"/>
      <use x="594.441406" xlink:href="#ArialMT-73"/>
      <use x="644.441406" xlink:href="#ArialMT-74"/>
     </g>
    </g>
   </g>
  </g>
 </g>
 <defs>
  <clipPath id="p303b43e0ac">
   <rect height="380.9" width="654.29" x="39.8" y="14.3"/>
  </clipPath>
 </defs>
</svg>
