<?xml version="1.0" encoding="utf-8" standalone="no"?>
<!DOCTYPE svg PUBLIC "-//W3C//DTD SVG 1.1//EN"
  "http://www.w3.org/Graphics/SVG/1.1/DTD/svg11.dtd">
<!-- Created with matplotlib (https://matplotlib.org/) -->
<svg height="576pt" version="1.1" viewBox="0 0 1008 576" width="1008pt" xmlns="http://www.w3.org/2000/svg" xmlns:xlink="http://www.w3.org/1999/xlink">
 <defs>
  <style type="text/css">
*{stroke-linecap:butt;stroke-linejoin:round;white-space:pre;}
  </style>
 </defs>
 <g id="figure_1">
  <g id="patch_1">
   <path d="M 0 576 
L 1008 576 
L 1008 0 
L 0 0 
z
" style="fill:#ffffff;"/>
  </g>
  <g id="axes_1">
   <g id="patch_2">
    <path d="M 39.8 539.2 
L 804.538 539.2 
L 804.538 10.8 
L 39.8 10.8 
z
" style="fill:#ffffff;"/>
   </g>
   <g id="matplotlib.axis_1">
    <g id="xtick_1"/>
    <g id="xtick_2"/>
    <g id="xtick_3"/>
    <g id="xtick_4"/>
    <g id="xtick_5"/>
    <g id="xtick_6"/>
    <g id="xtick_7"/>
    <g id="xtick_8"/>
    <g id="xtick_9"/>
    <g id="xtick_10"/>
    <g id="xtick_11"/>
    <g id="text_1">
     <!-- MSE -->
     <defs>
      <path d="M 9.8125 72.90625 
L 24.515625 72.90625 
L 43.109375 23.296875 
L 61.8125 72.90625 
L 76.515625 72.90625 
L 76.515625 0 
L 66.890625 0 
L 66.890625 64.015625 
L 48.09375 14.015625 
L 38.1875 14.015625 
L 19.390625 64.015625 
L 19.390625 0 
L 9.8125 0 
z
" id="DejaVuSans-77"/>
      <path d="M 53.515625 70.515625 
L 53.515625 60.890625 
Q 47.90625 63.578125 42.921875 64.890625 
Q 37.9375 66.21875 33.296875 66.21875 
Q 25.25 66.21875 20.875 63.09375 
Q 16.5 59.96875 16.5 54.203125 
Q 16.5 49.359375 19.40625 46.890625 
Q 22.3125 44.4375 30.421875 42.921875 
L 36.375 41.703125 
Q 47.40625 39.59375 52.65625 34.296875 
Q 57.90625 29 57.90625 20.125 
Q 57.90625 9.515625 50.796875 4.046875 
Q 43.703125 -1.421875 29.984375 -1.421875 
Q 24.8125 -1.421875 18.96875 -0.25 
Q 13.140625 0.921875 6.890625 3.21875 
L 6.890625 13.375 
Q 12.890625 10.015625 18.65625 8.296875 
Q 24.421875 6.59375 29.984375 6.59375 
Q 38.421875 6.59375 43.015625 9.90625 
Q 47.609375 13.234375 47.609375 19.390625 
Q 47.609375 24.75 44.3125 27.78125 
Q 41.015625 30.8125 33.5 32.328125 
L 27.484375 33.5 
Q 16.453125 35.6875 11.515625 40.375 
Q 6.59375 45.0625 6.59375 53.421875 
Q 6.59375 63.09375 13.40625 68.65625 
Q 20.21875 74.21875 32.171875 74.21875 
Q 37.3125 74.21875 42.625 73.28125 
Q 47.953125 72.359375 53.515625 70.515625 
z
" id="DejaVuSans-83"/>
      <path d="M 9.8125 72.90625 
L 55.90625 72.90625 
L 55.90625 64.59375 
L 19.671875 64.59375 
L 19.671875 43.015625 
L 54.390625 43.015625 
L 54.390625 34.71875 
L 19.671875 34.71875 
L 19.671875 8.296875 
L 56.78125 8.296875 
L 56.78125 0 
L 9.8125 0 
z
" id="DejaVuSans-69"/>
     </defs>
     <g style="fill:#262626;" transform="translate(405.13275 562.3575)scale(0.16 -0.16)">
      <use xlink:href="#DejaVuSans-77"/>
      <use x="86.279297" xlink:href="#DejaVuSans-83"/>
      <use x="149.755859" xlink:href="#DejaVuSans-69"/>
     </g>
    </g>
   </g>
   <g id="matplotlib.axis_2">
    <g id="ytick_1"/>
    <g id="ytick_2"/>
    <g id="ytick_3"/>
    <g id="ytick_4"/>
    <g id="ytick_5"/>
    <g id="ytick_6"/>
    <g id="ytick_7"/>
    <g id="ytick_8"/>
    <g id="ytick_9"/>
    <g id="ytick_10"/>
    <g id="ytick_11"/>
    <g id="ytick_12"/>
    <g id="ytick_13"/>
    <g id="ytick_14"/>
    <g id="ytick_15"/>
    <g id="ytick_16"/>
    <g id="ytick_17"/>
    <g id="ytick_18"/>
    <g id="ytick_19"/>
    <g id="ytick_20"/>
    <g id="ytick_21"/>
    <g id="ytick_22"/>
    <g id="ytick_23"/>
    <g id="ytick_24"/>
    <g id="ytick_25"/>
    <g id="text_2">
     <!-- Complexity -->
     <defs>
      <path d="M 64.40625 67.28125 
L 64.40625 56.890625 
Q 59.421875 61.53125 53.78125 63.8125 
Q 48.140625 66.109375 41.796875 66.109375 
Q 29.296875 66.109375 22.65625 58.46875 
Q 16.015625 50.828125 16.015625 36.375 
Q 16.015625 21.96875 22.65625 14.328125 
Q 29.296875 6.6875 41.796875 6.6875 
Q 48.140625 6.6875 53.78125 8.984375 
Q 59.421875 11.28125 64.40625 15.921875 
L 64.40625 5.609375 
Q 59.234375 2.09375 53.4375 0.328125 
Q 47.65625 -1.421875 41.21875 -1.421875 
Q 24.65625 -1.421875 15.125 8.703125 
Q 5.609375 18.84375 5.609375 36.375 
Q 5.609375 53.953125 15.125 64.078125 
Q 24.65625 74.21875 41.21875 74.21875 
Q 47.75 74.21875 53.53125 72.484375 
Q 59.328125 70.75 64.40625 67.28125 
z
" id="DejaVuSans-67"/>
      <path d="M 30.609375 48.390625 
Q 23.390625 48.390625 19.1875 42.75 
Q 14.984375 37.109375 14.984375 27.296875 
Q 14.984375 17.484375 19.15625 11.84375 
Q 23.34375 6.203125 30.609375 6.203125 
Q 37.796875 6.203125 41.984375 11.859375 
Q 46.1875 17.53125 46.1875 27.296875 
Q 46.1875 37.015625 41.984375 42.703125 
Q 37.796875 48.390625 30.609375 48.390625 
z
M 30.609375 56 
Q 42.328125 56 49.015625 48.375 
Q 55.71875 40.765625 55.71875 27.296875 
Q 55.71875 13.875 49.015625 6.21875 
Q 42.328125 -1.421875 30.609375 -1.421875 
Q 18.84375 -1.421875 12.171875 6.21875 
Q 5.515625 13.875 5.515625 27.296875 
Q 5.515625 40.765625 12.171875 48.375 
Q 18.84375 56 30.609375 56 
z
" id="DejaVuSans-111"/>
      <path d="M 52 44.1875 
Q 55.375 50.25 60.0625 53.125 
Q 64.75 56 71.09375 56 
Q 79.640625 56 84.28125 50.015625 
Q 88.921875 44.046875 88.921875 33.015625 
L 88.921875 0 
L 79.890625 0 
L 79.890625 32.71875 
Q 79.890625 40.578125 77.09375 44.375 
Q 74.3125 48.1875 68.609375 48.1875 
Q 61.625 48.1875 57.5625 43.546875 
Q 53.515625 38.921875 53.515625 30.90625 
L 53.515625 0 
L 44.484375 0 
L 44.484375 32.71875 
Q 44.484375 40.625 41.703125 44.40625 
Q 38.921875 48.1875 33.109375 48.1875 
Q 26.21875 48.1875 22.15625 43.53125 
Q 18.109375 38.875 18.109375 30.90625 
L 18.109375 0 
L 9.078125 0 
L 9.078125 54.6875 
L 18.109375 54.6875 
L 18.109375 46.1875 
Q 21.1875 51.21875 25.484375 53.609375 
Q 29.78125 56 35.6875 56 
Q 41.65625 56 45.828125 52.96875 
Q 50 49.953125 52 44.1875 
z
" id="DejaVuSans-109"/>
      <path d="M 18.109375 8.203125 
L 18.109375 -20.796875 
L 9.078125 -20.796875 
L 9.078125 54.6875 
L 18.109375 54.6875 
L 18.109375 46.390625 
Q 20.953125 51.265625 25.265625 53.625 
Q 29.59375 56 35.59375 56 
Q 45.5625 56 51.78125 48.09375 
Q 58.015625 40.1875 58.015625 27.296875 
Q 58.015625 14.40625 51.78125 6.484375 
Q 45.5625 -1.421875 35.59375 -1.421875 
Q 29.59375 -1.421875 25.265625 0.953125 
Q 20.953125 3.328125 18.109375 8.203125 
z
M 48.6875 27.296875 
Q 48.6875 37.203125 44.609375 42.84375 
Q 40.53125 48.484375 33.40625 48.484375 
Q 26.265625 48.484375 22.1875 42.84375 
Q 18.109375 37.203125 18.109375 27.296875 
Q 18.109375 17.390625 22.1875 11.75 
Q 26.265625 6.109375 33.40625 6.109375 
Q 40.53125 6.109375 44.609375 11.75 
Q 48.6875 17.390625 48.6875 27.296875 
z
" id="DejaVuSans-112"/>
      <path d="M 9.421875 75.984375 
L 18.40625 75.984375 
L 18.40625 0 
L 9.421875 0 
z
" id="DejaVuSans-108"/>
      <path d="M 56.203125 29.59375 
L 56.203125 25.203125 
L 14.890625 25.203125 
Q 15.484375 15.921875 20.484375 11.0625 
Q 25.484375 6.203125 34.421875 6.203125 
Q 39.59375 6.203125 44.453125 7.46875 
Q 49.3125 8.734375 54.109375 11.28125 
L 54.109375 2.78125 
Q 49.265625 0.734375 44.1875 -0.34375 
Q 39.109375 -1.421875 33.890625 -1.421875 
Q 20.796875 -1.421875 13.15625 6.1875 
Q 5.515625 13.8125 5.515625 26.8125 
Q 5.515625 40.234375 12.765625 48.109375 
Q 20.015625 56 32.328125 56 
Q 43.359375 56 49.78125 48.890625 
Q 56.203125 41.796875 56.203125 29.59375 
z
M 47.21875 32.234375 
Q 47.125 39.59375 43.09375 43.984375 
Q 39.0625 48.390625 32.421875 48.390625 
Q 24.90625 48.390625 20.390625 44.140625 
Q 15.875 39.890625 15.1875 32.171875 
z
" id="DejaVuSans-101"/>
      <path d="M 54.890625 54.6875 
L 35.109375 28.078125 
L 55.90625 0 
L 45.3125 0 
L 29.390625 21.484375 
L 13.484375 0 
L 2.875 0 
L 24.125 28.609375 
L 4.6875 54.6875 
L 15.28125 54.6875 
L 29.78125 35.203125 
L 44.28125 54.6875 
z
" id="DejaVuSans-120"/>
      <path d="M 9.421875 54.6875 
L 18.40625 54.6875 
L 18.40625 0 
L 9.421875 0 
z
M 9.421875 75.984375 
L 18.40625 75.984375 
L 18.40625 64.59375 
L 9.421875 64.59375 
z
" id="DejaVuSans-105"/>
      <path d="M 18.3125 70.21875 
L 18.3125 54.6875 
L 36.8125 54.6875 
L 36.8125 47.703125 
L 18.3125 47.703125 
L 18.3125 18.015625 
Q 18.3125 11.328125 20.140625 9.421875 
Q 21.96875 7.515625 27.59375 7.515625 
L 36.8125 7.515625 
L 36.8125 0 
L 27.59375 0 
Q 17.1875 0 13.234375 3.875 
Q 9.28125 7.765625 9.28125 18.015625 
L 9.28125 47.703125 
L 2.6875 47.703125 
L 2.6875 54.6875 
L 9.28125 54.6875 
L 9.28125 70.21875 
z
" id="DejaVuSans-116"/>
      <path d="M 32.171875 -5.078125 
Q 28.375 -14.84375 24.75 -17.8125 
Q 21.140625 -20.796875 15.09375 -20.796875 
L 7.90625 -20.796875 
L 7.90625 -13.28125 
L 13.1875 -13.28125 
Q 16.890625 -13.28125 18.9375 -11.515625 
Q 21 -9.765625 23.484375 -3.21875 
L 25.09375 0.875 
L 2.984375 54.6875 
L 12.5 54.6875 
L 29.59375 11.921875 
L 46.6875 54.6875 
L 56.203125 54.6875 
z
" id="DejaVuSans-121"/>
     </defs>
     <g style="fill:#262626;" transform="translate(25.056563 325.990625)rotate(-90)scale(0.18 -0.18)">
      <use xlink:href="#DejaVuSans-67"/>
      <use x="69.824219" xlink:href="#DejaVuSans-111"/>
      <use x="131.005859" xlink:href="#DejaVuSans-109"/>
      <use x="228.417969" xlink:href="#DejaVuSans-112"/>
      <use x="291.894531" xlink:href="#DejaVuSans-108"/>
      <use x="319.677734" xlink:href="#DejaVuSans-101"/>
      <use x="381.185547" xlink:href="#DejaVuSans-120"/>
      <use x="440.365234" xlink:href="#DejaVuSans-105"/>
      <use x="468.148438" xlink:href="#DejaVuSans-116"/>
      <use x="507.357422" xlink:href="#DejaVuSans-121"/>
     </g>
    </g>
   </g>
   <g id="line2d_1">
    <path clip-path="url(#p4221b55e2c)" d="M 682.598096 515.181818 
L 516.094591 459.029074 
L 506.796935 426.181825 
L 497.627103 402.876331 
L 439.585637 370.029081 
L 366.865976 357.541136 
L 338.128893 346.723587 
L 310.189661 337.181832 
L 306.052144 328.646441 
L 296.78715 313.876337 
L 294.784601 307.391975 
L 292.747485 301.388393 
L 286.637066 295.799191 
L 260.578247 290.570843 
L 260.546932 285.659564 
L 255.869403 281.029088 
L 247.748801 276.649033 
L 244.915259 272.493697 
L 238.726137 264.772497 
L 227.128667 261.171402 
L 205.83001 242.392856 
L 202.881751 239.646448 
L 202.515753 236.990102 
L 195.53602 234.418099 
L 178.124171 231.925247 
L 174.464177 224.876344 
L 167.504985 222.656718 
L 162.091311 218.391981 
L 150.777342 216.340953 
L 142.245506 214.340573 
L 139.533124 210.482163 
L 139.474866 208.619753 
L 137.302976 203.276413 
L 133.341934 199.900455 
L 126.058732 195.086487 
L 124.430819 183.493704 
L 124.302694 154.32942 
L 121.506462 152.467009 
L 121.209499 94.945028 
L 118.433378 91.402987 
L 113.858558 86.77251 
L 113.677648 78.23712 
L 110.375136 57.551156 
L 108.628947 55.857478 
L 108.312647 35.033924 
" style="fill:none;stroke:#ff0000;stroke-dasharray:5.55,2.4;stroke-dashoffset:0;stroke-width:1.5;"/>
    <defs>
     <path d="M 0 3 
C 0.795609 3 1.55874 2.683901 2.12132 2.12132 
C 2.683901 1.55874 3 0.795609 3 0 
C 3 -0.795609 2.683901 -1.55874 2.12132 -2.12132 
C 1.55874 -2.683901 0.795609 -3 0 -3 
C -0.795609 -3 -1.55874 -2.683901 -2.12132 -2.12132 
C -2.683901 -1.55874 -3 -0.795609 -3 0 
C -3 0.795609 -2.683901 1.55874 -2.12132 2.12132 
C -1.55874 2.683901 -0.795609 3 0 3 
z
" id="mb27df80242" style="stroke:#ff0000;"/>
    </defs>
    <g clip-path="url(#p4221b55e2c)">
     <use style="fill:#ff0000;stroke:#ff0000;" x="682.598096" xlink:href="#mb27df80242" y="515.181818"/>
     <use style="fill:#ff0000;stroke:#ff0000;" x="516.094591" xlink:href="#mb27df80242" y="459.029074"/>
     <use style="fill:#ff0000;stroke:#ff0000;" x="506.796935" xlink:href="#mb27df80242" y="426.181825"/>
     <use style="fill:#ff0000;stroke:#ff0000;" x="497.627103" xlink:href="#mb27df80242" y="402.876331"/>
     <use style="fill:#ff0000;stroke:#ff0000;" x="439.585637" xlink:href="#mb27df80242" y="370.029081"/>
     <use style="fill:#ff0000;stroke:#ff0000;" x="366.865976" xlink:href="#mb27df80242" y="357.541136"/>
     <use style="fill:#ff0000;stroke:#ff0000;" x="338.128893" xlink:href="#mb27df80242" y="346.723587"/>
     <use style="fill:#ff0000;stroke:#ff0000;" x="310.189661" xlink:href="#mb27df80242" y="337.181832"/>
     <use style="fill:#ff0000;stroke:#ff0000;" x="306.052144" xlink:href="#mb27df80242" y="328.646441"/>
     <use style="fill:#ff0000;stroke:#ff0000;" x="296.78715" xlink:href="#mb27df80242" y="313.876337"/>
     <use style="fill:#ff0000;stroke:#ff0000;" x="294.784601" xlink:href="#mb27df80242" y="307.391975"/>
     <use style="fill:#ff0000;stroke:#ff0000;" x="292.747485" xlink:href="#mb27df80242" y="301.388393"/>
     <use style="fill:#ff0000;stroke:#ff0000;" x="286.637066" xlink:href="#mb27df80242" y="295.799191"/>
     <use style="fill:#ff0000;stroke:#ff0000;" x="260.578247" xlink:href="#mb27df80242" y="290.570843"/>
     <use style="fill:#ff0000;stroke:#ff0000;" x="260.546932" xlink:href="#mb27df80242" y="285.659564"/>
     <use style="fill:#ff0000;stroke:#ff0000;" x="255.869403" xlink:href="#mb27df80242" y="281.029088"/>
     <use style="fill:#ff0000;stroke:#ff0000;" x="247.748801" xlink:href="#mb27df80242" y="276.649033"/>
     <use style="fill:#ff0000;stroke:#ff0000;" x="244.915259" xlink:href="#mb27df80242" y="272.493697"/>
     <use style="fill:#ff0000;stroke:#ff0000;" x="238.726137" xlink:href="#mb27df80242" y="264.772497"/>
     <use style="fill:#ff0000;stroke:#ff0000;" x="227.128667" xlink:href="#mb27df80242" y="261.171402"/>
     <use style="fill:#ff0000;stroke:#ff0000;" x="205.83001" xlink:href="#mb27df80242" y="242.392856"/>
     <use style="fill:#ff0000;stroke:#ff0000;" x="202.881751" xlink:href="#mb27df80242" y="239.646448"/>
     <use style="fill:#ff0000;stroke:#ff0000;" x="202.515753" xlink:href="#mb27df80242" y="236.990102"/>
     <use style="fill:#ff0000;stroke:#ff0000;" x="195.53602" xlink:href="#mb27df80242" y="234.418099"/>
     <use style="fill:#ff0000;stroke:#ff0000;" x="178.124171" xlink:href="#mb27df80242" y="231.925247"/>
     <use style="fill:#ff0000;stroke:#ff0000;" x="174.464177" xlink:href="#mb27df80242" y="224.876344"/>
     <use style="fill:#ff0000;stroke:#ff0000;" x="167.504985" xlink:href="#mb27df80242" y="222.656718"/>
     <use style="fill:#ff0000;stroke:#ff0000;" x="162.091311" xlink:href="#mb27df80242" y="218.391981"/>
     <use style="fill:#ff0000;stroke:#ff0000;" x="150.777342" xlink:href="#mb27df80242" y="216.340953"/>
     <use style="fill:#ff0000;stroke:#ff0000;" x="142.245506" xlink:href="#mb27df80242" y="214.340573"/>
     <use style="fill:#ff0000;stroke:#ff0000;" x="139.533124" xlink:href="#mb27df80242" y="210.482163"/>
     <use style="fill:#ff0000;stroke:#ff0000;" x="139.474866" xlink:href="#mb27df80242" y="208.619753"/>
     <use style="fill:#ff0000;stroke:#ff0000;" x="137.302976" xlink:href="#mb27df80242" y="203.276413"/>
     <use style="fill:#ff0000;stroke:#ff0000;" x="133.341934" xlink:href="#mb27df80242" y="199.900455"/>
     <use style="fill:#ff0000;stroke:#ff0000;" x="126.058732" xlink:href="#mb27df80242" y="195.086487"/>
     <use style="fill:#ff0000;stroke:#ff0000;" x="124.430819" xlink:href="#mb27df80242" y="183.493704"/>
     <use style="fill:#ff0000;stroke:#ff0000;" x="124.302694" xlink:href="#mb27df80242" y="154.32942"/>
     <use style="fill:#ff0000;stroke:#ff0000;" x="121.506462" xlink:href="#mb27df80242" y="152.467009"/>
     <use style="fill:#ff0000;stroke:#ff0000;" x="121.209499" xlink:href="#mb27df80242" y="94.945028"/>
     <use style="fill:#ff0000;stroke:#ff0000;" x="118.433378" xlink:href="#mb27df80242" y="91.402987"/>
     <use style="fill:#ff0000;stroke:#ff0000;" x="113.858558" xlink:href="#mb27df80242" y="86.77251"/>
     <use style="fill:#ff0000;stroke:#ff0000;" x="113.677648" xlink:href="#mb27df80242" y="78.23712"/>
     <use style="fill:#ff0000;stroke:#ff0000;" x="110.375136" xlink:href="#mb27df80242" y="57.551156"/>
     <use style="fill:#ff0000;stroke:#ff0000;" x="108.628947" xlink:href="#mb27df80242" y="55.857478"/>
     <use style="fill:#ff0000;stroke:#ff0000;" x="108.312647" xlink:href="#mb27df80242" y="35.033924"/>
    </g>
   </g>
   <g id="line2d_2">
    <path clip-path="url(#p4221b55e2c)" d="M 639.4622 515.181818 
L 526.454201 459.029074 
L 530.459232 426.181825 
L 528.48668 402.876331 
L 492.392805 370.029081 
L 416.225933 357.541136 
L 342.744744 346.723587 
L 327.205439 337.181832 
L 327.360941 328.646441 
L 294.574626 313.876337 
L 271.362099 307.391975 
L 350.759586 301.388393 
L 433.789349 295.799191 
L 312.73179 290.570843 
L 262.771185 285.659564 
L 272.15383 281.029088 
L 297.289321 276.649033 
L 271.848262 272.493697 
L 268.283382 264.772497 
L 511.334715 261.171402 
L 261.160545 242.392856 
L 222.926402 239.646448 
L 234.252805 236.990102 
L 242.682577 234.418099 
L 225.232765 231.925247 
L 224.254377 224.876344 
L 441.188397 222.656718 
L 375.75184 218.391981 
L 189.845257 216.340953 
L 206.781346 214.340573 
L 138.799519 210.482163 
L 139.251617 208.619753 
L 168.772258 203.276413 
L 147.514605 199.900455 
L 133.231242 195.086487 
L 168.980444 183.493704 
L 153.450669 154.32942 
L 292.086763 152.467009 
L 151.780122 94.945028 
L 389.477321 91.402987 
L 406.920232 86.77251 
L 321.162605 78.23712 
L 197.775759 57.551156 
L 463.455052 55.857478 
L 333.473415 35.033924 
" style="fill:none;stroke:#0000ff;stroke-dasharray:5.55,2.4;stroke-dashoffset:0;stroke-width:1.5;"/>
    <defs>
     <path d="M -3 3 
L 3 -3 
M -3 -3 
L 3 3 
" id="ma9f01c0b91" style="stroke:#0000ff;"/>
    </defs>
    <g clip-path="url(#p4221b55e2c)">
     <use style="fill:#0000ff;stroke:#0000ff;" x="639.4622" xlink:href="#ma9f01c0b91" y="515.181818"/>
     <use style="fill:#0000ff;stroke:#0000ff;" x="526.454201" xlink:href="#ma9f01c0b91" y="459.029074"/>
     <use style="fill:#0000ff;stroke:#0000ff;" x="530.459232" xlink:href="#ma9f01c0b91" y="426.181825"/>
     <use style="fill:#0000ff;stroke:#0000ff;" x="528.48668" xlink:href="#ma9f01c0b91" y="402.876331"/>
     <use style="fill:#0000ff;stroke:#0000ff;" x="492.392805" xlink:href="#ma9f01c0b91" y="370.029081"/>
     <use style="fill:#0000ff;stroke:#0000ff;" x="416.225933" xlink:href="#ma9f01c0b91" y="357.541136"/>
     <use style="fill:#0000ff;stroke:#0000ff;" x="342.744744" xlink:href="#ma9f01c0b91" y="346.723587"/>
     <use style="fill:#0000ff;stroke:#0000ff;" x="327.205439" xlink:href="#ma9f01c0b91" y="337.181832"/>
     <use style="fill:#0000ff;stroke:#0000ff;" x="327.360941" xlink:href="#ma9f01c0b91" y="328.646441"/>
     <use style="fill:#0000ff;stroke:#0000ff;" x="294.574626" xlink:href="#ma9f01c0b91" y="313.876337"/>
     <use style="fill:#0000ff;stroke:#0000ff;" x="271.362099" xlink:href="#ma9f01c0b91" y="307.391975"/>
     <use style="fill:#0000ff;stroke:#0000ff;" x="350.759586" xlink:href="#ma9f01c0b91" y="301.388393"/>
     <use style="fill:#0000ff;stroke:#0000ff;" x="433.789349" xlink:href="#ma9f01c0b91" y="295.799191"/>
     <use style="fill:#0000ff;stroke:#0000ff;" x="312.73179" xlink:href="#ma9f01c0b91" y="290.570843"/>
     <use style="fill:#0000ff;stroke:#0000ff;" x="262.771185" xlink:href="#ma9f01c0b91" y="285.659564"/>
     <use style="fill:#0000ff;stroke:#0000ff;" x="272.15383" xlink:href="#ma9f01c0b91" y="281.029088"/>
     <use style="fill:#0000ff;stroke:#0000ff;" x="297.289321" xlink:href="#ma9f01c0b91" y="276.649033"/>
     <use style="fill:#0000ff;stroke:#0000ff;" x="271.848262" xlink:href="#ma9f01c0b91" y="272.493697"/>
     <use style="fill:#0000ff;stroke:#0000ff;" x="268.283382" xlink:href="#ma9f01c0b91" y="264.772497"/>
     <use style="fill:#0000ff;stroke:#0000ff;" x="511.334715" xlink:href="#ma9f01c0b91" y="261.171402"/>
     <use style="fill:#0000ff;stroke:#0000ff;" x="261.160545" xlink:href="#ma9f01c0b91" y="242.392856"/>
     <use style="fill:#0000ff;stroke:#0000ff;" x="222.926402" xlink:href="#ma9f01c0b91" y="239.646448"/>
     <use style="fill:#0000ff;stroke:#0000ff;" x="234.252805" xlink:href="#ma9f01c0b91" y="236.990102"/>
     <use style="fill:#0000ff;stroke:#0000ff;" x="242.682577" xlink:href="#ma9f01c0b91" y="234.418099"/>
     <use style="fill:#0000ff;stroke:#0000ff;" x="225.232765" xlink:href="#ma9f01c0b91" y="231.925247"/>
     <use style="fill:#0000ff;stroke:#0000ff;" x="224.254377" xlink:href="#ma9f01c0b91" y="224.876344"/>
     <use style="fill:#0000ff;stroke:#0000ff;" x="441.188397" xlink:href="#ma9f01c0b91" y="222.656718"/>
     <use style="fill:#0000ff;stroke:#0000ff;" x="375.75184" xlink:href="#ma9f01c0b91" y="218.391981"/>
     <use style="fill:#0000ff;stroke:#0000ff;" x="189.845257" xlink:href="#ma9f01c0b91" y="216.340953"/>
     <use style="fill:#0000ff;stroke:#0000ff;" x="206.781346" xlink:href="#ma9f01c0b91" y="214.340573"/>
     <use style="fill:#0000ff;stroke:#0000ff;" x="138.799519" xlink:href="#ma9f01c0b91" y="210.482163"/>
     <use style="fill:#0000ff;stroke:#0000ff;" x="139.251617" xlink:href="#ma9f01c0b91" y="208.619753"/>
     <use style="fill:#0000ff;stroke:#0000ff;" x="168.772258" xlink:href="#ma9f01c0b91" y="203.276413"/>
     <use style="fill:#0000ff;stroke:#0000ff;" x="147.514605" xlink:href="#ma9f01c0b91" y="199.900455"/>
     <use style="fill:#0000ff;stroke:#0000ff;" x="133.231242" xlink:href="#ma9f01c0b91" y="195.086487"/>
     <use style="fill:#0000ff;stroke:#0000ff;" x="168.980444" xlink:href="#ma9f01c0b91" y="183.493704"/>
     <use style="fill:#0000ff;stroke:#0000ff;" x="153.450669" xlink:href="#ma9f01c0b91" y="154.32942"/>
     <use style="fill:#0000ff;stroke:#0000ff;" x="292.086763" xlink:href="#ma9f01c0b91" y="152.467009"/>
     <use style="fill:#0000ff;stroke:#0000ff;" x="151.780122" xlink:href="#ma9f01c0b91" y="94.945028"/>
     <use style="fill:#0000ff;stroke:#0000ff;" x="389.477321" xlink:href="#ma9f01c0b91" y="91.402987"/>
     <use style="fill:#0000ff;stroke:#0000ff;" x="406.920232" xlink:href="#ma9f01c0b91" y="86.77251"/>
     <use style="fill:#0000ff;stroke:#0000ff;" x="321.162605" xlink:href="#ma9f01c0b91" y="78.23712"/>
     <use style="fill:#0000ff;stroke:#0000ff;" x="197.775759" xlink:href="#ma9f01c0b91" y="57.551156"/>
     <use style="fill:#0000ff;stroke:#0000ff;" x="463.455052" xlink:href="#ma9f01c0b91" y="55.857478"/>
     <use style="fill:#0000ff;stroke:#0000ff;" x="333.473415" xlink:href="#ma9f01c0b91" y="35.033924"/>
    </g>
   </g>
   <g id="line2d_3">
    <defs>
     <path d="M -8 8 
L 8 8 
L 8 -8 
L -8 -8 
z
" id="mc24198fb09" style="stroke:#000000;stroke-linejoin:miter;"/>
    </defs>
    <g clip-path="url(#p4221b55e2c)">
     <use style="fill-opacity:0;stroke:#000000;stroke-linejoin:miter;" x="133.231242" xlink:href="#mc24198fb09" y="195.086487"/>
    </g>
   </g>
   <g id="line2d_4">
    <path clip-path="url(#p4221b55e2c)" d="M 198.695247 577 
L 198.695247 34.818182 
" style="fill:none;stroke:#000000;stroke-dasharray:5.55,2.4;stroke-dashoffset:0;stroke-opacity:0.5;stroke-width:1.5;"/>
   </g>
   <g id="line2d_5">
    <path clip-path="url(#p4221b55e2c)" d="M 273.389525 577 
L 273.389525 34.818182 
" style="fill:none;stroke:#008000;stroke-dasharray:9.6,2.4,1.5,2.4;stroke-dashoffset:0;stroke-opacity:0.5;stroke-width:1.5;"/>
    <defs>
     <path d="M -3 3 
L 3 -3 
M -3 -3 
L 3 3 
" id="mdc8d6fbe2e" style="stroke:#008000;stroke-opacity:0.5;"/>
    </defs>
    <g clip-path="url(#p4221b55e2c)">
     <use style="fill:#008000;fill-opacity:0.5;stroke:#008000;stroke-opacity:0.5;" x="273.389525" xlink:href="#mdc8d6fbe2e" y="41473"/>
     <use style="fill:#008000;fill-opacity:0.5;stroke:#008000;stroke-opacity:0.5;" x="273.389525" xlink:href="#mdc8d6fbe2e" y="34.818182"/>
    </g>
   </g>
   <g id="line2d_6">
    <path clip-path="url(#p4221b55e2c)" d="M 521.486126 577 
L 521.486126 34.818182 
" style="fill:none;stroke:#bf00bf;stroke-linecap:round;stroke-opacity:0.5;stroke-width:1.5;"/>
    <defs>
     <path d="M -3 3 
L 3 3 
L 3 -3 
L -3 -3 
z
" id="me0b9cad572" style="stroke:#bf00bf;stroke-linejoin:miter;stroke-opacity:0.5;"/>
    </defs>
    <g clip-path="url(#p4221b55e2c)">
     <use style="fill:#bf00bf;fill-opacity:0.5;stroke:#bf00bf;stroke-linejoin:miter;stroke-opacity:0.5;" x="521.486126" xlink:href="#me0b9cad572" y="41473"/>
     <use style="fill:#bf00bf;fill-opacity:0.5;stroke:#bf00bf;stroke-linejoin:miter;stroke-opacity:0.5;" x="521.486126" xlink:href="#me0b9cad572" y="34.818182"/>
    </g>
   </g>
   <g id="patch_3">
    <path d="M 39.8 539.2 
L 39.8 10.8 
" style="fill:none;stroke:#262626;stroke-linecap:square;stroke-linejoin:miter;stroke-width:0.8;"/>
   </g>
   <g id="patch_4">
    <path d="M 804.538 539.2 
L 804.538 10.8 
" style="fill:none;stroke:#262626;stroke-linecap:square;stroke-linejoin:miter;stroke-width:0.8;"/>
   </g>
   <g id="patch_5">
    <path d="M 39.8 539.2 
L 804.538 539.2 
" style="fill:none;stroke:#262626;stroke-linecap:square;stroke-linejoin:miter;stroke-width:0.8;"/>
   </g>
   <g id="patch_6">
    <path d="M 39.8 10.8 
L 804.538 10.8 
" style="fill:none;stroke:#262626;stroke-linecap:square;stroke-linejoin:miter;stroke-width:0.8;"/>
   </g>
   <g id="text_3">
    <!-- $\leftarrow[x_1][x_3]$ -->
    <defs>
     <path d="M 4.890625 29.15625 
L 4.890625 33.546875 
L 24.078125 52.734375 
L 29.9375 46.875 
L 18.5625 35.5 
L 78.078125 35.5 
L 78.078125 27.203125 
L 18.5625 27.203125 
L 29.9375 15.828125 
L 24.078125 9.96875 
z
" id="DejaVuSans-8592"/>
     <path d="M 8.59375 75.984375 
L 29.296875 75.984375 
L 29.296875 69 
L 17.578125 69 
L 17.578125 -6.203125 
L 29.296875 -6.203125 
L 29.296875 -13.1875 
L 8.59375 -13.1875 
z
" id="DejaVuSans-91"/>
     <path d="M 60.015625 54.6875 
L 34.90625 27.875 
L 50.296875 0 
L 39.984375 0 
L 28.421875 21.6875 
L 8.296875 0 
L -2.59375 0 
L 24.3125 28.8125 
L 10.015625 54.6875 
L 20.3125 54.6875 
L 30.8125 34.90625 
L 49.125 54.6875 
z
" id="DejaVuSans-Oblique-120"/>
     <path d="M 12.40625 8.296875 
L 28.515625 8.296875 
L 28.515625 63.921875 
L 10.984375 60.40625 
L 10.984375 69.390625 
L 28.421875 72.90625 
L 38.28125 72.90625 
L 38.28125 8.296875 
L 54.390625 8.296875 
L 54.390625 0 
L 12.40625 0 
z
" id="DejaVuSans-49"/>
     <path d="M 30.421875 75.984375 
L 30.421875 -13.1875 
L 9.71875 -13.1875 
L 9.71875 -6.203125 
L 21.390625 -6.203125 
L 21.390625 69 
L 9.71875 69 
L 9.71875 75.984375 
z
" id="DejaVuSans-93"/>
     <path d="M 40.578125 39.3125 
Q 47.65625 37.796875 51.625 33 
Q 55.609375 28.21875 55.609375 21.1875 
Q 55.609375 10.40625 48.1875 4.484375 
Q 40.765625 -1.421875 27.09375 -1.421875 
Q 22.515625 -1.421875 17.65625 -0.515625 
Q 12.796875 0.390625 7.625 2.203125 
L 7.625 11.71875 
Q 11.71875 9.328125 16.59375 8.109375 
Q 21.484375 6.890625 26.8125 6.890625 
Q 36.078125 6.890625 40.9375 10.546875 
Q 45.796875 14.203125 45.796875 21.1875 
Q 45.796875 27.640625 41.28125 31.265625 
Q 36.765625 34.90625 28.71875 34.90625 
L 20.21875 34.90625 
L 20.21875 43.015625 
L 29.109375 43.015625 
Q 36.375 43.015625 40.234375 45.921875 
Q 44.09375 48.828125 44.09375 54.296875 
Q 44.09375 59.90625 40.109375 62.90625 
Q 36.140625 65.921875 28.71875 65.921875 
Q 24.65625 65.921875 20.015625 65.03125 
Q 15.375 64.15625 9.8125 62.3125 
L 9.8125 71.09375 
Q 15.4375 72.65625 20.34375 73.4375 
Q 25.25 74.21875 29.59375 74.21875 
Q 40.828125 74.21875 47.359375 69.109375 
Q 53.90625 64.015625 53.90625 55.328125 
Q 53.90625 49.265625 50.4375 45.09375 
Q 46.96875 40.921875 40.578125 39.3125 
z
" id="DejaVuSans-51"/>
    </defs>
    <g style="fill:#262626;" transform="translate(528.883079 463.995949)scale(0.18 -0.18)">
     <use transform="translate(19.482422 0.015625)" xlink:href="#DejaVuSans-8592"/>
     <use transform="translate(122.753906 0.015625)" xlink:href="#DejaVuSans-91"/>
     <use transform="translate(161.767578 0.015625)" xlink:href="#DejaVuSans-Oblique-120"/>
     <use transform="translate(220.947266 -16.390625)scale(0.7)" xlink:href="#DejaVuSans-49"/>
     <use transform="translate(268.217773 0.015625)" xlink:href="#DejaVuSans-93"/>
     <use transform="translate(307.231445 0.015625)" xlink:href="#DejaVuSans-91"/>
     <use transform="translate(346.245117 0.015625)" xlink:href="#DejaVuSans-Oblique-120"/>
     <use transform="translate(405.424805 -16.390625)scale(0.7)" xlink:href="#DejaVuSans-51"/>
     <use transform="translate(452.695312 0.015625)" xlink:href="#DejaVuSans-93"/>
    </g>
   </g>
   <g id="text_4">
    <!-- $\leftarrow[(tanh(x_0)-x_3)][sin(x_1)][x_1][x_3][x_2][x_3]$ -->
    <defs>
     <path d="M 31 75.875 
Q 24.46875 64.65625 21.28125 53.65625 
Q 18.109375 42.671875 18.109375 31.390625 
Q 18.109375 20.125 21.3125 9.0625 
Q 24.515625 -2 31 -13.1875 
L 23.1875 -13.1875 
Q 15.875 -1.703125 12.234375 9.375 
Q 8.59375 20.453125 8.59375 31.390625 
Q 8.59375 42.28125 12.203125 53.3125 
Q 15.828125 64.359375 23.1875 75.875 
z
" id="DejaVuSans-40"/>
     <path d="M 42.28125 54.6875 
L 40.921875 47.703125 
L 23 47.703125 
L 17.1875 18.015625 
Q 16.890625 16.359375 16.75 15.234375 
Q 16.609375 14.109375 16.609375 13.484375 
Q 16.609375 10.359375 18.484375 8.9375 
Q 20.359375 7.515625 24.515625 7.515625 
L 33.59375 7.515625 
L 32.078125 0 
L 23.484375 0 
Q 15.484375 0 11.546875 3.125 
Q 7.625 6.25 7.625 12.59375 
Q 7.625 13.71875 7.765625 15.0625 
Q 7.90625 16.40625 8.203125 18.015625 
L 14.015625 47.703125 
L 6.390625 47.703125 
L 7.8125 54.6875 
L 15.28125 54.6875 
L 18.3125 70.21875 
L 27.296875 70.21875 
L 24.3125 54.6875 
z
" id="DejaVuSans-Oblique-116"/>
     <path d="M 53.71875 31.203125 
L 47.609375 0 
L 38.625 0 
L 40.28125 8.296875 
Q 36.328125 3.421875 31.265625 1 
Q 26.21875 -1.421875 20.015625 -1.421875 
Q 13.03125 -1.421875 8.5625 2.84375 
Q 4.109375 7.125 4.109375 13.8125 
Q 4.109375 23.390625 11.75 28.953125 
Q 19.390625 34.515625 32.8125 34.515625 
L 45.3125 34.515625 
L 45.796875 36.921875 
Q 45.90625 37.3125 45.953125 37.765625 
Q 46 38.234375 46 39.203125 
Q 46 43.5625 42.453125 45.96875 
Q 38.921875 48.390625 32.515625 48.390625 
Q 28.125 48.390625 23.5 47.265625 
Q 18.890625 46.140625 14.015625 43.890625 
L 15.578125 52.203125 
Q 20.65625 54.109375 25.515625 55.046875 
Q 30.375 56 34.90625 56 
Q 44.578125 56 49.625 51.796875 
Q 54.6875 47.609375 54.6875 39.59375 
Q 54.6875 37.984375 54.4375 35.8125 
Q 54.203125 33.640625 53.71875 31.203125 
z
M 44 27.484375 
L 35.015625 27.484375 
Q 23.96875 27.484375 18.671875 24.53125 
Q 13.375 21.578125 13.375 15.375 
Q 13.375 11.078125 16.078125 8.640625 
Q 18.796875 6.203125 23.578125 6.203125 
Q 30.90625 6.203125 36.375 11.453125 
Q 41.84375 16.703125 43.609375 25.484375 
z
" id="DejaVuSans-Oblique-97"/>
     <path d="M 55.71875 33.015625 
L 49.3125 0 
L 40.28125 0 
L 46.6875 32.671875 
Q 47.125 34.96875 47.359375 36.71875 
Q 47.609375 38.484375 47.609375 39.5 
Q 47.609375 43.609375 45.015625 45.890625 
Q 42.4375 48.1875 37.796875 48.1875 
Q 30.5625 48.1875 25.34375 43.375 
Q 20.125 38.578125 18.5 30.328125 
L 12.5 0 
L 3.515625 0 
L 14.109375 54.6875 
L 23.09375 54.6875 
L 21.296875 46.09375 
Q 25.046875 50.828125 30.3125 53.40625 
Q 35.59375 56 41.40625 56 
Q 48.640625 56 52.609375 52.09375 
Q 56.59375 48.1875 56.59375 41.109375 
Q 56.59375 39.359375 56.375 37.359375 
Q 56.15625 35.359375 55.71875 33.015625 
z
" id="DejaVuSans-Oblique-110"/>
     <path d="M 55.71875 33.015625 
L 49.3125 0 
L 40.28125 0 
L 46.6875 32.671875 
Q 47.125 34.96875 47.359375 36.71875 
Q 47.609375 38.484375 47.609375 39.5 
Q 47.609375 43.609375 45.015625 45.890625 
Q 42.4375 48.1875 37.796875 48.1875 
Q 30.5625 48.1875 25.265625 43.296875 
Q 19.96875 38.421875 18.40625 30.328125 
L 12.5 0 
L 3.515625 0 
L 18.3125 75.984375 
L 27.296875 75.984375 
L 21.484375 46.09375 
Q 24.90625 50.6875 30.21875 53.34375 
Q 35.546875 56 41.40625 56 
Q 48.640625 56 52.609375 52.09375 
Q 56.59375 48.1875 56.59375 41.109375 
Q 56.59375 39.359375 56.375 37.359375 
Q 56.15625 35.359375 55.71875 33.015625 
z
" id="DejaVuSans-Oblique-104"/>
     <path d="M 31.78125 66.40625 
Q 24.171875 66.40625 20.328125 58.90625 
Q 16.5 51.421875 16.5 36.375 
Q 16.5 21.390625 20.328125 13.890625 
Q 24.171875 6.390625 31.78125 6.390625 
Q 39.453125 6.390625 43.28125 13.890625 
Q 47.125 21.390625 47.125 36.375 
Q 47.125 51.421875 43.28125 58.90625 
Q 39.453125 66.40625 31.78125 66.40625 
z
M 31.78125 74.21875 
Q 44.046875 74.21875 50.515625 64.515625 
Q 56.984375 54.828125 56.984375 36.375 
Q 56.984375 17.96875 50.515625 8.265625 
Q 44.046875 -1.421875 31.78125 -1.421875 
Q 19.53125 -1.421875 13.0625 8.265625 
Q 6.59375 17.96875 6.59375 36.375 
Q 6.59375 54.828125 13.0625 64.515625 
Q 19.53125 74.21875 31.78125 74.21875 
z
" id="DejaVuSans-48"/>
     <path d="M 8.015625 75.875 
L 15.828125 75.875 
Q 23.140625 64.359375 26.78125 53.3125 
Q 30.421875 42.28125 30.421875 31.390625 
Q 30.421875 20.453125 26.78125 9.375 
Q 23.140625 -1.703125 15.828125 -13.1875 
L 8.015625 -13.1875 
Q 14.5 -2 17.703125 9.0625 
Q 20.90625 20.125 20.90625 31.390625 
Q 20.90625 42.671875 17.703125 53.65625 
Q 14.5 64.65625 8.015625 75.875 
z
" id="DejaVuSans-41"/>
     <path d="M 10.59375 35.5 
L 73.1875 35.5 
L 73.1875 27.203125 
L 10.59375 27.203125 
z
" id="DejaVuSans-8722"/>
     <path d="M 50 53.078125 
L 48.296875 44.578125 
Q 44.734375 46.53125 40.765625 47.5 
Q 36.8125 48.484375 32.625 48.484375 
Q 25.53125 48.484375 21.453125 46.0625 
Q 17.390625 43.65625 17.390625 39.5 
Q 17.390625 34.671875 26.859375 32.078125 
Q 27.59375 31.890625 27.9375 31.78125 
L 30.8125 30.90625 
Q 39.796875 28.421875 42.796875 25.6875 
Q 45.796875 22.953125 45.796875 18.21875 
Q 45.796875 9.515625 38.890625 4.046875 
Q 31.984375 -1.421875 20.796875 -1.421875 
Q 16.453125 -1.421875 11.671875 -0.578125 
Q 6.890625 0.25 1.125 2 
L 2.875 11.28125 
Q 7.8125 8.734375 12.59375 7.421875 
Q 17.390625 6.109375 21.78125 6.109375 
Q 28.375 6.109375 32.5 8.9375 
Q 36.625 11.765625 36.625 16.109375 
Q 36.625 20.796875 25.78125 23.6875 
L 24.859375 23.921875 
L 21.78125 24.703125 
Q 14.9375 26.515625 11.765625 29.46875 
Q 8.59375 32.421875 8.59375 37.015625 
Q 8.59375 45.75 15.15625 50.875 
Q 21.734375 56 33.015625 56 
Q 37.453125 56 41.671875 55.265625 
Q 45.90625 54.546875 50 53.078125 
z
" id="DejaVuSans-Oblique-115"/>
     <path d="M 18.3125 75.984375 
L 27.296875 75.984375 
L 25.09375 64.59375 
L 16.109375 64.59375 
z
M 14.203125 54.6875 
L 23.1875 54.6875 
L 12.5 0 
L 3.515625 0 
z
" id="DejaVuSans-Oblique-105"/>
     <path d="M 19.1875 8.296875 
L 53.609375 8.296875 
L 53.609375 0 
L 7.328125 0 
L 7.328125 8.296875 
Q 12.9375 14.109375 22.625 23.890625 
Q 32.328125 33.6875 34.8125 36.53125 
Q 39.546875 41.84375 41.421875 45.53125 
Q 43.3125 49.21875 43.3125 52.78125 
Q 43.3125 58.59375 39.234375 62.25 
Q 35.15625 65.921875 28.609375 65.921875 
Q 23.96875 65.921875 18.8125 64.3125 
Q 13.671875 62.703125 7.8125 59.421875 
L 7.8125 69.390625 
Q 13.765625 71.78125 18.9375 73 
Q 24.125 74.21875 28.421875 74.21875 
Q 39.75 74.21875 46.484375 68.546875 
Q 53.21875 62.890625 53.21875 53.421875 
Q 53.21875 48.921875 51.53125 44.890625 
Q 49.859375 40.875 45.40625 35.40625 
Q 44.1875 33.984375 37.640625 27.21875 
Q 31.109375 20.453125 19.1875 8.296875 
z
" id="DejaVuSans-50"/>
    </defs>
    <g style="fill:#262626;" transform="translate(279.151682 285.995963)scale(0.18 -0.18)">
     <use transform="translate(19.482422 0.015625)" xlink:href="#DejaVuSans-8592"/>
     <use transform="translate(122.753906 0.015625)" xlink:href="#DejaVuSans-91"/>
     <use transform="translate(161.767578 0.015625)" xlink:href="#DejaVuSans-40"/>
     <use transform="translate(200.78125 0.015625)" xlink:href="#DejaVuSans-Oblique-116"/>
     <use transform="translate(239.990234 0.015625)" xlink:href="#DejaVuSans-Oblique-97"/>
     <use transform="translate(301.269531 0.015625)" xlink:href="#DejaVuSans-Oblique-110"/>
     <use transform="translate(364.648438 0.015625)" xlink:href="#DejaVuSans-Oblique-104"/>
     <use transform="translate(428.027344 0.015625)" xlink:href="#DejaVuSans-40"/>
     <use transform="translate(467.041016 0.015625)" xlink:href="#DejaVuSans-Oblique-120"/>
     <use transform="translate(526.220703 -16.390625)scale(0.7)" xlink:href="#DejaVuSans-48"/>
     <use transform="translate(573.491211 0.015625)" xlink:href="#DejaVuSans-41"/>
     <use transform="translate(631.987305 0.015625)" xlink:href="#DejaVuSans-8722"/>
     <use transform="translate(735.258789 0.015625)" xlink:href="#DejaVuSans-Oblique-120"/>
     <use transform="translate(794.438477 -16.390625)scale(0.7)" xlink:href="#DejaVuSans-51"/>
     <use transform="translate(841.708984 0.015625)" xlink:href="#DejaVuSans-41"/>
     <use transform="translate(880.722656 0.015625)" xlink:href="#DejaVuSans-93"/>
     <use transform="translate(919.736328 0.015625)" xlink:href="#DejaVuSans-91"/>
     <use transform="translate(958.75 0.015625)" xlink:href="#DejaVuSans-Oblique-115"/>
     <use transform="translate(1010.849609 0.015625)" xlink:href="#DejaVuSans-Oblique-105"/>
     <use transform="translate(1038.632812 0.015625)" xlink:href="#DejaVuSans-Oblique-110"/>
     <use transform="translate(1102.011719 0.015625)" xlink:href="#DejaVuSans-40"/>
     <use transform="translate(1141.025391 0.015625)" xlink:href="#DejaVuSans-Oblique-120"/>
     <use transform="translate(1200.205078 -16.390625)scale(0.7)" xlink:href="#DejaVuSans-49"/>
     <use transform="translate(1247.475586 0.015625)" xlink:href="#DejaVuSans-41"/>
     <use transform="translate(1286.489258 0.015625)" xlink:href="#DejaVuSans-93"/>
     <use transform="translate(1325.50293 0.015625)" xlink:href="#DejaVuSans-91"/>
     <use transform="translate(1364.516602 0.015625)" xlink:href="#DejaVuSans-Oblique-120"/>
     <use transform="translate(1423.696289 -16.390625)scale(0.7)" xlink:href="#DejaVuSans-49"/>
     <use transform="translate(1470.966797 0.015625)" xlink:href="#DejaVuSans-93"/>
     <use transform="translate(1509.980469 0.015625)" xlink:href="#DejaVuSans-91"/>
     <use transform="translate(1548.994141 0.015625)" xlink:href="#DejaVuSans-Oblique-120"/>
     <use transform="translate(1608.173828 -16.390625)scale(0.7)" xlink:href="#DejaVuSans-51"/>
     <use transform="translate(1655.444336 0.015625)" xlink:href="#DejaVuSans-93"/>
     <use transform="translate(1694.458008 0.015625)" xlink:href="#DejaVuSans-91"/>
     <use transform="translate(1733.47168 0.015625)" xlink:href="#DejaVuSans-Oblique-120"/>
     <use transform="translate(1792.651367 -16.390625)scale(0.7)" xlink:href="#DejaVuSans-50"/>
     <use transform="translate(1839.921875 0.015625)" xlink:href="#DejaVuSans-93"/>
     <use transform="translate(1878.935547 0.015625)" xlink:href="#DejaVuSans-91"/>
     <use transform="translate(1917.949219 0.015625)" xlink:href="#DejaVuSans-Oblique-120"/>
     <use transform="translate(1977.128906 -16.390625)scale(0.7)" xlink:href="#DejaVuSans-51"/>
     <use transform="translate(2024.399414 0.015625)" xlink:href="#DejaVuSans-93"/>
    </g>
   </g>
   <g id="text_5">
    <!-- $\leftarrow[(tanh(x_0)-x_0)][(cos(x_3)-x_0)][(x_1*gauss(x_2))][(x_0+x_0)][sin(x_1)][x_3][sin(x_2)]$ -->
    <defs>
     <path d="M 53.609375 52.59375 
L 51.8125 43.703125 
Q 48.578125 46.046875 44.9375 47.21875 
Q 41.3125 48.390625 37.40625 48.390625 
Q 33.109375 48.390625 29.21875 46.875 
Q 25.34375 45.359375 22.703125 42.578125 
Q 18.5 38.328125 16.203125 32.609375 
Q 13.921875 26.90625 13.921875 20.796875 
Q 13.921875 13.421875 17.609375 9.8125 
Q 21.296875 6.203125 28.8125 6.203125 
Q 32.515625 6.203125 36.6875 7.328125 
Q 40.875 8.453125 45.40625 10.6875 
L 43.703125 1.8125 
Q 39.796875 0.203125 35.671875 -0.609375 
Q 31.546875 -1.421875 27.203125 -1.421875 
Q 16.3125 -1.421875 10.453125 4.015625 
Q 4.59375 9.46875 4.59375 19.578125 
Q 4.59375 28.078125 7.640625 35.234375 
Q 10.6875 42.390625 16.703125 48.09375 
Q 20.796875 52 26.3125 54 
Q 31.84375 56 38.375 56 
Q 42.1875 56 45.9375 55.140625 
Q 49.703125 54.296875 53.609375 52.59375 
z
" id="DejaVuSans-Oblique-99"/>
     <path d="M 25.390625 -1.421875 
Q 15.765625 -1.421875 10.171875 4.515625 
Q 4.59375 10.453125 4.59375 20.703125 
Q 4.59375 26.65625 6.515625 32.828125 
Q 8.453125 39.015625 11.53125 43.21875 
Q 16.359375 49.75 22.3125 52.875 
Q 28.265625 56 35.796875 56 
Q 45.125 56 50.859375 50.1875 
Q 56.59375 44.390625 56.59375 35.015625 
Q 56.59375 28.515625 54.6875 22.0625 
Q 52.78125 15.625 49.703125 11.375 
Q 44.921875 4.828125 38.96875 1.703125 
Q 33.015625 -1.421875 25.390625 -1.421875 
z
M 13.921875 21 
Q 13.921875 13.578125 17.015625 9.890625 
Q 20.125 6.203125 26.421875 6.203125 
Q 35.453125 6.203125 41.375 14.078125 
Q 47.3125 21.96875 47.3125 34.078125 
Q 47.3125 41.15625 44.140625 44.765625 
Q 40.96875 48.390625 34.8125 48.390625 
Q 29.734375 48.390625 25.78125 46.015625 
Q 21.828125 43.65625 18.703125 38.8125 
Q 16.40625 35.203125 15.15625 30.5625 
Q 13.921875 25.921875 13.921875 21 
z
" id="DejaVuSans-Oblique-111"/>
     <path d="M 47.015625 60.890625 
L 29.5 51.421875 
L 47.015625 41.890625 
L 44.1875 37.109375 
L 27.78125 47.015625 
L 27.78125 28.609375 
L 22.21875 28.609375 
L 22.21875 47.015625 
L 5.8125 37.109375 
L 2.984375 41.890625 
L 20.515625 51.421875 
L 2.984375 60.890625 
L 5.8125 65.71875 
L 22.21875 55.8125 
L 22.21875 74.21875 
L 27.78125 74.21875 
L 27.78125 55.8125 
L 44.1875 65.71875 
z
" id="DejaVuSans-42"/>
     <path d="M 59.625 54.6875 
L 50.296875 6.78125 
Q 47.609375 -7.125 40.015625 -13.953125 
Q 32.421875 -20.796875 19.578125 -20.796875 
Q 14.84375 -20.796875 10.78125 -20.09375 
Q 6.734375 -19.390625 3.21875 -17.921875 
L 4.890625 -9.1875 
Q 8.203125 -11.328125 11.90625 -12.34375 
Q 15.625 -13.375 19.828125 -13.375 
Q 28.375 -13.375 33.859375 -8.703125 
Q 39.359375 -4.046875 41.109375 4.6875 
L 41.890625 8.796875 
Q 38.140625 4.5 33.15625 2.25 
Q 28.171875 0 22.40625 0 
Q 14.109375 0 9.34375 5.484375 
Q 4.59375 10.984375 4.59375 20.609375 
Q 4.59375 28.171875 7.46875 35.421875 
Q 10.359375 42.671875 15.578125 48.296875 
Q 19.046875 52 23.65625 54 
Q 28.265625 56 33.296875 56 
Q 38.8125 56 42.90625 53.4375 
Q 47.015625 50.875 49.03125 46.1875 
L 50.59375 54.6875 
z
M 46.09375 34.625 
Q 46.09375 41.265625 42.96875 44.875 
Q 39.84375 48.484375 34.078125 48.484375 
Q 30.515625 48.484375 27.296875 47.0625 
Q 24.078125 45.65625 21.78125 43.109375 
Q 18.0625 38.921875 15.984375 33.234375 
Q 13.921875 27.546875 13.921875 21.484375 
Q 13.921875 14.75 17.0625 11.125 
Q 20.21875 7.515625 26.125 7.515625 
Q 34.671875 7.515625 40.375 15.25 
Q 46.09375 23 46.09375 34.625 
z
" id="DejaVuSans-Oblique-103"/>
     <path d="M 6.6875 21.6875 
L 13.09375 54.6875 
L 22.125 54.6875 
L 15.71875 22.015625 
Q 15.234375 19.625 15.015625 17.921875 
Q 14.796875 16.21875 14.796875 15.09375 
Q 14.796875 10.9375 17.328125 8.65625 
Q 19.875 6.390625 24.515625 6.390625 
Q 31.734375 6.390625 37 11.265625 
Q 42.28125 16.15625 43.890625 24.421875 
L 49.90625 54.6875 
L 58.890625 54.6875 
L 48.296875 0 
L 39.3125 0 
L 41.109375 8.59375 
Q 37.3125 3.8125 32.0625 1.1875 
Q 26.8125 -1.421875 20.90625 -1.421875 
Q 13.71875 -1.421875 9.71875 2.515625 
Q 5.71875 6.453125 5.71875 13.484375 
Q 5.71875 14.9375 5.953125 17.140625 
Q 6.203125 19.34375 6.6875 21.6875 
z
" id="DejaVuSans-Oblique-117"/>
     <path d="M 46 62.703125 
L 46 35.5 
L 73.1875 35.5 
L 73.1875 27.203125 
L 46 27.203125 
L 46 0 
L 37.796875 0 
L 37.796875 27.203125 
L 10.59375 27.203125 
L 10.59375 35.5 
L 37.796875 35.5 
L 37.796875 62.703125 
z
" id="DejaVuSans-43"/>
    </defs>
    <g style="fill:#262626;" transform="translate(145.629053 200.036487)scale(0.18 -0.18)">
     <use transform="translate(19.482422 0.015625)" xlink:href="#DejaVuSans-8592"/>
     <use transform="translate(122.753906 0.015625)" xlink:href="#DejaVuSans-91"/>
     <use transform="translate(161.767578 0.015625)" xlink:href="#DejaVuSans-40"/>
     <use transform="translate(200.78125 0.015625)" xlink:href="#DejaVuSans-Oblique-116"/>
     <use transform="translate(239.990234 0.015625)" xlink:href="#DejaVuSans-Oblique-97"/>
     <use transform="translate(301.269531 0.015625)" xlink:href="#DejaVuSans-Oblique-110"/>
     <use transform="translate(364.648438 0.015625)" xlink:href="#DejaVuSans-Oblique-104"/>
     <use transform="translate(428.027344 0.015625)" xlink:href="#DejaVuSans-40"/>
     <use transform="translate(467.041016 0.015625)" xlink:href="#DejaVuSans-Oblique-120"/>
     <use transform="translate(526.220703 -16.390625)scale(0.7)" xlink:href="#DejaVuSans-48"/>
     <use transform="translate(573.491211 0.015625)" xlink:href="#DejaVuSans-41"/>
     <use transform="translate(631.987305 0.015625)" xlink:href="#DejaVuSans-8722"/>
     <use transform="translate(735.258789 0.015625)" xlink:href="#DejaVuSans-Oblique-120"/>
     <use transform="translate(794.438477 -16.390625)scale(0.7)" xlink:href="#DejaVuSans-48"/>
     <use transform="translate(841.708984 0.015625)" xlink:href="#DejaVuSans-41"/>
     <use transform="translate(880.722656 0.015625)" xlink:href="#DejaVuSans-93"/>
     <use transform="translate(919.736328 0.015625)" xlink:href="#DejaVuSans-91"/>
     <use transform="translate(958.75 0.015625)" xlink:href="#DejaVuSans-40"/>
     <use transform="translate(997.763672 0.015625)" xlink:href="#DejaVuSans-Oblique-99"/>
     <use transform="translate(1052.744141 0.015625)" xlink:href="#DejaVuSans-Oblique-111"/>
     <use transform="translate(1113.925781 0.015625)" xlink:href="#DejaVuSans-Oblique-115"/>
     <use transform="translate(1166.025391 0.015625)" xlink:href="#DejaVuSans-40"/>
     <use transform="translate(1205.039062 0.015625)" xlink:href="#DejaVuSans-Oblique-120"/>
     <use transform="translate(1264.21875 -16.390625)scale(0.7)" xlink:href="#DejaVuSans-51"/>
     <use transform="translate(1311.489258 0.015625)" xlink:href="#DejaVuSans-41"/>
     <use transform="translate(1369.985352 0.015625)" xlink:href="#DejaVuSans-8722"/>
     <use transform="translate(1473.256836 0.015625)" xlink:href="#DejaVuSans-Oblique-120"/>
     <use transform="translate(1532.436523 -16.390625)scale(0.7)" xlink:href="#DejaVuSans-48"/>
     <use transform="translate(1579.707031 0.015625)" xlink:href="#DejaVuSans-41"/>
     <use transform="translate(1618.720703 0.015625)" xlink:href="#DejaVuSans-93"/>
     <use transform="translate(1657.734375 0.015625)" xlink:href="#DejaVuSans-91"/>
     <use transform="translate(1696.748047 0.015625)" xlink:href="#DejaVuSans-40"/>
     <use transform="translate(1735.761719 0.015625)" xlink:href="#DejaVuSans-Oblique-120"/>
     <use transform="translate(1794.941406 -16.390625)scale(0.7)" xlink:href="#DejaVuSans-49"/>
     <use transform="translate(1861.694336 0.015625)" xlink:href="#DejaVuSans-42"/>
     <use transform="translate(1931.176758 0.015625)" xlink:href="#DejaVuSans-Oblique-103"/>
     <use transform="translate(1994.65332 0.015625)" xlink:href="#DejaVuSans-Oblique-97"/>
     <use transform="translate(2055.932617 0.015625)" xlink:href="#DejaVuSans-Oblique-117"/>
     <use transform="translate(2119.311523 0.015625)" xlink:href="#DejaVuSans-Oblique-115"/>
     <use transform="translate(2171.411133 0.015625)" xlink:href="#DejaVuSans-Oblique-115"/>
     <use transform="translate(2223.510742 0.015625)" xlink:href="#DejaVuSans-40"/>
     <use transform="translate(2262.524414 0.015625)" xlink:href="#DejaVuSans-Oblique-120"/>
     <use transform="translate(2321.704102 -16.390625)scale(0.7)" xlink:href="#DejaVuSans-50"/>
     <use transform="translate(2368.974609 0.015625)" xlink:href="#DejaVuSans-41"/>
     <use transform="translate(2407.988281 0.015625)" xlink:href="#DejaVuSans-41"/>
     <use transform="translate(2447.001953 0.015625)" xlink:href="#DejaVuSans-93"/>
     <use transform="translate(2486.015625 0.015625)" xlink:href="#DejaVuSans-91"/>
     <use transform="translate(2525.029297 0.015625)" xlink:href="#DejaVuSans-40"/>
     <use transform="translate(2564.042969 0.015625)" xlink:href="#DejaVuSans-Oblique-120"/>
     <use transform="translate(2623.222656 -16.390625)scale(0.7)" xlink:href="#DejaVuSans-48"/>
     <use transform="translate(2689.975586 0.015625)" xlink:href="#DejaVuSans-43"/>
     <use transform="translate(2793.24707 0.015625)" xlink:href="#DejaVuSans-Oblique-120"/>
     <use transform="translate(2852.426758 -16.390625)scale(0.7)" xlink:href="#DejaVuSans-48"/>
     <use transform="translate(2899.697266 0.015625)" xlink:href="#DejaVuSans-41"/>
     <use transform="translate(2938.710938 0.015625)" xlink:href="#DejaVuSans-93"/>
     <use transform="translate(2977.724609 0.015625)" xlink:href="#DejaVuSans-91"/>
     <use transform="translate(3016.738281 0.015625)" xlink:href="#DejaVuSans-Oblique-115"/>
     <use transform="translate(3068.837891 0.015625)" xlink:href="#DejaVuSans-Oblique-105"/>
     <use transform="translate(3096.621094 0.015625)" xlink:href="#DejaVuSans-Oblique-110"/>
     <use transform="translate(3160 0.015625)" xlink:href="#DejaVuSans-40"/>
     <use transform="translate(3199.013672 0.015625)" xlink:href="#DejaVuSans-Oblique-120"/>
     <use transform="translate(3258.193359 -16.390625)scale(0.7)" xlink:href="#DejaVuSans-49"/>
     <use transform="translate(3305.463867 0.015625)" xlink:href="#DejaVuSans-41"/>
     <use transform="translate(3344.477539 0.015625)" xlink:href="#DejaVuSans-93"/>
     <use transform="translate(3383.491211 0.015625)" xlink:href="#DejaVuSans-91"/>
     <use transform="translate(3422.504883 0.015625)" xlink:href="#DejaVuSans-Oblique-120"/>
     <use transform="translate(3481.68457 -16.390625)scale(0.7)" xlink:href="#DejaVuSans-51"/>
     <use transform="translate(3528.955078 0.015625)" xlink:href="#DejaVuSans-93"/>
     <use transform="translate(3567.96875 0.015625)" xlink:href="#DejaVuSans-91"/>
     <use transform="translate(3606.982422 0.015625)" xlink:href="#DejaVuSans-Oblique-115"/>
     <use transform="translate(3659.082031 0.015625)" xlink:href="#DejaVuSans-Oblique-105"/>
     <use transform="translate(3686.865234 0.015625)" xlink:href="#DejaVuSans-Oblique-110"/>
     <use transform="translate(3750.244141 0.015625)" xlink:href="#DejaVuSans-40"/>
     <use transform="translate(3789.257812 0.015625)" xlink:href="#DejaVuSans-Oblique-120"/>
     <use transform="translate(3848.4375 -16.390625)scale(0.7)" xlink:href="#DejaVuSans-50"/>
     <use transform="translate(3895.708008 0.015625)" xlink:href="#DejaVuSans-41"/>
     <use transform="translate(3934.72168 0.015625)" xlink:href="#DejaVuSans-93"/>
    </g>
   </g>
   <g id="legend_1">
    <g id="patch_7">
     <path d="M 815.38538 407.1 
L 993.45038 407.1 
Q 996.65038 407.1 996.65038 403.9 
L 996.65038 264.59 
Q 996.65038 261.39 993.45038 261.39 
L 815.38538 261.39 
Q 812.18538 261.39 812.18538 264.59 
L 812.18538 403.9 
Q 812.18538 407.1 815.38538 407.1 
z
" style="fill:#ffffff;opacity:0.8;stroke:#cccccc;stroke-linejoin:miter;"/>
    </g>
    <g id="line2d_7">
     <path d="M 818.58538 274.3475 
L 850.58538 274.3475 
" style="fill:none;stroke:#ff0000;stroke-dasharray:5.55,2.4;stroke-dashoffset:0;stroke-width:1.5;"/>
    </g>
    <g id="line2d_8">
     <g>
      <use style="fill:#ff0000;stroke:#ff0000;" x="834.58538" xlink:href="#mb27df80242" y="274.3475"/>
     </g>
    </g>
    <g id="text_6">
     <!-- Train -->
     <defs>
      <path d="M -0.296875 72.90625 
L 61.375 72.90625 
L 61.375 64.59375 
L 35.5 64.59375 
L 35.5 0 
L 25.59375 0 
L 25.59375 64.59375 
L -0.296875 64.59375 
z
" id="DejaVuSans-84"/>
      <path d="M 41.109375 46.296875 
Q 39.59375 47.171875 37.8125 47.578125 
Q 36.03125 48 33.890625 48 
Q 26.265625 48 22.1875 43.046875 
Q 18.109375 38.09375 18.109375 28.8125 
L 18.109375 0 
L 9.078125 0 
L 9.078125 54.6875 
L 18.109375 54.6875 
L 18.109375 46.1875 
Q 20.953125 51.171875 25.484375 53.578125 
Q 30.03125 56 36.53125 56 
Q 37.453125 56 38.578125 55.875 
Q 39.703125 55.765625 41.0625 55.515625 
z
" id="DejaVuSans-114"/>
      <path d="M 34.28125 27.484375 
Q 23.390625 27.484375 19.1875 25 
Q 14.984375 22.515625 14.984375 16.5 
Q 14.984375 11.71875 18.140625 8.90625 
Q 21.296875 6.109375 26.703125 6.109375 
Q 34.1875 6.109375 38.703125 11.40625 
Q 43.21875 16.703125 43.21875 25.484375 
L 43.21875 27.484375 
z
M 52.203125 31.203125 
L 52.203125 0 
L 43.21875 0 
L 43.21875 8.296875 
Q 40.140625 3.328125 35.546875 0.953125 
Q 30.953125 -1.421875 24.3125 -1.421875 
Q 15.921875 -1.421875 10.953125 3.296875 
Q 6 8.015625 6 15.921875 
Q 6 25.140625 12.171875 29.828125 
Q 18.359375 34.515625 30.609375 34.515625 
L 43.21875 34.515625 
L 43.21875 35.40625 
Q 43.21875 41.609375 39.140625 45 
Q 35.0625 48.390625 27.6875 48.390625 
Q 23 48.390625 18.546875 47.265625 
Q 14.109375 46.140625 10.015625 43.890625 
L 10.015625 52.203125 
Q 14.9375 54.109375 19.578125 55.046875 
Q 24.21875 56 28.609375 56 
Q 40.484375 56 46.34375 49.84375 
Q 52.203125 43.703125 52.203125 31.203125 
z
" id="DejaVuSans-97"/>
      <path d="M 54.890625 33.015625 
L 54.890625 0 
L 45.90625 0 
L 45.90625 32.71875 
Q 45.90625 40.484375 42.875 44.328125 
Q 39.84375 48.1875 33.796875 48.1875 
Q 26.515625 48.1875 22.3125 43.546875 
Q 18.109375 38.921875 18.109375 30.90625 
L 18.109375 0 
L 9.078125 0 
L 9.078125 54.6875 
L 18.109375 54.6875 
L 18.109375 46.1875 
Q 21.34375 51.125 25.703125 53.5625 
Q 30.078125 56 35.796875 56 
Q 45.21875 56 50.046875 50.171875 
Q 54.890625 44.34375 54.890625 33.015625 
z
" id="DejaVuSans-110"/>
     </defs>
     <g style="fill:#262626;" transform="translate(863.38538 279.9475)scale(0.16 -0.16)">
      <use xlink:href="#DejaVuSans-84"/>
      <use x="60.865234" xlink:href="#DejaVuSans-114"/>
      <use x="101.978516" xlink:href="#DejaVuSans-97"/>
      <use x="163.257812" xlink:href="#DejaVuSans-105"/>
      <use x="191.041016" xlink:href="#DejaVuSans-110"/>
     </g>
    </g>
    <g id="line2d_9">
     <path d="M 818.58538 297.8325 
L 850.58538 297.8325 
" style="fill:none;stroke:#0000ff;stroke-dasharray:5.55,2.4;stroke-dashoffset:0;stroke-width:1.5;"/>
    </g>
    <g id="line2d_10">
     <g>
      <use style="fill:#0000ff;stroke:#0000ff;" x="834.58538" xlink:href="#ma9f01c0b91" y="297.8325"/>
     </g>
    </g>
    <g id="text_7">
     <!-- Validation -->
     <defs>
      <path d="M 28.609375 0 
L 0.78125 72.90625 
L 11.078125 72.90625 
L 34.1875 11.53125 
L 57.328125 72.90625 
L 67.578125 72.90625 
L 39.796875 0 
z
" id="DejaVuSans-86"/>
      <path d="M 45.40625 46.390625 
L 45.40625 75.984375 
L 54.390625 75.984375 
L 54.390625 0 
L 45.40625 0 
L 45.40625 8.203125 
Q 42.578125 3.328125 38.25 0.953125 
Q 33.9375 -1.421875 27.875 -1.421875 
Q 17.96875 -1.421875 11.734375 6.484375 
Q 5.515625 14.40625 5.515625 27.296875 
Q 5.515625 40.1875 11.734375 48.09375 
Q 17.96875 56 27.875 56 
Q 33.9375 56 38.25 53.625 
Q 42.578125 51.265625 45.40625 46.390625 
z
M 14.796875 27.296875 
Q 14.796875 17.390625 18.875 11.75 
Q 22.953125 6.109375 30.078125 6.109375 
Q 37.203125 6.109375 41.296875 11.75 
Q 45.40625 17.390625 45.40625 27.296875 
Q 45.40625 37.203125 41.296875 42.84375 
Q 37.203125 48.484375 30.078125 48.484375 
Q 22.953125 48.484375 18.875 42.84375 
Q 14.796875 37.203125 14.796875 27.296875 
z
" id="DejaVuSans-100"/>
     </defs>
     <g style="fill:#262626;" transform="translate(863.38538 303.4325)scale(0.16 -0.16)">
      <use xlink:href="#DejaVuSans-86"/>
      <use x="68.298828" xlink:href="#DejaVuSans-97"/>
      <use x="129.578125" xlink:href="#DejaVuSans-108"/>
      <use x="157.361328" xlink:href="#DejaVuSans-105"/>
      <use x="185.144531" xlink:href="#DejaVuSans-100"/>
      <use x="248.621094" xlink:href="#DejaVuSans-97"/>
      <use x="309.900391" xlink:href="#DejaVuSans-116"/>
      <use x="349.109375" xlink:href="#DejaVuSans-105"/>
      <use x="376.892578" xlink:href="#DejaVuSans-111"/>
      <use x="438.074219" xlink:href="#DejaVuSans-110"/>
     </g>
    </g>
    <g id="line2d_11"/>
    <g id="line2d_12">
     <g>
      <use style="fill-opacity:0;stroke:#000000;stroke-linejoin:miter;" x="834.58538" xlink:href="#mc24198fb09" y="321.3175"/>
     </g>
    </g>
    <g id="text_8">
     <!-- Model Selection -->
     <defs>
      <path id="DejaVuSans-32"/>
      <path d="M 48.78125 52.59375 
L 48.78125 44.1875 
Q 44.96875 46.296875 41.140625 47.34375 
Q 37.3125 48.390625 33.40625 48.390625 
Q 24.65625 48.390625 19.8125 42.84375 
Q 14.984375 37.3125 14.984375 27.296875 
Q 14.984375 17.28125 19.8125 11.734375 
Q 24.65625 6.203125 33.40625 6.203125 
Q 37.3125 6.203125 41.140625 7.25 
Q 44.96875 8.296875 48.78125 10.40625 
L 48.78125 2.09375 
Q 45.015625 0.34375 40.984375 -0.53125 
Q 36.96875 -1.421875 32.421875 -1.421875 
Q 20.0625 -1.421875 12.78125 6.34375 
Q 5.515625 14.109375 5.515625 27.296875 
Q 5.515625 40.671875 12.859375 48.328125 
Q 20.21875 56 33.015625 56 
Q 37.15625 56 41.109375 55.140625 
Q 45.0625 54.296875 48.78125 52.59375 
z
" id="DejaVuSans-99"/>
     </defs>
     <g style="fill:#262626;" transform="translate(863.38538 326.9175)scale(0.16 -0.16)">
      <use xlink:href="#DejaVuSans-77"/>
      <use x="86.279297" xlink:href="#DejaVuSans-111"/>
      <use x="147.460938" xlink:href="#DejaVuSans-100"/>
      <use x="210.9375" xlink:href="#DejaVuSans-101"/>
      <use x="272.460938" xlink:href="#DejaVuSans-108"/>
      <use x="300.244141" xlink:href="#DejaVuSans-32"/>
      <use x="332.03125" xlink:href="#DejaVuSans-83"/>
      <use x="395.507812" xlink:href="#DejaVuSans-101"/>
      <use x="457.03125" xlink:href="#DejaVuSans-108"/>
      <use x="484.814453" xlink:href="#DejaVuSans-101"/>
      <use x="546.337891" xlink:href="#DejaVuSans-99"/>
      <use x="601.318359" xlink:href="#DejaVuSans-116"/>
      <use x="640.527344" xlink:href="#DejaVuSans-105"/>
      <use x="668.310547" xlink:href="#DejaVuSans-111"/>
      <use x="729.492188" xlink:href="#DejaVuSans-110"/>
     </g>
    </g>
    <g id="line2d_13">
     <path d="M 818.58538 344.8025 
L 850.58538 344.8025 
" style="fill:none;stroke:#000000;stroke-dasharray:5.55,2.4;stroke-dashoffset:0;stroke-opacity:0.5;stroke-width:1.5;"/>
    </g>
    <g id="line2d_14"/>
    <g id="text_9">
     <!-- FEAT Test -->
     <defs>
      <path d="M 9.8125 72.90625 
L 51.703125 72.90625 
L 51.703125 64.59375 
L 19.671875 64.59375 
L 19.671875 43.109375 
L 48.578125 43.109375 
L 48.578125 34.8125 
L 19.671875 34.8125 
L 19.671875 0 
L 9.8125 0 
z
" id="DejaVuSans-70"/>
      <path d="M 34.1875 63.1875 
L 20.796875 26.90625 
L 47.609375 26.90625 
z
M 28.609375 72.90625 
L 39.796875 72.90625 
L 67.578125 0 
L 57.328125 0 
L 50.6875 18.703125 
L 17.828125 18.703125 
L 11.1875 0 
L 0.78125 0 
z
" id="DejaVuSans-65"/>
      <path d="M 44.28125 53.078125 
L 44.28125 44.578125 
Q 40.484375 46.53125 36.375 47.5 
Q 32.28125 48.484375 27.875 48.484375 
Q 21.1875 48.484375 17.84375 46.4375 
Q 14.5 44.390625 14.5 40.28125 
Q 14.5 37.15625 16.890625 35.375 
Q 19.28125 33.59375 26.515625 31.984375 
L 29.59375 31.296875 
Q 39.15625 29.25 43.1875 25.515625 
Q 47.21875 21.78125 47.21875 15.09375 
Q 47.21875 7.46875 41.1875 3.015625 
Q 35.15625 -1.421875 24.609375 -1.421875 
Q 20.21875 -1.421875 15.453125 -0.5625 
Q 10.6875 0.296875 5.421875 2 
L 5.421875 11.28125 
Q 10.40625 8.6875 15.234375 7.390625 
Q 20.0625 6.109375 24.8125 6.109375 
Q 31.15625 6.109375 34.5625 8.28125 
Q 37.984375 10.453125 37.984375 14.40625 
Q 37.984375 18.0625 35.515625 20.015625 
Q 33.0625 21.96875 24.703125 23.78125 
L 21.578125 24.515625 
Q 13.234375 26.265625 9.515625 29.90625 
Q 5.8125 33.546875 5.8125 39.890625 
Q 5.8125 47.609375 11.28125 51.796875 
Q 16.75 56 26.8125 56 
Q 31.78125 56 36.171875 55.265625 
Q 40.578125 54.546875 44.28125 53.078125 
z
" id="DejaVuSans-115"/>
     </defs>
     <g style="fill:#262626;" transform="translate(863.38538 350.4025)scale(0.16 -0.16)">
      <use xlink:href="#DejaVuSans-70"/>
      <use x="57.519531" xlink:href="#DejaVuSans-69"/>
      <use x="120.703125" xlink:href="#DejaVuSans-65"/>
      <use x="189.001953" xlink:href="#DejaVuSans-84"/>
      <use x="250.085938" xlink:href="#DejaVuSans-32"/>
      <use x="281.873047" xlink:href="#DejaVuSans-84"/>
      <use x="342.691406" xlink:href="#DejaVuSans-101"/>
      <use x="404.214844" xlink:href="#DejaVuSans-115"/>
      <use x="456.314453" xlink:href="#DejaVuSans-116"/>
     </g>
    </g>
    <g id="line2d_15">
     <path d="M 818.58538 368.2875 
L 850.58538 368.2875 
" style="fill:none;stroke:#008000;stroke-dasharray:9.6,2.4,1.5,2.4;stroke-dashoffset:0;stroke-opacity:0.5;stroke-width:1.5;"/>
    </g>
    <g id="line2d_16">
     <g>
      <use style="fill:#008000;fill-opacity:0.5;stroke:#008000;stroke-opacity:0.5;" x="834.58538" xlink:href="#mdc8d6fbe2e" y="368.2875"/>
     </g>
    </g>
    <g id="text_10">
     <!-- RF Test -->
     <defs>
      <path d="M 44.390625 34.1875 
Q 47.5625 33.109375 50.5625 29.59375 
Q 53.5625 26.078125 56.59375 19.921875 
L 66.609375 0 
L 56 0 
L 46.6875 18.703125 
Q 43.0625 26.03125 39.671875 28.421875 
Q 36.28125 30.8125 30.421875 30.8125 
L 19.671875 30.8125 
L 19.671875 0 
L 9.8125 0 
L 9.8125 72.90625 
L 32.078125 72.90625 
Q 44.578125 72.90625 50.734375 67.671875 
Q 56.890625 62.453125 56.890625 51.90625 
Q 56.890625 45.015625 53.6875 40.46875 
Q 50.484375 35.9375 44.390625 34.1875 
z
M 19.671875 64.796875 
L 19.671875 38.921875 
L 32.078125 38.921875 
Q 39.203125 38.921875 42.84375 42.21875 
Q 46.484375 45.515625 46.484375 51.90625 
Q 46.484375 58.296875 42.84375 61.546875 
Q 39.203125 64.796875 32.078125 64.796875 
z
" id="DejaVuSans-82"/>
     </defs>
     <g style="fill:#262626;" transform="translate(863.38538 373.8875)scale(0.16 -0.16)">
      <use xlink:href="#DejaVuSans-82"/>
      <use x="69.482422" xlink:href="#DejaVuSans-70"/>
      <use x="127.001953" xlink:href="#DejaVuSans-32"/>
      <use x="158.789062" xlink:href="#DejaVuSans-84"/>
      <use x="219.607422" xlink:href="#DejaVuSans-101"/>
      <use x="281.130859" xlink:href="#DejaVuSans-115"/>
      <use x="333.230469" xlink:href="#DejaVuSans-116"/>
     </g>
    </g>
    <g id="line2d_17">
     <path d="M 818.58538 391.7725 
L 850.58538 391.7725 
" style="fill:none;stroke:#bf00bf;stroke-linecap:round;stroke-opacity:0.5;stroke-width:1.5;"/>
    </g>
    <g id="line2d_18">
     <g>
      <use style="fill:#bf00bf;fill-opacity:0.5;stroke:#bf00bf;stroke-linejoin:miter;stroke-opacity:0.5;" x="834.58538" xlink:href="#me0b9cad572" y="391.7725"/>
     </g>
    </g>
    <g id="text_11">
     <!-- ElasticNet Test -->
     <defs>
      <path d="M 9.8125 72.90625 
L 23.09375 72.90625 
L 55.421875 11.921875 
L 55.421875 72.90625 
L 64.984375 72.90625 
L 64.984375 0 
L 51.703125 0 
L 19.390625 60.984375 
L 19.390625 0 
L 9.8125 0 
z
" id="DejaVuSans-78"/>
     </defs>
     <g style="fill:#262626;" transform="translate(863.38538 397.3725)scale(0.16 -0.16)">
      <use xlink:href="#DejaVuSans-69"/>
      <use x="63.183594" xlink:href="#DejaVuSans-108"/>
      <use x="90.966797" xlink:href="#DejaVuSans-97"/>
      <use x="152.246094" xlink:href="#DejaVuSans-115"/>
      <use x="204.345703" xlink:href="#DejaVuSans-116"/>
      <use x="243.554688" xlink:href="#DejaVuSans-105"/>
      <use x="271.337891" xlink:href="#DejaVuSans-99"/>
      <use x="326.318359" xlink:href="#DejaVuSans-78"/>
      <use x="401.123047" xlink:href="#DejaVuSans-101"/>
      <use x="462.646484" xlink:href="#DejaVuSans-116"/>
      <use x="501.855469" xlink:href="#DejaVuSans-32"/>
      <use x="533.642578" xlink:href="#DejaVuSans-84"/>
      <use x="594.460938" xlink:href="#DejaVuSans-101"/>
      <use x="655.984375" xlink:href="#DejaVuSans-115"/>
      <use x="708.083984" xlink:href="#DejaVuSans-116"/>
     </g>
    </g>
   </g>
  </g>
 </g>
 <defs>
  <clipPath id="p4221b55e2c">
   <rect height="528.4" width="764.738" x="39.8" y="10.8"/>
  </clipPath>
 </defs>
</svg>
