<?xml version="1.0" encoding="utf-8" standalone="no"?>
<!DOCTYPE svg PUBLIC "-//W3C//DTD SVG 1.1//EN"
  "http://www.w3.org/Graphics/SVG/1.1/DTD/svg11.dtd">
<!-- Created with matplotlib (https://matplotlib.org/) -->
<svg height="576pt" version="1.1" viewBox="0 0 1008 576" width="1008pt" xmlns="http://www.w3.org/2000/svg" xmlns:xlink="http://www.w3.org/1999/xlink">
 <metadata>
  <rdf:RDF xmlns:cc="http://creativecommons.org/ns#" xmlns:dc="http://purl.org/dc/elements/1.1/" xmlns:rdf="http://www.w3.org/1999/02/22-rdf-syntax-ns#">
   <cc:Work>
    <dc:type rdf:resource="http://purl.org/dc/dcmitype/StillImage"/>
    <dc:date>2020-09-03T17:41:01.237059</dc:date>
    <dc:format>image/svg+xml</dc:format>
    <dc:creator>
     <cc:Agent>
      <dc:title>Matplotlib v3.3.1, https://matplotlib.org/</dc:title>
     </cc:Agent>
    </dc:creator>
   </cc:Work>
  </rdf:RDF>
 </metadata>
 <defs>
  <style type="text/css">*{stroke-linecap:butt;stroke-linejoin:round;}</style>
 </defs>
 <g id="figure_1">
  <g id="patch_1">
   <path d="M 0 576 
L 1008 576 
L 1008 0 
L 0 0 
z
" style="fill:#ffffff;"/>
  </g>
  <g id="axes_1">
   <g id="patch_2">
    <path d="M 39.8 539.2 
L 816.143732 539.2 
L 816.143732 10.8 
L 39.8 10.8 
z
" style="fill:#ffffff;"/>
   </g>
   <g id="matplotlib.axis_1">
    <g id="xtick_1"/>
    <g id="xtick_2"/>
    <g id="xtick_3"/>
    <g id="xtick_4"/>
    <g id="xtick_5"/>
    <g id="xtick_6"/>
    <g id="xtick_7"/>
    <g id="xtick_8"/>
    <g id="xtick_9"/>
    <g id="xtick_10"/>
    <g id="xtick_11"/>
    <g id="xtick_12"/>
    <g id="xtick_13"/>
    <g id="xtick_14"/>
    <g id="xtick_15"/>
    <g id="xtick_16"/>
    <g id="xtick_17"/>
    <g id="xtick_18"/>
    <g id="xtick_19"/>
    <g id="text_1">
     <!-- MSE -->
     <g style="fill:#262626;" transform="translate(410.635616 561.6525)scale(0.16 -0.16)">
      <defs>
       <path d="M 7.421875 0 
L 7.421875 71.578125 
L 21.6875 71.578125 
L 38.625 20.90625 
Q 40.96875 13.8125 42.046875 10.296875 
Q 43.265625 14.203125 45.84375 21.78125 
L 62.984375 71.578125 
L 75.734375 71.578125 
L 75.734375 0 
L 66.609375 0 
L 66.609375 59.90625 
L 45.796875 0 
L 37.25 0 
L 16.546875 60.9375 
L 16.546875 0 
z
" id="ArialMT-77"/>
       <path d="M 4.5 23 
L 13.421875 23.78125 
Q 14.0625 18.40625 16.375 14.96875 
Q 18.703125 11.53125 23.578125 9.40625 
Q 28.46875 7.28125 34.578125 7.28125 
Q 39.984375 7.28125 44.140625 8.890625 
Q 48.296875 10.5 50.3125 13.296875 
Q 52.34375 16.109375 52.34375 19.4375 
Q 52.34375 22.796875 50.390625 25.3125 
Q 48.4375 27.828125 43.953125 29.546875 
Q 41.0625 30.671875 31.203125 33.03125 
Q 21.34375 35.40625 17.390625 37.5 
Q 12.25 40.1875 9.734375 44.15625 
Q 7.234375 48.140625 7.234375 53.078125 
Q 7.234375 58.5 10.296875 63.203125 
Q 13.375 67.921875 19.28125 70.359375 
Q 25.203125 72.796875 32.421875 72.796875 
Q 40.375 72.796875 46.453125 70.234375 
Q 52.546875 67.671875 55.8125 62.6875 
Q 59.078125 57.71875 59.328125 51.421875 
L 50.25 50.734375 
Q 49.515625 57.515625 45.28125 60.984375 
Q 41.0625 64.453125 32.8125 64.453125 
Q 24.21875 64.453125 20.28125 61.296875 
Q 16.359375 58.15625 16.359375 53.71875 
Q 16.359375 49.859375 19.140625 47.359375 
Q 21.875 44.875 33.421875 42.265625 
Q 44.96875 39.65625 49.265625 37.703125 
Q 55.515625 34.8125 58.484375 30.390625 
Q 61.46875 25.984375 61.46875 20.21875 
Q 61.46875 14.5 58.203125 9.4375 
Q 54.9375 4.390625 48.796875 1.578125 
Q 42.671875 -1.21875 35.015625 -1.21875 
Q 25.296875 -1.21875 18.71875 1.609375 
Q 12.15625 4.4375 8.421875 10.125 
Q 4.6875 15.828125 4.5 23 
z
" id="ArialMT-83"/>
       <path d="M 7.90625 0 
L 7.90625 71.578125 
L 59.671875 71.578125 
L 59.671875 63.140625 
L 17.390625 63.140625 
L 17.390625 41.21875 
L 56.984375 41.21875 
L 56.984375 32.8125 
L 17.390625 32.8125 
L 17.390625 8.453125 
L 61.328125 8.453125 
L 61.328125 0 
z
" id="ArialMT-69"/>
      </defs>
      <use xlink:href="#ArialMT-77"/>
      <use x="83.300781" xlink:href="#ArialMT-83"/>
      <use x="150" xlink:href="#ArialMT-69"/>
     </g>
    </g>
   </g>
   <g id="matplotlib.axis_2">
    <g id="ytick_1"/>
    <g id="ytick_2"/>
    <g id="ytick_3"/>
    <g id="ytick_4"/>
    <g id="ytick_5"/>
    <g id="ytick_6"/>
    <g id="ytick_7"/>
    <g id="ytick_8"/>
    <g id="ytick_9"/>
    <g id="ytick_10"/>
    <g id="ytick_11"/>
    <g id="ytick_12"/>
    <g id="ytick_13"/>
    <g id="ytick_14"/>
    <g id="ytick_15"/>
    <g id="ytick_16"/>
    <g id="ytick_17"/>
    <g id="ytick_18"/>
    <g id="ytick_19"/>
    <g id="ytick_20"/>
    <g id="ytick_21"/>
    <g id="ytick_22"/>
    <g id="text_2">
     <!-- Complexity -->
     <g style="fill:#262626;" transform="translate(25.011563 319.510625)rotate(-90)scale(0.18 -0.18)">
      <defs>
       <path d="M 58.796875 25.09375 
L 68.265625 22.703125 
Q 65.28125 11.03125 57.546875 4.90625 
Q 49.8125 -1.21875 38.625 -1.21875 
Q 27.046875 -1.21875 19.796875 3.484375 
Q 12.546875 8.203125 8.765625 17.140625 
Q 4.984375 26.078125 4.984375 36.328125 
Q 4.984375 47.515625 9.25 55.828125 
Q 13.53125 64.15625 21.40625 68.46875 
Q 29.296875 72.796875 38.765625 72.796875 
Q 49.515625 72.796875 56.828125 67.328125 
Q 64.15625 61.859375 67.046875 51.953125 
L 57.71875 49.75 
Q 55.21875 57.5625 50.484375 61.125 
Q 45.75 64.703125 38.578125 64.703125 
Q 30.328125 64.703125 24.78125 60.734375 
Q 19.234375 56.78125 16.984375 50.109375 
Q 14.75 43.453125 14.75 36.375 
Q 14.75 27.25 17.40625 20.4375 
Q 20.0625 13.625 25.671875 10.25 
Q 31.296875 6.890625 37.84375 6.890625 
Q 45.796875 6.890625 51.3125 11.46875 
Q 56.84375 16.0625 58.796875 25.09375 
z
" id="ArialMT-67"/>
       <path d="M 3.328125 25.921875 
Q 3.328125 40.328125 11.328125 47.265625 
Q 18.015625 53.03125 27.640625 53.03125 
Q 38.328125 53.03125 45.109375 46.015625 
Q 51.90625 39.015625 51.90625 26.65625 
Q 51.90625 16.65625 48.90625 10.90625 
Q 45.90625 5.171875 40.15625 2 
Q 34.421875 -1.171875 27.640625 -1.171875 
Q 16.75 -1.171875 10.03125 5.8125 
Q 3.328125 12.796875 3.328125 25.921875 
z
M 12.359375 25.921875 
Q 12.359375 15.96875 16.703125 11.015625 
Q 21.046875 6.0625 27.640625 6.0625 
Q 34.1875 6.0625 38.53125 11.03125 
Q 42.875 16.015625 42.875 26.21875 
Q 42.875 35.84375 38.5 40.796875 
Q 34.125 45.75 27.640625 45.75 
Q 21.046875 45.75 16.703125 40.8125 
Q 12.359375 35.890625 12.359375 25.921875 
z
" id="ArialMT-111"/>
       <path d="M 6.59375 0 
L 6.59375 51.859375 
L 14.453125 51.859375 
L 14.453125 44.578125 
Q 16.890625 48.390625 20.9375 50.703125 
Q 25 53.03125 30.171875 53.03125 
Q 35.9375 53.03125 39.625 50.640625 
Q 43.3125 48.25 44.828125 43.953125 
Q 50.984375 53.03125 60.84375 53.03125 
Q 68.5625 53.03125 72.703125 48.75 
Q 76.859375 44.484375 76.859375 35.59375 
L 76.859375 0 
L 68.109375 0 
L 68.109375 32.671875 
Q 68.109375 37.9375 67.25 40.25 
Q 66.40625 42.578125 64.15625 43.984375 
Q 61.921875 45.40625 58.890625 45.40625 
Q 53.421875 45.40625 49.796875 41.765625 
Q 46.1875 38.140625 46.1875 30.125 
L 46.1875 0 
L 37.40625 0 
L 37.40625 33.6875 
Q 37.40625 39.546875 35.25 42.46875 
Q 33.109375 45.40625 28.21875 45.40625 
Q 24.515625 45.40625 21.359375 43.453125 
Q 18.21875 41.5 16.796875 37.734375 
Q 15.375 33.984375 15.375 26.90625 
L 15.375 0 
z
" id="ArialMT-109"/>
       <path d="M 6.59375 -19.875 
L 6.59375 51.859375 
L 14.59375 51.859375 
L 14.59375 45.125 
Q 17.4375 49.078125 21 51.046875 
Q 24.5625 53.03125 29.640625 53.03125 
Q 36.28125 53.03125 41.359375 49.609375 
Q 46.4375 46.1875 49.015625 39.953125 
Q 51.609375 33.734375 51.609375 26.3125 
Q 51.609375 18.359375 48.75 11.984375 
Q 45.90625 5.609375 40.453125 2.21875 
Q 35.015625 -1.171875 29 -1.171875 
Q 24.609375 -1.171875 21.109375 0.6875 
Q 17.625 2.546875 15.375 5.375 
L 15.375 -19.875 
z
M 14.546875 25.640625 
Q 14.546875 15.625 18.59375 10.84375 
Q 22.65625 6.0625 28.421875 6.0625 
Q 34.28125 6.0625 38.453125 11.015625 
Q 42.625 15.96875 42.625 26.375 
Q 42.625 36.28125 38.546875 41.203125 
Q 34.46875 46.140625 28.8125 46.140625 
Q 23.1875 46.140625 18.859375 40.890625 
Q 14.546875 35.640625 14.546875 25.640625 
z
" id="ArialMT-112"/>
       <path d="M 6.390625 0 
L 6.390625 71.578125 
L 15.1875 71.578125 
L 15.1875 0 
z
" id="ArialMT-108"/>
       <path d="M 42.09375 16.703125 
L 51.171875 15.578125 
Q 49.03125 7.625 43.21875 3.21875 
Q 37.40625 -1.171875 28.375 -1.171875 
Q 17 -1.171875 10.328125 5.828125 
Q 3.65625 12.84375 3.65625 25.484375 
Q 3.65625 38.578125 10.390625 45.796875 
Q 17.140625 53.03125 27.875 53.03125 
Q 38.28125 53.03125 44.875 45.953125 
Q 51.46875 38.875 51.46875 26.03125 
Q 51.46875 25.25 51.421875 23.6875 
L 12.75 23.6875 
Q 13.234375 15.140625 17.578125 10.59375 
Q 21.921875 6.0625 28.421875 6.0625 
Q 33.25 6.0625 36.671875 8.59375 
Q 40.09375 11.140625 42.09375 16.703125 
z
M 13.234375 30.90625 
L 42.1875 30.90625 
Q 41.609375 37.453125 38.875 40.71875 
Q 34.671875 45.796875 27.984375 45.796875 
Q 21.921875 45.796875 17.796875 41.75 
Q 13.671875 37.703125 13.234375 30.90625 
z
" id="ArialMT-101"/>
       <path d="M 0.734375 0 
L 19.671875 26.953125 
L 2.15625 51.859375 
L 13.140625 51.859375 
L 21.09375 39.703125 
Q 23.34375 36.234375 24.703125 33.890625 
Q 26.859375 37.109375 28.65625 39.59375 
L 37.40625 51.859375 
L 47.90625 51.859375 
L 29.984375 27.4375 
L 49.265625 0 
L 38.484375 0 
L 27.828125 16.109375 
L 25 20.453125 
L 11.375 0 
z
" id="ArialMT-120"/>
       <path d="M 6.640625 61.46875 
L 6.640625 71.578125 
L 15.4375 71.578125 
L 15.4375 61.46875 
z
M 6.640625 0 
L 6.640625 51.859375 
L 15.4375 51.859375 
L 15.4375 0 
z
" id="ArialMT-105"/>
       <path d="M 25.78125 7.859375 
L 27.046875 0.09375 
Q 23.34375 -0.6875 20.40625 -0.6875 
Q 15.625 -0.6875 12.984375 0.828125 
Q 10.359375 2.34375 9.28125 4.8125 
Q 8.203125 7.28125 8.203125 15.1875 
L 8.203125 45.015625 
L 1.765625 45.015625 
L 1.765625 51.859375 
L 8.203125 51.859375 
L 8.203125 64.703125 
L 16.9375 69.96875 
L 16.9375 51.859375 
L 25.78125 51.859375 
L 25.78125 45.015625 
L 16.9375 45.015625 
L 16.9375 14.703125 
Q 16.9375 10.9375 17.40625 9.859375 
Q 17.875 8.796875 18.921875 8.15625 
Q 19.96875 7.515625 21.921875 7.515625 
Q 23.390625 7.515625 25.78125 7.859375 
z
" id="ArialMT-116"/>
       <path d="M 6.203125 -19.96875 
L 5.21875 -11.71875 
Q 8.109375 -12.5 10.25 -12.5 
Q 13.1875 -12.5 14.9375 -11.515625 
Q 16.703125 -10.546875 17.828125 -8.796875 
Q 18.65625 -7.46875 20.515625 -2.25 
Q 20.75 -1.515625 21.296875 -0.09375 
L 1.609375 51.859375 
L 11.078125 51.859375 
L 21.875 21.828125 
Q 23.96875 16.109375 25.640625 9.8125 
Q 27.15625 15.875 29.25 21.625 
L 40.328125 51.859375 
L 49.125 51.859375 
L 29.390625 -0.875 
Q 26.21875 -9.421875 24.46875 -12.640625 
Q 22.125 -17 19.09375 -19.015625 
Q 16.0625 -21.046875 11.859375 -21.046875 
Q 9.328125 -21.046875 6.203125 -19.96875 
z
" id="ArialMT-121"/>
      </defs>
      <use xlink:href="#ArialMT-67"/>
      <use x="72.216797" xlink:href="#ArialMT-111"/>
      <use x="127.832031" xlink:href="#ArialMT-109"/>
      <use x="211.132812" xlink:href="#ArialMT-112"/>
      <use x="266.748047" xlink:href="#ArialMT-108"/>
      <use x="288.964844" xlink:href="#ArialMT-101"/>
      <use x="344.580078" xlink:href="#ArialMT-120"/>
      <use x="394.580078" xlink:href="#ArialMT-105"/>
      <use x="416.796875" xlink:href="#ArialMT-116"/>
      <use x="444.580078" xlink:href="#ArialMT-121"/>
     </g>
    </g>
   </g>
   <g id="line2d_1">
    <path clip-path="url(#p04314d6135)" d="M 450.195281 515.181818 
L 348.681025 449.575651 
L 343.989542 411.198504 
L 342.380642 383.969484 
L 254.388715 331.002023 
L 252.147439 318.363318 
L 237.664325 307.21519 
L 232.619297 297.242849 
L 232.153276 279.98617 
L 210.354365 272.410153 
L 209.301067 258.865702 
L 197.633981 252.757151 
L 196.669928 241.609023 
L 191.023152 236.491577 
L 182.28612 227.018708 
L 173.784495 214.380003 
L 173.649958 203.231875 
L 173.432595 199.789689 
L 171.63353 196.468306 
L 155.613211 193.259535 
L 154.845881 187.150984 
L 152.699626 181.412882 
L 137.897476 176.002856 
L 135.276718 173.409551 
L 121.460213 170.88541 
L 120.932135 166.030516 
L 118.634109 161.412542 
L 106.014436 159.185387 
L 104.779653 144.910047 
L 104.149067 139.394913 
L 102.589677 130.86214 
L 102.47529 120.077351 
L 92.791899 118.632289 
L 92.320919 114.424943 
L 91.094668 109.091155 
L 88.636849 106.5329 
L 85.909027 104.041975 
L 83.991 102.820671 
L 82.376663 96.939917 
L 82.342734 61.261722 
L 80.672178 35.411599 
" style="fill:none;stroke:#ff0000;stroke-dasharray:5.55,2.4;stroke-dashoffset:0;stroke-width:1.5;"/>
    <defs>
     <path d="M 0 3 
C 0.795609 3 1.55874 2.683901 2.12132 2.12132 
C 2.683901 1.55874 3 0.795609 3 0 
C 3 -0.795609 2.683901 -1.55874 2.12132 -2.12132 
C 1.55874 -2.683901 0.795609 -3 0 -3 
C -0.795609 -3 -1.55874 -2.683901 -2.12132 -2.12132 
C -2.683901 -1.55874 -3 -0.795609 -3 0 
C -3 0.795609 -2.683901 1.55874 -2.12132 2.12132 
C -1.55874 2.683901 -0.795609 3 0 3 
z
" id="m59424683b4" style="stroke:#ff0000;"/>
    </defs>
    <g clip-path="url(#p04314d6135)">
     <use style="fill:#ff0000;stroke:#ff0000;" x="450.195281" xlink:href="#m59424683b4" y="515.181818"/>
     <use style="fill:#ff0000;stroke:#ff0000;" x="348.681025" xlink:href="#m59424683b4" y="449.575651"/>
     <use style="fill:#ff0000;stroke:#ff0000;" x="343.989542" xlink:href="#m59424683b4" y="411.198504"/>
     <use style="fill:#ff0000;stroke:#ff0000;" x="342.380642" xlink:href="#m59424683b4" y="383.969484"/>
     <use style="fill:#ff0000;stroke:#ff0000;" x="254.388715" xlink:href="#m59424683b4" y="331.002023"/>
     <use style="fill:#ff0000;stroke:#ff0000;" x="252.147439" xlink:href="#m59424683b4" y="318.363318"/>
     <use style="fill:#ff0000;stroke:#ff0000;" x="237.664325" xlink:href="#m59424683b4" y="307.21519"/>
     <use style="fill:#ff0000;stroke:#ff0000;" x="232.619297" xlink:href="#m59424683b4" y="297.242849"/>
     <use style="fill:#ff0000;stroke:#ff0000;" x="232.153276" xlink:href="#m59424683b4" y="279.98617"/>
     <use style="fill:#ff0000;stroke:#ff0000;" x="210.354365" xlink:href="#m59424683b4" y="272.410153"/>
     <use style="fill:#ff0000;stroke:#ff0000;" x="209.301067" xlink:href="#m59424683b4" y="258.865702"/>
     <use style="fill:#ff0000;stroke:#ff0000;" x="197.633981" xlink:href="#m59424683b4" y="252.757151"/>
     <use style="fill:#ff0000;stroke:#ff0000;" x="196.669928" xlink:href="#m59424683b4" y="241.609023"/>
     <use style="fill:#ff0000;stroke:#ff0000;" x="191.023152" xlink:href="#m59424683b4" y="236.491577"/>
     <use style="fill:#ff0000;stroke:#ff0000;" x="182.28612" xlink:href="#m59424683b4" y="227.018708"/>
     <use style="fill:#ff0000;stroke:#ff0000;" x="173.784495" xlink:href="#m59424683b4" y="214.380003"/>
     <use style="fill:#ff0000;stroke:#ff0000;" x="173.649958" xlink:href="#m59424683b4" y="203.231875"/>
     <use style="fill:#ff0000;stroke:#ff0000;" x="173.432595" xlink:href="#m59424683b4" y="199.789689"/>
     <use style="fill:#ff0000;stroke:#ff0000;" x="171.63353" xlink:href="#m59424683b4" y="196.468306"/>
     <use style="fill:#ff0000;stroke:#ff0000;" x="155.613211" xlink:href="#m59424683b4" y="193.259535"/>
     <use style="fill:#ff0000;stroke:#ff0000;" x="154.845881" xlink:href="#m59424683b4" y="187.150984"/>
     <use style="fill:#ff0000;stroke:#ff0000;" x="152.699626" xlink:href="#m59424683b4" y="181.412882"/>
     <use style="fill:#ff0000;stroke:#ff0000;" x="137.897476" xlink:href="#m59424683b4" y="176.002856"/>
     <use style="fill:#ff0000;stroke:#ff0000;" x="135.276718" xlink:href="#m59424683b4" y="173.409551"/>
     <use style="fill:#ff0000;stroke:#ff0000;" x="121.460213" xlink:href="#m59424683b4" y="170.88541"/>
     <use style="fill:#ff0000;stroke:#ff0000;" x="120.932135" xlink:href="#m59424683b4" y="166.030516"/>
     <use style="fill:#ff0000;stroke:#ff0000;" x="118.634109" xlink:href="#m59424683b4" y="161.412542"/>
     <use style="fill:#ff0000;stroke:#ff0000;" x="106.014436" xlink:href="#m59424683b4" y="159.185387"/>
     <use style="fill:#ff0000;stroke:#ff0000;" x="104.779653" xlink:href="#m59424683b4" y="144.910047"/>
     <use style="fill:#ff0000;stroke:#ff0000;" x="104.149067" xlink:href="#m59424683b4" y="139.394913"/>
     <use style="fill:#ff0000;stroke:#ff0000;" x="102.589677" xlink:href="#m59424683b4" y="130.86214"/>
     <use style="fill:#ff0000;stroke:#ff0000;" x="102.47529" xlink:href="#m59424683b4" y="120.077351"/>
     <use style="fill:#ff0000;stroke:#ff0000;" x="92.791899" xlink:href="#m59424683b4" y="118.632289"/>
     <use style="fill:#ff0000;stroke:#ff0000;" x="92.320919" xlink:href="#m59424683b4" y="114.424943"/>
     <use style="fill:#ff0000;stroke:#ff0000;" x="91.094668" xlink:href="#m59424683b4" y="109.091155"/>
     <use style="fill:#ff0000;stroke:#ff0000;" x="88.636849" xlink:href="#m59424683b4" y="106.5329"/>
     <use style="fill:#ff0000;stroke:#ff0000;" x="85.909027" xlink:href="#m59424683b4" y="104.041975"/>
     <use style="fill:#ff0000;stroke:#ff0000;" x="83.991" xlink:href="#m59424683b4" y="102.820671"/>
     <use style="fill:#ff0000;stroke:#ff0000;" x="82.376663" xlink:href="#m59424683b4" y="96.939917"/>
     <use style="fill:#ff0000;stroke:#ff0000;" x="82.342734" xlink:href="#m59424683b4" y="61.261722"/>
     <use style="fill:#ff0000;stroke:#ff0000;" x="80.672178" xlink:href="#m59424683b4" y="35.411599"/>
    </g>
   </g>
   <g id="line2d_2">
    <path clip-path="url(#p04314d6135)" d="M 397.774591 515.181818 
L 343.265496 449.575651 
L 340.414628 411.198504 
L 332.210562 383.969484 
L 253.707762 331.002023 
L 236.841876 318.363318 
L 236.144745 307.21519 
L 202.273491 297.242849 
L 200.879504 279.98617 
L 192.174812 272.410153 
L 180.731789 258.865702 
L 188.180067 252.757151 
L 237.15558 241.609023 
L 208.978977 236.491577 
L 202.841312 227.018708 
L 247.968413 214.380003 
L 367.649146 203.231875 
L 288.388113 199.789689 
L 165.388798 196.468306 
L 234.27105 193.259535 
L 229.234976 187.150984 
L 208.520598 181.412882 
L 147.942431 176.002856 
L 158.688206 173.409551 
L 141.953152 170.88541 
L 142.493815 166.030516 
L 141.467347 161.412542 
L 220.762081 159.185387 
L 149.336545 144.910047 
L 189.753781 139.394913 
L 172.102834 130.86214 
L 344.406142 120.077351 
L 130.832872 118.632289 
L 145.037668 114.424943 
L 117.313813 109.091155 
L 415.954428 106.5329 
L 308.445234 104.041975 
L 479.974988 102.820671 
L 168.046218 96.939917 
L 132.986665 61.261722 
L 717.665454 35.411599 
" style="fill:none;stroke:#0000ff;stroke-dasharray:5.55,2.4;stroke-dashoffset:0;stroke-width:1.5;"/>
    <defs>
     <path d="M -3 3 
L 3 -3 
M -3 -3 
L 3 3 
" id="m362cabb743" style="stroke:#0000ff;"/>
    </defs>
    <g clip-path="url(#p04314d6135)">
     <use style="fill:#0000ff;stroke:#0000ff;" x="397.774591" xlink:href="#m362cabb743" y="515.181818"/>
     <use style="fill:#0000ff;stroke:#0000ff;" x="343.265496" xlink:href="#m362cabb743" y="449.575651"/>
     <use style="fill:#0000ff;stroke:#0000ff;" x="340.414628" xlink:href="#m362cabb743" y="411.198504"/>
     <use style="fill:#0000ff;stroke:#0000ff;" x="332.210562" xlink:href="#m362cabb743" y="383.969484"/>
     <use style="fill:#0000ff;stroke:#0000ff;" x="253.707762" xlink:href="#m362cabb743" y="331.002023"/>
     <use style="fill:#0000ff;stroke:#0000ff;" x="236.841876" xlink:href="#m362cabb743" y="318.363318"/>
     <use style="fill:#0000ff;stroke:#0000ff;" x="236.144745" xlink:href="#m362cabb743" y="307.21519"/>
     <use style="fill:#0000ff;stroke:#0000ff;" x="202.273491" xlink:href="#m362cabb743" y="297.242849"/>
     <use style="fill:#0000ff;stroke:#0000ff;" x="200.879504" xlink:href="#m362cabb743" y="279.98617"/>
     <use style="fill:#0000ff;stroke:#0000ff;" x="192.174812" xlink:href="#m362cabb743" y="272.410153"/>
     <use style="fill:#0000ff;stroke:#0000ff;" x="180.731789" xlink:href="#m362cabb743" y="258.865702"/>
     <use style="fill:#0000ff;stroke:#0000ff;" x="188.180067" xlink:href="#m362cabb743" y="252.757151"/>
     <use style="fill:#0000ff;stroke:#0000ff;" x="237.15558" xlink:href="#m362cabb743" y="241.609023"/>
     <use style="fill:#0000ff;stroke:#0000ff;" x="208.978977" xlink:href="#m362cabb743" y="236.491577"/>
     <use style="fill:#0000ff;stroke:#0000ff;" x="202.841312" xlink:href="#m362cabb743" y="227.018708"/>
     <use style="fill:#0000ff;stroke:#0000ff;" x="247.968413" xlink:href="#m362cabb743" y="214.380003"/>
     <use style="fill:#0000ff;stroke:#0000ff;" x="367.649146" xlink:href="#m362cabb743" y="203.231875"/>
     <use style="fill:#0000ff;stroke:#0000ff;" x="288.388113" xlink:href="#m362cabb743" y="199.789689"/>
     <use style="fill:#0000ff;stroke:#0000ff;" x="165.388798" xlink:href="#m362cabb743" y="196.468306"/>
     <use style="fill:#0000ff;stroke:#0000ff;" x="234.27105" xlink:href="#m362cabb743" y="193.259535"/>
     <use style="fill:#0000ff;stroke:#0000ff;" x="229.234976" xlink:href="#m362cabb743" y="187.150984"/>
     <use style="fill:#0000ff;stroke:#0000ff;" x="208.520598" xlink:href="#m362cabb743" y="181.412882"/>
     <use style="fill:#0000ff;stroke:#0000ff;" x="147.942431" xlink:href="#m362cabb743" y="176.002856"/>
     <use style="fill:#0000ff;stroke:#0000ff;" x="158.688206" xlink:href="#m362cabb743" y="173.409551"/>
     <use style="fill:#0000ff;stroke:#0000ff;" x="141.953152" xlink:href="#m362cabb743" y="170.88541"/>
     <use style="fill:#0000ff;stroke:#0000ff;" x="142.493815" xlink:href="#m362cabb743" y="166.030516"/>
     <use style="fill:#0000ff;stroke:#0000ff;" x="141.467347" xlink:href="#m362cabb743" y="161.412542"/>
     <use style="fill:#0000ff;stroke:#0000ff;" x="220.762081" xlink:href="#m362cabb743" y="159.185387"/>
     <use style="fill:#0000ff;stroke:#0000ff;" x="149.336545" xlink:href="#m362cabb743" y="144.910047"/>
     <use style="fill:#0000ff;stroke:#0000ff;" x="189.753781" xlink:href="#m362cabb743" y="139.394913"/>
     <use style="fill:#0000ff;stroke:#0000ff;" x="172.102834" xlink:href="#m362cabb743" y="130.86214"/>
     <use style="fill:#0000ff;stroke:#0000ff;" x="344.406142" xlink:href="#m362cabb743" y="120.077351"/>
     <use style="fill:#0000ff;stroke:#0000ff;" x="130.832872" xlink:href="#m362cabb743" y="118.632289"/>
     <use style="fill:#0000ff;stroke:#0000ff;" x="145.037668" xlink:href="#m362cabb743" y="114.424943"/>
     <use style="fill:#0000ff;stroke:#0000ff;" x="117.313813" xlink:href="#m362cabb743" y="109.091155"/>
     <use style="fill:#0000ff;stroke:#0000ff;" x="415.954428" xlink:href="#m362cabb743" y="106.5329"/>
     <use style="fill:#0000ff;stroke:#0000ff;" x="308.445234" xlink:href="#m362cabb743" y="104.041975"/>
     <use style="fill:#0000ff;stroke:#0000ff;" x="479.974988" xlink:href="#m362cabb743" y="102.820671"/>
     <use style="fill:#0000ff;stroke:#0000ff;" x="168.046218" xlink:href="#m362cabb743" y="96.939917"/>
     <use style="fill:#0000ff;stroke:#0000ff;" x="132.986665" xlink:href="#m362cabb743" y="61.261722"/>
     <use style="fill:#0000ff;stroke:#0000ff;" x="717.665454" xlink:href="#m362cabb743" y="35.411599"/>
    </g>
   </g>
   <g id="line2d_3">
    <defs>
     <path d="M -8 8 
L 8 8 
L 8 -8 
L -8 -8 
z
" id="ma462da7623" style="stroke:#000000;stroke-linejoin:miter;"/>
    </defs>
    <g clip-path="url(#p04314d6135)">
     <use style="fill-opacity:0;stroke:#000000;stroke-linejoin:miter;" x="117.313813" xlink:href="#ma462da7623" y="109.091155"/>
    </g>
   </g>
   <g id="line2d_4">
    <path clip-path="url(#p04314d6135)" d="M 173.604641 577 
L 173.604641 34.818182 
" style="fill:none;stroke:#000000;stroke-dasharray:5.55,2.4;stroke-dashoffset:0;stroke-opacity:0.5;stroke-width:1.5;"/>
   </g>
   <g id="line2d_5">
    <path clip-path="url(#p04314d6135)" d="M 200.697347 577 
L 200.697347 34.818182 
" style="fill:none;stroke:#008000;stroke-dasharray:9.6,2.4,1.5,2.4;stroke-dashoffset:0;stroke-opacity:0.5;stroke-width:1.5;"/>
    <defs>
     <path d="M -3 3 
L 3 -3 
M -3 -3 
L 3 3 
" id="m5d8d5e3bae" style="stroke:#008000;stroke-opacity:0.5;"/>
    </defs>
    <g clip-path="url(#p04314d6135)">
     <use style="fill:#008000;fill-opacity:0.5;stroke:#008000;stroke-opacity:0.5;" x="200.697347" xlink:href="#m5d8d5e3bae" y="41473"/>
     <use style="fill:#008000;fill-opacity:0.5;stroke:#008000;stroke-opacity:0.5;" x="200.697347" xlink:href="#m5d8d5e3bae" y="34.818182"/>
    </g>
   </g>
   <g id="line2d_6">
    <path clip-path="url(#p04314d6135)" d="M 343.241473 577 
L 343.241473 34.818182 
" style="fill:none;stroke:#bf00bf;stroke-linecap:round;stroke-opacity:0.5;stroke-width:1.5;"/>
    <defs>
     <path d="M -3 3 
L 3 3 
L 3 -3 
L -3 -3 
z
" id="m8469207f0e" style="stroke:#bf00bf;stroke-linejoin:miter;stroke-opacity:0.5;"/>
    </defs>
    <g clip-path="url(#p04314d6135)">
     <use style="fill:#bf00bf;fill-opacity:0.5;stroke:#bf00bf;stroke-linejoin:miter;stroke-opacity:0.5;" x="343.241473" xlink:href="#m8469207f0e" y="41473"/>
     <use style="fill:#bf00bf;fill-opacity:0.5;stroke:#bf00bf;stroke-linejoin:miter;stroke-opacity:0.5;" x="343.241473" xlink:href="#m8469207f0e" y="34.818182"/>
    </g>
   </g>
   <g id="patch_3">
    <path d="M 39.8 539.2 
L 39.8 10.8 
" style="fill:none;stroke:#262626;stroke-linecap:square;stroke-linejoin:miter;stroke-width:0.8;"/>
   </g>
   <g id="patch_4">
    <path d="M 816.143732 539.2 
L 816.143732 10.8 
" style="fill:none;stroke:#262626;stroke-linecap:square;stroke-linejoin:miter;stroke-width:0.8;"/>
   </g>
   <g id="patch_5">
    <path d="M 39.8 539.2 
L 816.143732 539.2 
" style="fill:none;stroke:#262626;stroke-linecap:square;stroke-linejoin:miter;stroke-width:0.8;"/>
   </g>
   <g id="patch_6">
    <path d="M 39.8 10.8 
L 816.143732 10.8 
" style="fill:none;stroke:#262626;stroke-linecap:square;stroke-linejoin:miter;stroke-width:0.8;"/>
   </g>
   <g id="text_3">
    <!-- $\leftarrow[x_1][x_3]$ -->
    <g style="fill:#262626;" transform="translate(344.802267 454.458151)scale(0.18 -0.18)">
     <defs>
      <path d="M 4.890625 29.15625 
L 4.890625 33.546875 
L 24.078125 52.734375 
L 29.9375 46.875 
L 18.5625 35.5 
L 78.078125 35.5 
L 78.078125 27.203125 
L 18.5625 27.203125 
L 29.9375 15.828125 
L 24.078125 9.96875 
z
" id="DejaVuSans-8592"/>
      <path d="M 8.59375 75.984375 
L 29.296875 75.984375 
L 29.296875 69 
L 17.578125 69 
L 17.578125 -6.203125 
L 29.296875 -6.203125 
L 29.296875 -13.1875 
L 8.59375 -13.1875 
z
" id="DejaVuSans-91"/>
      <path d="M 60.015625 54.6875 
L 34.90625 27.875 
L 50.296875 0 
L 39.984375 0 
L 28.421875 21.6875 
L 8.296875 0 
L -2.59375 0 
L 24.3125 28.8125 
L 10.015625 54.6875 
L 20.3125 54.6875 
L 30.8125 34.90625 
L 49.125 54.6875 
z
" id="DejaVuSans-Oblique-120"/>
      <path d="M 12.40625 8.296875 
L 28.515625 8.296875 
L 28.515625 63.921875 
L 10.984375 60.40625 
L 10.984375 69.390625 
L 28.421875 72.90625 
L 38.28125 72.90625 
L 38.28125 8.296875 
L 54.390625 8.296875 
L 54.390625 0 
L 12.40625 0 
z
" id="DejaVuSans-49"/>
      <path d="M 30.421875 75.984375 
L 30.421875 -13.1875 
L 9.71875 -13.1875 
L 9.71875 -6.203125 
L 21.390625 -6.203125 
L 21.390625 69 
L 9.71875 69 
L 9.71875 75.984375 
z
" id="DejaVuSans-93"/>
      <path d="M 40.578125 39.3125 
Q 47.65625 37.796875 51.625 33 
Q 55.609375 28.21875 55.609375 21.1875 
Q 55.609375 10.40625 48.1875 4.484375 
Q 40.765625 -1.421875 27.09375 -1.421875 
Q 22.515625 -1.421875 17.65625 -0.515625 
Q 12.796875 0.390625 7.625 2.203125 
L 7.625 11.71875 
Q 11.71875 9.328125 16.59375 8.109375 
Q 21.484375 6.890625 26.8125 6.890625 
Q 36.078125 6.890625 40.9375 10.546875 
Q 45.796875 14.203125 45.796875 21.1875 
Q 45.796875 27.640625 41.28125 31.265625 
Q 36.765625 34.90625 28.71875 34.90625 
L 20.21875 34.90625 
L 20.21875 43.015625 
L 29.109375 43.015625 
Q 36.375 43.015625 40.234375 45.921875 
Q 44.09375 48.828125 44.09375 54.296875 
Q 44.09375 59.90625 40.109375 62.90625 
Q 36.140625 65.921875 28.71875 65.921875 
Q 24.65625 65.921875 20.015625 65.03125 
Q 15.375 64.15625 9.8125 62.3125 
L 9.8125 71.09375 
Q 15.4375 72.65625 20.34375 73.4375 
Q 25.25 74.21875 29.59375 74.21875 
Q 40.828125 74.21875 47.359375 69.109375 
Q 53.90625 64.015625 53.90625 55.328125 
Q 53.90625 49.265625 50.4375 45.09375 
Q 46.96875 40.921875 40.578125 39.3125 
z
" id="DejaVuSans-51"/>
     </defs>
     <use transform="translate(19.482422 0.015625)" xlink:href="#DejaVuSans-8592"/>
     <use transform="translate(122.753906 0.015625)" xlink:href="#DejaVuSans-91"/>
     <use transform="translate(161.767578 0.015625)" xlink:href="#DejaVuSans-Oblique-120"/>
     <use transform="translate(220.947266 -16.390625)scale(0.7)" xlink:href="#DejaVuSans-49"/>
     <use transform="translate(268.217773 0.015625)" xlink:href="#DejaVuSans-93"/>
     <use transform="translate(307.231445 0.015625)" xlink:href="#DejaVuSans-91"/>
     <use transform="translate(346.245117 0.015625)" xlink:href="#DejaVuSans-Oblique-120"/>
     <use transform="translate(405.424805 -16.390625)scale(0.7)" xlink:href="#DejaVuSans-51"/>
     <use transform="translate(452.695312 0.015625)" xlink:href="#DejaVuSans-93"/>
    </g>
   </g>
   <g id="text_4">
    <!-- $\leftarrow[sin(x_1)][x_3][x_0][x_1][x_1][x_3][x_2]$ -->
    <g style="fill:#262626;" transform="translate(205.027633 284.86867)scale(0.18 -0.18)">
     <defs>
      <path d="M 50 53.078125 
L 48.296875 44.578125 
Q 44.734375 46.53125 40.765625 47.5 
Q 36.8125 48.484375 32.625 48.484375 
Q 25.53125 48.484375 21.453125 46.0625 
Q 17.390625 43.65625 17.390625 39.5 
Q 17.390625 34.671875 26.859375 32.078125 
Q 27.59375 31.890625 27.9375 31.78125 
L 30.8125 30.90625 
Q 39.796875 28.421875 42.796875 25.6875 
Q 45.796875 22.953125 45.796875 18.21875 
Q 45.796875 9.515625 38.890625 4.046875 
Q 31.984375 -1.421875 20.796875 -1.421875 
Q 16.453125 -1.421875 11.671875 -0.578125 
Q 6.890625 0.25 1.125 2 
L 2.875 11.28125 
Q 7.8125 8.734375 12.59375 7.421875 
Q 17.390625 6.109375 21.78125 6.109375 
Q 28.375 6.109375 32.5 8.9375 
Q 36.625 11.765625 36.625 16.109375 
Q 36.625 20.796875 25.78125 23.6875 
L 24.859375 23.921875 
L 21.78125 24.703125 
Q 14.9375 26.515625 11.765625 29.46875 
Q 8.59375 32.421875 8.59375 37.015625 
Q 8.59375 45.75 15.15625 50.875 
Q 21.734375 56 33.015625 56 
Q 37.453125 56 41.671875 55.265625 
Q 45.90625 54.546875 50 53.078125 
z
" id="DejaVuSans-Oblique-115"/>
      <path d="M 18.3125 75.984375 
L 27.296875 75.984375 
L 25.09375 64.59375 
L 16.109375 64.59375 
z
M 14.203125 54.6875 
L 23.1875 54.6875 
L 12.5 0 
L 3.515625 0 
z
" id="DejaVuSans-Oblique-105"/>
      <path d="M 55.71875 33.015625 
L 49.3125 0 
L 40.28125 0 
L 46.6875 32.671875 
Q 47.125 34.96875 47.359375 36.71875 
Q 47.609375 38.484375 47.609375 39.5 
Q 47.609375 43.609375 45.015625 45.890625 
Q 42.4375 48.1875 37.796875 48.1875 
Q 30.5625 48.1875 25.34375 43.375 
Q 20.125 38.578125 18.5 30.328125 
L 12.5 0 
L 3.515625 0 
L 14.109375 54.6875 
L 23.09375 54.6875 
L 21.296875 46.09375 
Q 25.046875 50.828125 30.3125 53.40625 
Q 35.59375 56 41.40625 56 
Q 48.640625 56 52.609375 52.09375 
Q 56.59375 48.1875 56.59375 41.109375 
Q 56.59375 39.359375 56.375 37.359375 
Q 56.15625 35.359375 55.71875 33.015625 
z
" id="DejaVuSans-Oblique-110"/>
      <path d="M 31 75.875 
Q 24.46875 64.65625 21.28125 53.65625 
Q 18.109375 42.671875 18.109375 31.390625 
Q 18.109375 20.125 21.3125 9.0625 
Q 24.515625 -2 31 -13.1875 
L 23.1875 -13.1875 
Q 15.875 -1.703125 12.234375 9.375 
Q 8.59375 20.453125 8.59375 31.390625 
Q 8.59375 42.28125 12.203125 53.3125 
Q 15.828125 64.359375 23.1875 75.875 
z
" id="DejaVuSans-40"/>
      <path d="M 8.015625 75.875 
L 15.828125 75.875 
Q 23.140625 64.359375 26.78125 53.3125 
Q 30.421875 42.28125 30.421875 31.390625 
Q 30.421875 20.453125 26.78125 9.375 
Q 23.140625 -1.703125 15.828125 -13.1875 
L 8.015625 -13.1875 
Q 14.5 -2 17.703125 9.0625 
Q 20.90625 20.125 20.90625 31.390625 
Q 20.90625 42.671875 17.703125 53.65625 
Q 14.5 64.65625 8.015625 75.875 
z
" id="DejaVuSans-41"/>
      <path d="M 31.78125 66.40625 
Q 24.171875 66.40625 20.328125 58.90625 
Q 16.5 51.421875 16.5 36.375 
Q 16.5 21.390625 20.328125 13.890625 
Q 24.171875 6.390625 31.78125 6.390625 
Q 39.453125 6.390625 43.28125 13.890625 
Q 47.125 21.390625 47.125 36.375 
Q 47.125 51.421875 43.28125 58.90625 
Q 39.453125 66.40625 31.78125 66.40625 
z
M 31.78125 74.21875 
Q 44.046875 74.21875 50.515625 64.515625 
Q 56.984375 54.828125 56.984375 36.375 
Q 56.984375 17.96875 50.515625 8.265625 
Q 44.046875 -1.421875 31.78125 -1.421875 
Q 19.53125 -1.421875 13.0625 8.265625 
Q 6.59375 17.96875 6.59375 36.375 
Q 6.59375 54.828125 13.0625 64.515625 
Q 19.53125 74.21875 31.78125 74.21875 
z
" id="DejaVuSans-48"/>
      <path d="M 19.1875 8.296875 
L 53.609375 8.296875 
L 53.609375 0 
L 7.328125 0 
L 7.328125 8.296875 
Q 12.9375 14.109375 22.625 23.890625 
Q 32.328125 33.6875 34.8125 36.53125 
Q 39.546875 41.84375 41.421875 45.53125 
Q 43.3125 49.21875 43.3125 52.78125 
Q 43.3125 58.59375 39.234375 62.25 
Q 35.15625 65.921875 28.609375 65.921875 
Q 23.96875 65.921875 18.8125 64.3125 
Q 13.671875 62.703125 7.8125 59.421875 
L 7.8125 69.390625 
Q 13.765625 71.78125 18.9375 73 
Q 24.125 74.21875 28.421875 74.21875 
Q 39.75 74.21875 46.484375 68.546875 
Q 53.21875 62.890625 53.21875 53.421875 
Q 53.21875 48.921875 51.53125 44.890625 
Q 49.859375 40.875 45.40625 35.40625 
Q 44.1875 33.984375 37.640625 27.21875 
Q 31.109375 20.453125 19.1875 8.296875 
z
" id="DejaVuSans-50"/>
     </defs>
     <use transform="translate(19.482422 0.015625)" xlink:href="#DejaVuSans-8592"/>
     <use transform="translate(122.753906 0.015625)" xlink:href="#DejaVuSans-91"/>
     <use transform="translate(161.767578 0.015625)" xlink:href="#DejaVuSans-Oblique-115"/>
     <use transform="translate(213.867188 0.015625)" xlink:href="#DejaVuSans-Oblique-105"/>
     <use transform="translate(241.650391 0.015625)" xlink:href="#DejaVuSans-Oblique-110"/>
     <use transform="translate(305.029297 0.015625)" xlink:href="#DejaVuSans-40"/>
     <use transform="translate(344.042969 0.015625)" xlink:href="#DejaVuSans-Oblique-120"/>
     <use transform="translate(403.222656 -16.390625)scale(0.7)" xlink:href="#DejaVuSans-49"/>
     <use transform="translate(450.493164 0.015625)" xlink:href="#DejaVuSans-41"/>
     <use transform="translate(489.506836 0.015625)" xlink:href="#DejaVuSans-93"/>
     <use transform="translate(528.520508 0.015625)" xlink:href="#DejaVuSans-91"/>
     <use transform="translate(567.53418 0.015625)" xlink:href="#DejaVuSans-Oblique-120"/>
     <use transform="translate(626.713867 -16.390625)scale(0.7)" xlink:href="#DejaVuSans-51"/>
     <use transform="translate(673.984375 0.015625)" xlink:href="#DejaVuSans-93"/>
     <use transform="translate(712.998047 0.015625)" xlink:href="#DejaVuSans-91"/>
     <use transform="translate(752.011719 0.015625)" xlink:href="#DejaVuSans-Oblique-120"/>
     <use transform="translate(811.191406 -16.390625)scale(0.7)" xlink:href="#DejaVuSans-48"/>
     <use transform="translate(858.461914 0.015625)" xlink:href="#DejaVuSans-93"/>
     <use transform="translate(897.475586 0.015625)" xlink:href="#DejaVuSans-91"/>
     <use transform="translate(936.489258 0.015625)" xlink:href="#DejaVuSans-Oblique-120"/>
     <use transform="translate(995.668945 -16.390625)scale(0.7)" xlink:href="#DejaVuSans-49"/>
     <use transform="translate(1042.939453 0.015625)" xlink:href="#DejaVuSans-93"/>
     <use transform="translate(1081.953125 0.015625)" xlink:href="#DejaVuSans-91"/>
     <use transform="translate(1120.966797 0.015625)" xlink:href="#DejaVuSans-Oblique-120"/>
     <use transform="translate(1180.146484 -16.390625)scale(0.7)" xlink:href="#DejaVuSans-49"/>
     <use transform="translate(1227.416992 0.015625)" xlink:href="#DejaVuSans-93"/>
     <use transform="translate(1266.430664 0.015625)" xlink:href="#DejaVuSans-91"/>
     <use transform="translate(1305.444336 0.015625)" xlink:href="#DejaVuSans-Oblique-120"/>
     <use transform="translate(1364.624023 -16.390625)scale(0.7)" xlink:href="#DejaVuSans-51"/>
     <use transform="translate(1411.894531 0.015625)" xlink:href="#DejaVuSans-93"/>
     <use transform="translate(1450.908203 0.015625)" xlink:href="#DejaVuSans-91"/>
     <use transform="translate(1489.921875 0.015625)" xlink:href="#DejaVuSans-Oblique-120"/>
     <use transform="translate(1549.101562 -16.390625)scale(0.7)" xlink:href="#DejaVuSans-50"/>
     <use transform="translate(1596.37207 0.015625)" xlink:href="#DejaVuSans-93"/>
    </g>
   </g>
   <g id="text_5">
    <!-- $\leftarrow[sin(x_0)][(relu(x_1)-logit(x_1))][x_2][x_1][relu(x_3)][(x_3-x_0)][(x_1)^(gauss(x_2))][NOT((x_1&lt;1.816810))]$ -->
    <g style="fill:#262626;" transform="translate(124.69825 115.481155)scale(0.18 -0.18)">
     <defs>
      <path d="M 44.578125 46.390625 
Q 43.21875 47.125 41.453125 47.515625 
Q 39.703125 47.90625 37.703125 47.90625 
Q 30.515625 47.90625 25.140625 42.453125 
Q 19.78125 37.015625 18.015625 27.875 
L 12.5 0 
L 3.515625 0 
L 14.203125 54.6875 
L 23.1875 54.6875 
L 21.484375 46.1875 
Q 25.046875 50.921875 30 53.453125 
Q 34.96875 56 40.578125 56 
Q 42.046875 56 43.453125 55.828125 
Q 44.875 55.671875 46.296875 55.28125 
z
" id="DejaVuSans-Oblique-114"/>
      <path d="M 48.09375 32.234375 
Q 48.25 33.015625 48.3125 33.84375 
Q 48.390625 34.671875 48.390625 35.5 
Q 48.390625 41.453125 44.890625 44.921875 
Q 41.40625 48.390625 35.40625 48.390625 
Q 28.71875 48.390625 23.578125 44.15625 
Q 18.453125 39.9375 15.828125 32.171875 
z
M 55.90625 25.203125 
L 14.109375 25.203125 
Q 13.8125 23.34375 13.71875 22.265625 
Q 13.625 21.1875 13.625 20.40625 
Q 13.625 13.625 17.796875 9.90625 
Q 21.96875 6.203125 29.59375 6.203125 
Q 35.453125 6.203125 40.671875 7.515625 
Q 45.90625 8.84375 50.390625 11.375 
L 48.6875 2.484375 
Q 43.84375 0.53125 38.6875 -0.4375 
Q 33.546875 -1.421875 28.21875 -1.421875 
Q 16.84375 -1.421875 10.71875 4.015625 
Q 4.59375 9.46875 4.59375 19.484375 
Q 4.59375 28.03125 7.640625 35.375 
Q 10.6875 42.71875 16.609375 48.484375 
Q 20.40625 52.09375 25.65625 54.046875 
Q 30.90625 56 36.8125 56 
Q 46.09375 56 51.578125 50.4375 
Q 57.078125 44.875 57.078125 35.5 
Q 57.078125 33.25 56.78125 30.6875 
Q 56.5 28.125 55.90625 25.203125 
z
" id="DejaVuSans-Oblique-101"/>
      <path d="M 18.3125 75.984375 
L 27.296875 75.984375 
L 12.5 0 
L 3.515625 0 
z
" id="DejaVuSans-Oblique-108"/>
      <path d="M 6.6875 21.6875 
L 13.09375 54.6875 
L 22.125 54.6875 
L 15.71875 22.015625 
Q 15.234375 19.625 15.015625 17.921875 
Q 14.796875 16.21875 14.796875 15.09375 
Q 14.796875 10.9375 17.328125 8.65625 
Q 19.875 6.390625 24.515625 6.390625 
Q 31.734375 6.390625 37 11.265625 
Q 42.28125 16.15625 43.890625 24.421875 
L 49.90625 54.6875 
L 58.890625 54.6875 
L 48.296875 0 
L 39.3125 0 
L 41.109375 8.59375 
Q 37.3125 3.8125 32.0625 1.1875 
Q 26.8125 -1.421875 20.90625 -1.421875 
Q 13.71875 -1.421875 9.71875 2.515625 
Q 5.71875 6.453125 5.71875 13.484375 
Q 5.71875 14.9375 5.953125 17.140625 
Q 6.203125 19.34375 6.6875 21.6875 
z
" id="DejaVuSans-Oblique-117"/>
      <path d="M 10.59375 35.5 
L 73.1875 35.5 
L 73.1875 27.203125 
L 10.59375 27.203125 
z
" id="DejaVuSans-8722"/>
      <path d="M 25.390625 -1.421875 
Q 15.765625 -1.421875 10.171875 4.515625 
Q 4.59375 10.453125 4.59375 20.703125 
Q 4.59375 26.65625 6.515625 32.828125 
Q 8.453125 39.015625 11.53125 43.21875 
Q 16.359375 49.75 22.3125 52.875 
Q 28.265625 56 35.796875 56 
Q 45.125 56 50.859375 50.1875 
Q 56.59375 44.390625 56.59375 35.015625 
Q 56.59375 28.515625 54.6875 22.0625 
Q 52.78125 15.625 49.703125 11.375 
Q 44.921875 4.828125 38.96875 1.703125 
Q 33.015625 -1.421875 25.390625 -1.421875 
z
M 13.921875 21 
Q 13.921875 13.578125 17.015625 9.890625 
Q 20.125 6.203125 26.421875 6.203125 
Q 35.453125 6.203125 41.375 14.078125 
Q 47.3125 21.96875 47.3125 34.078125 
Q 47.3125 41.15625 44.140625 44.765625 
Q 40.96875 48.390625 34.8125 48.390625 
Q 29.734375 48.390625 25.78125 46.015625 
Q 21.828125 43.65625 18.703125 38.8125 
Q 16.40625 35.203125 15.15625 30.5625 
Q 13.921875 25.921875 13.921875 21 
z
" id="DejaVuSans-Oblique-111"/>
      <path d="M 59.625 54.6875 
L 50.296875 6.78125 
Q 47.609375 -7.125 40.015625 -13.953125 
Q 32.421875 -20.796875 19.578125 -20.796875 
Q 14.84375 -20.796875 10.78125 -20.09375 
Q 6.734375 -19.390625 3.21875 -17.921875 
L 4.890625 -9.1875 
Q 8.203125 -11.328125 11.90625 -12.34375 
Q 15.625 -13.375 19.828125 -13.375 
Q 28.375 -13.375 33.859375 -8.703125 
Q 39.359375 -4.046875 41.109375 4.6875 
L 41.890625 8.796875 
Q 38.140625 4.5 33.15625 2.25 
Q 28.171875 0 22.40625 0 
Q 14.109375 0 9.34375 5.484375 
Q 4.59375 10.984375 4.59375 20.609375 
Q 4.59375 28.171875 7.46875 35.421875 
Q 10.359375 42.671875 15.578125 48.296875 
Q 19.046875 52 23.65625 54 
Q 28.265625 56 33.296875 56 
Q 38.8125 56 42.90625 53.4375 
Q 47.015625 50.875 49.03125 46.1875 
L 50.59375 54.6875 
z
M 46.09375 34.625 
Q 46.09375 41.265625 42.96875 44.875 
Q 39.84375 48.484375 34.078125 48.484375 
Q 30.515625 48.484375 27.296875 47.0625 
Q 24.078125 45.65625 21.78125 43.109375 
Q 18.0625 38.921875 15.984375 33.234375 
Q 13.921875 27.546875 13.921875 21.484375 
Q 13.921875 14.75 17.0625 11.125 
Q 20.21875 7.515625 26.125 7.515625 
Q 34.671875 7.515625 40.375 15.25 
Q 46.09375 23 46.09375 34.625 
z
" id="DejaVuSans-Oblique-103"/>
      <path d="M 42.28125 54.6875 
L 40.921875 47.703125 
L 23 47.703125 
L 17.1875 18.015625 
Q 16.890625 16.359375 16.75 15.234375 
Q 16.609375 14.109375 16.609375 13.484375 
Q 16.609375 10.359375 18.484375 8.9375 
Q 20.359375 7.515625 24.515625 7.515625 
L 33.59375 7.515625 
L 32.078125 0 
L 23.484375 0 
Q 15.484375 0 11.546875 3.125 
Q 7.625 6.25 7.625 12.59375 
Q 7.625 13.71875 7.765625 15.0625 
Q 7.90625 16.40625 8.203125 18.015625 
L 14.015625 47.703125 
L 6.390625 47.703125 
L 7.8125 54.6875 
L 15.28125 54.6875 
L 18.3125 70.21875 
L 27.296875 70.21875 
L 24.3125 54.6875 
z
" id="DejaVuSans-Oblique-116"/>
      <path d="M 53.71875 31.203125 
L 47.609375 0 
L 38.625 0 
L 40.28125 8.296875 
Q 36.328125 3.421875 31.265625 1 
Q 26.21875 -1.421875 20.015625 -1.421875 
Q 13.03125 -1.421875 8.5625 2.84375 
Q 4.109375 7.125 4.109375 13.8125 
Q 4.109375 23.390625 11.75 28.953125 
Q 19.390625 34.515625 32.8125 34.515625 
L 45.3125 34.515625 
L 45.796875 36.921875 
Q 45.90625 37.3125 45.953125 37.765625 
Q 46 38.234375 46 39.203125 
Q 46 43.5625 42.453125 45.96875 
Q 38.921875 48.390625 32.515625 48.390625 
Q 28.125 48.390625 23.5 47.265625 
Q 18.890625 46.140625 14.015625 43.890625 
L 15.578125 52.203125 
Q 20.65625 54.109375 25.515625 55.046875 
Q 30.375 56 34.90625 56 
Q 44.578125 56 49.625 51.796875 
Q 54.6875 47.609375 54.6875 39.59375 
Q 54.6875 37.984375 54.4375 35.8125 
Q 54.203125 33.640625 53.71875 31.203125 
z
M 44 27.484375 
L 35.015625 27.484375 
Q 23.96875 27.484375 18.671875 24.53125 
Q 13.375 21.578125 13.375 15.375 
Q 13.375 11.078125 16.078125 8.640625 
Q 18.796875 6.203125 23.578125 6.203125 
Q 30.90625 6.203125 36.375 11.453125 
Q 41.84375 16.703125 43.609375 25.484375 
z
" id="DejaVuSans-Oblique-97"/>
      <path d="M 16.890625 72.90625 
L 30.171875 72.90625 
L 50.296875 10.40625 
L 62.5 72.90625 
L 72.125 72.90625 
L 57.90625 0 
L 44.578125 0 
L 24.515625 62.890625 
L 12.3125 0 
L 2.6875 0 
z
" id="DejaVuSans-Oblique-78"/>
      <path d="M 45.609375 66.21875 
Q 37.5 66.21875 31.296875 62.28125 
Q 25.09375 58.34375 20.515625 50.296875 
Q 17.578125 45.171875 16.03125 39.40625 
Q 14.5 33.640625 14.5 27.78125 
Q 14.5 17.625 19.359375 12.109375 
Q 24.21875 6.59375 33.109375 6.59375 
Q 41.109375 6.59375 47.375 10.5625 
Q 53.65625 14.546875 58.109375 22.40625 
Q 61.078125 27.6875 62.640625 33.46875 
Q 64.203125 39.265625 64.203125 45.015625 
Q 64.203125 55.125 59.3125 60.671875 
Q 54.4375 66.21875 45.609375 66.21875 
z
M 32.8125 -1.421875 
Q 19.390625 -1.421875 11.6875 6.53125 
Q 4 14.5 4 28.328125 
Q 4 36.234375 7 44.484375 
Q 10.015625 52.734375 15.28125 59.1875 
Q 21.484375 66.75 29.09375 70.484375 
Q 36.71875 74.21875 45.90625 74.21875 
Q 59.28125 74.21875 66.984375 66.328125 
Q 74.703125 58.453125 74.703125 44.828125 
Q 74.703125 36.421875 71.765625 28.3125 
Q 68.84375 20.21875 63.375 13.625 
Q 57.125 6 49.578125 2.28125 
Q 42.046875 -1.421875 32.8125 -1.421875 
z
" id="DejaVuSans-Oblique-79"/>
      <path d="M 5.90625 72.90625 
L 67.578125 72.90625 
L 66.015625 64.59375 
L 39.984375 64.59375 
L 27.484375 0 
L 17.578125 0 
L 30.078125 64.59375 
L 4.296875 64.59375 
z
" id="DejaVuSans-Oblique-84"/>
      <path d="M 73.1875 49.21875 
L 22.796875 31.296875 
L 73.1875 13.484375 
L 73.1875 4.59375 
L 10.59375 27.296875 
L 10.59375 35.40625 
L 73.1875 58.109375 
z
" id="DejaVuSans-60"/>
      <path d="M 10.6875 12.40625 
L 21 12.40625 
L 21 0 
L 10.6875 0 
z
" id="DejaVuSans-46"/>
      <path d="M 31.78125 34.625 
Q 24.75 34.625 20.71875 30.859375 
Q 16.703125 27.09375 16.703125 20.515625 
Q 16.703125 13.921875 20.71875 10.15625 
Q 24.75 6.390625 31.78125 6.390625 
Q 38.8125 6.390625 42.859375 10.171875 
Q 46.921875 13.96875 46.921875 20.515625 
Q 46.921875 27.09375 42.890625 30.859375 
Q 38.875 34.625 31.78125 34.625 
z
M 21.921875 38.8125 
Q 15.578125 40.375 12.03125 44.71875 
Q 8.5 49.078125 8.5 55.328125 
Q 8.5 64.0625 14.71875 69.140625 
Q 20.953125 74.21875 31.78125 74.21875 
Q 42.671875 74.21875 48.875 69.140625 
Q 55.078125 64.0625 55.078125 55.328125 
Q 55.078125 49.078125 51.53125 44.71875 
Q 48 40.375 41.703125 38.8125 
Q 48.828125 37.15625 52.796875 32.3125 
Q 56.78125 27.484375 56.78125 20.515625 
Q 56.78125 9.90625 50.3125 4.234375 
Q 43.84375 -1.421875 31.78125 -1.421875 
Q 19.734375 -1.421875 13.25 4.234375 
Q 6.78125 9.90625 6.78125 20.515625 
Q 6.78125 27.484375 10.78125 32.3125 
Q 14.796875 37.15625 21.921875 38.8125 
z
M 18.3125 54.390625 
Q 18.3125 48.734375 21.84375 45.5625 
Q 25.390625 42.390625 31.78125 42.390625 
Q 38.140625 42.390625 41.71875 45.5625 
Q 45.3125 48.734375 45.3125 54.390625 
Q 45.3125 60.0625 41.71875 63.234375 
Q 38.140625 66.40625 31.78125 66.40625 
Q 25.390625 66.40625 21.84375 63.234375 
Q 18.3125 60.0625 18.3125 54.390625 
z
" id="DejaVuSans-56"/>
      <path d="M 33.015625 40.375 
Q 26.375 40.375 22.484375 35.828125 
Q 18.609375 31.296875 18.609375 23.390625 
Q 18.609375 15.53125 22.484375 10.953125 
Q 26.375 6.390625 33.015625 6.390625 
Q 39.65625 6.390625 43.53125 10.953125 
Q 47.40625 15.53125 47.40625 23.390625 
Q 47.40625 31.296875 43.53125 35.828125 
Q 39.65625 40.375 33.015625 40.375 
z
M 52.59375 71.296875 
L 52.59375 62.3125 
Q 48.875 64.0625 45.09375 64.984375 
Q 41.3125 65.921875 37.59375 65.921875 
Q 27.828125 65.921875 22.671875 59.328125 
Q 17.53125 52.734375 16.796875 39.40625 
Q 19.671875 43.65625 24.015625 45.921875 
Q 28.375 48.1875 33.59375 48.1875 
Q 44.578125 48.1875 50.953125 41.515625 
Q 57.328125 34.859375 57.328125 23.390625 
Q 57.328125 12.15625 50.6875 5.359375 
Q 44.046875 -1.421875 33.015625 -1.421875 
Q 20.359375 -1.421875 13.671875 8.265625 
Q 6.984375 17.96875 6.984375 36.375 
Q 6.984375 53.65625 15.1875 63.9375 
Q 23.390625 74.21875 37.203125 74.21875 
Q 40.921875 74.21875 44.703125 73.484375 
Q 48.484375 72.75 52.59375 71.296875 
z
" id="DejaVuSans-54"/>
     </defs>
     <use transform="translate(19.482422 0.60625)" xlink:href="#DejaVuSans-8592"/>
     <use transform="translate(122.753906 0.60625)" xlink:href="#DejaVuSans-91"/>
     <use transform="translate(161.767578 0.60625)" xlink:href="#DejaVuSans-Oblique-115"/>
     <use transform="translate(213.867188 0.60625)" xlink:href="#DejaVuSans-Oblique-105"/>
     <use transform="translate(241.650391 0.60625)" xlink:href="#DejaVuSans-Oblique-110"/>
     <use transform="translate(305.029297 0.60625)" xlink:href="#DejaVuSans-40"/>
     <use transform="translate(344.042969 0.60625)" xlink:href="#DejaVuSans-Oblique-120"/>
     <use transform="translate(403.222656 -15.8)scale(0.7)" xlink:href="#DejaVuSans-48"/>
     <use transform="translate(450.493164 0.60625)" xlink:href="#DejaVuSans-41"/>
     <use transform="translate(489.506836 0.60625)" xlink:href="#DejaVuSans-93"/>
     <use transform="translate(528.520508 0.60625)" xlink:href="#DejaVuSans-91"/>
     <use transform="translate(567.53418 0.60625)" xlink:href="#DejaVuSans-40"/>
     <use transform="translate(606.547852 0.60625)" xlink:href="#DejaVuSans-Oblique-114"/>
     <use transform="translate(647.661133 0.60625)" xlink:href="#DejaVuSans-Oblique-101"/>
     <use transform="translate(709.18457 0.60625)" xlink:href="#DejaVuSans-Oblique-108"/>
     <use transform="translate(736.967773 0.60625)" xlink:href="#DejaVuSans-Oblique-117"/>
     <use transform="translate(800.34668 0.60625)" xlink:href="#DejaVuSans-40"/>
     <use transform="translate(839.360352 0.60625)" xlink:href="#DejaVuSans-Oblique-120"/>
     <use transform="translate(898.540039 -15.8)scale(0.7)" xlink:href="#DejaVuSans-49"/>
     <use transform="translate(945.810547 0.60625)" xlink:href="#DejaVuSans-41"/>
     <use transform="translate(1004.306641 0.60625)" xlink:href="#DejaVuSans-8722"/>
     <use transform="translate(1107.578125 0.60625)" xlink:href="#DejaVuSans-Oblique-108"/>
     <use transform="translate(1135.361328 0.60625)" xlink:href="#DejaVuSans-Oblique-111"/>
     <use transform="translate(1196.542969 0.60625)" xlink:href="#DejaVuSans-Oblique-103"/>
     <use transform="translate(1260.019531 0.60625)" xlink:href="#DejaVuSans-Oblique-105"/>
     <use transform="translate(1287.802734 0.60625)" xlink:href="#DejaVuSans-Oblique-116"/>
     <use transform="translate(1327.011719 0.60625)" xlink:href="#DejaVuSans-40"/>
     <use transform="translate(1366.025391 0.60625)" xlink:href="#DejaVuSans-Oblique-120"/>
     <use transform="translate(1425.205078 -15.8)scale(0.7)" xlink:href="#DejaVuSans-49"/>
     <use transform="translate(1472.475586 0.60625)" xlink:href="#DejaVuSans-41"/>
     <use transform="translate(1511.489258 0.60625)" xlink:href="#DejaVuSans-41"/>
     <use transform="translate(1550.50293 0.60625)" xlink:href="#DejaVuSans-93"/>
     <use transform="translate(1589.516602 0.60625)" xlink:href="#DejaVuSans-91"/>
     <use transform="translate(1628.530273 0.60625)" xlink:href="#DejaVuSans-Oblique-120"/>
     <use transform="translate(1687.709961 -15.8)scale(0.7)" xlink:href="#DejaVuSans-50"/>
     <use transform="translate(1734.980469 0.60625)" xlink:href="#DejaVuSans-93"/>
     <use transform="translate(1773.994141 0.60625)" xlink:href="#DejaVuSans-91"/>
     <use transform="translate(1813.007812 0.60625)" xlink:href="#DejaVuSans-Oblique-120"/>
     <use transform="translate(1872.1875 -15.8)scale(0.7)" xlink:href="#DejaVuSans-49"/>
     <use transform="translate(1919.458008 0.60625)" xlink:href="#DejaVuSans-93"/>
     <use transform="translate(1958.47168 0.60625)" xlink:href="#DejaVuSans-91"/>
     <use transform="translate(1997.485352 0.60625)" xlink:href="#DejaVuSans-Oblique-114"/>
     <use transform="translate(2038.598633 0.60625)" xlink:href="#DejaVuSans-Oblique-101"/>
     <use transform="translate(2100.12207 0.60625)" xlink:href="#DejaVuSans-Oblique-108"/>
     <use transform="translate(2127.905273 0.60625)" xlink:href="#DejaVuSans-Oblique-117"/>
     <use transform="translate(2191.28418 0.60625)" xlink:href="#DejaVuSans-40"/>
     <use transform="translate(2230.297852 0.60625)" xlink:href="#DejaVuSans-Oblique-120"/>
     <use transform="translate(2289.477539 -15.8)scale(0.7)" xlink:href="#DejaVuSans-51"/>
     <use transform="translate(2336.748047 0.60625)" xlink:href="#DejaVuSans-41"/>
     <use transform="translate(2375.761719 0.60625)" xlink:href="#DejaVuSans-93"/>
     <use transform="translate(2414.775391 0.60625)" xlink:href="#DejaVuSans-91"/>
     <use transform="translate(2453.789062 0.60625)" xlink:href="#DejaVuSans-40"/>
     <use transform="translate(2492.802734 0.60625)" xlink:href="#DejaVuSans-Oblique-120"/>
     <use transform="translate(2551.982422 -15.8)scale(0.7)" xlink:href="#DejaVuSans-51"/>
     <use transform="translate(2618.735352 0.60625)" xlink:href="#DejaVuSans-8722"/>
     <use transform="translate(2722.006836 0.60625)" xlink:href="#DejaVuSans-Oblique-120"/>
     <use transform="translate(2781.186523 -15.8)scale(0.7)" xlink:href="#DejaVuSans-48"/>
     <use transform="translate(2828.457031 0.60625)" xlink:href="#DejaVuSans-41"/>
     <use transform="translate(2867.470703 0.60625)" xlink:href="#DejaVuSans-93"/>
     <use transform="translate(2906.484375 0.60625)" xlink:href="#DejaVuSans-91"/>
     <use transform="translate(2945.498047 0.60625)" xlink:href="#DejaVuSans-40"/>
     <use transform="translate(2984.511719 0.60625)" xlink:href="#DejaVuSans-Oblique-120"/>
     <use transform="translate(3043.691406 -15.8)scale(0.7)" xlink:href="#DejaVuSans-49"/>
     <use transform="translate(3090.961914 0.60625)" xlink:href="#DejaVuSans-41"/>
     <use transform="translate(3130.932617 38.8875)scale(0.7)" xlink:href="#DejaVuSans-40"/>
     <use transform="translate(3160.976562 0.60625)" xlink:href="#DejaVuSans-Oblique-103"/>
     <use transform="translate(3224.453125 0.60625)" xlink:href="#DejaVuSans-Oblique-97"/>
     <use transform="translate(3285.732422 0.60625)" xlink:href="#DejaVuSans-Oblique-117"/>
     <use transform="translate(3349.111328 0.60625)" xlink:href="#DejaVuSans-Oblique-115"/>
     <use transform="translate(3401.210938 0.60625)" xlink:href="#DejaVuSans-Oblique-115"/>
     <use transform="translate(3453.310547 0.60625)" xlink:href="#DejaVuSans-40"/>
     <use transform="translate(3492.324219 0.60625)" xlink:href="#DejaVuSans-Oblique-120"/>
     <use transform="translate(3551.503906 -15.8)scale(0.7)" xlink:href="#DejaVuSans-50"/>
     <use transform="translate(3598.774414 0.60625)" xlink:href="#DejaVuSans-41"/>
     <use transform="translate(3637.788086 0.60625)" xlink:href="#DejaVuSans-41"/>
     <use transform="translate(3676.801758 0.60625)" xlink:href="#DejaVuSans-93"/>
     <use transform="translate(3715.81543 0.60625)" xlink:href="#DejaVuSans-91"/>
     <use transform="translate(3754.829102 0.60625)" xlink:href="#DejaVuSans-Oblique-78"/>
     <use transform="translate(3829.633789 0.60625)" xlink:href="#DejaVuSans-Oblique-79"/>
     <use transform="translate(3908.344727 0.60625)" xlink:href="#DejaVuSans-Oblique-84"/>
     <use transform="translate(3969.428711 0.60625)" xlink:href="#DejaVuSans-40"/>
     <use transform="translate(4008.442383 0.60625)" xlink:href="#DejaVuSans-40"/>
     <use transform="translate(4047.456055 0.60625)" xlink:href="#DejaVuSans-Oblique-120"/>
     <use transform="translate(4106.635742 -15.8)scale(0.7)" xlink:href="#DejaVuSans-49"/>
     <use transform="translate(4173.388672 0.60625)" xlink:href="#DejaVuSans-60"/>
     <use transform="translate(4276.660156 0.60625)" xlink:href="#DejaVuSans-49"/>
     <use transform="translate(4340.283203 0.60625)" xlink:href="#DejaVuSans-46"/>
     <use transform="translate(4369.445312 0.60625)" xlink:href="#DejaVuSans-56"/>
     <use transform="translate(4433.068359 0.60625)" xlink:href="#DejaVuSans-49"/>
     <use transform="translate(4496.691406 0.60625)" xlink:href="#DejaVuSans-54"/>
     <use transform="translate(4560.314453 0.60625)" xlink:href="#DejaVuSans-56"/>
     <use transform="translate(4623.9375 0.60625)" xlink:href="#DejaVuSans-49"/>
     <use transform="translate(4687.560547 0.60625)" xlink:href="#DejaVuSans-48"/>
     <use transform="translate(4751.183594 0.60625)" xlink:href="#DejaVuSans-41"/>
     <use transform="translate(4790.197266 0.60625)" xlink:href="#DejaVuSans-41"/>
     <use transform="translate(4829.210938 0.60625)" xlink:href="#DejaVuSans-93"/>
    </g>
   </g>
   <g id="legend_1">
    <g id="patch_7">
     <path d="M 827.107169 407.1 
L 992.144669 407.1 
Q 995.344669 407.1 995.344669 403.9 
L 995.344669 269.705 
Q 995.344669 266.505 992.144669 266.505 
L 827.107169 266.505 
Q 823.907169 266.505 823.907169 269.705 
L 823.907169 403.9 
Q 823.907169 407.1 827.107169 407.1 
z
" style="fill:#ffffff;opacity:0.8;stroke:#cccccc;stroke-linejoin:miter;"/>
    </g>
    <g id="line2d_7">
     <path d="M 830.307169 278.7575 
L 862.307169 278.7575 
" style="fill:none;stroke:#ff0000;stroke-dasharray:5.55,2.4;stroke-dashoffset:0;stroke-width:1.5;"/>
    </g>
    <g id="line2d_8">
     <g>
      <use style="fill:#ff0000;stroke:#ff0000;" x="846.307169" xlink:href="#m59424683b4" y="278.7575"/>
     </g>
    </g>
    <g id="text_6">
     <!-- Train -->
     <g style="fill:#262626;" transform="translate(875.107169 284.3575)scale(0.16 -0.16)">
      <defs>
       <path d="M 25.921875 0 
L 25.921875 63.140625 
L 2.34375 63.140625 
L 2.34375 71.578125 
L 59.078125 71.578125 
L 59.078125 63.140625 
L 35.40625 63.140625 
L 35.40625 0 
z
" id="ArialMT-84"/>
       <path d="M 6.5 0 
L 6.5 51.859375 
L 14.40625 51.859375 
L 14.40625 44 
Q 17.4375 49.515625 20 51.265625 
Q 22.5625 53.03125 25.640625 53.03125 
Q 30.078125 53.03125 34.671875 50.203125 
L 31.640625 42.046875 
Q 28.421875 43.953125 25.203125 43.953125 
Q 22.3125 43.953125 20.015625 42.21875 
Q 17.71875 40.484375 16.75 37.40625 
Q 15.28125 32.71875 15.28125 27.15625 
L 15.28125 0 
z
" id="ArialMT-114"/>
       <path d="M 40.4375 6.390625 
Q 35.546875 2.25 31.03125 0.53125 
Q 26.515625 -1.171875 21.34375 -1.171875 
Q 12.796875 -1.171875 8.203125 3 
Q 3.609375 7.171875 3.609375 13.671875 
Q 3.609375 17.484375 5.34375 20.625 
Q 7.078125 23.78125 9.890625 25.6875 
Q 12.703125 27.59375 16.21875 28.5625 
Q 18.796875 29.25 24.03125 29.890625 
Q 34.671875 31.15625 39.703125 32.90625 
Q 39.75 34.71875 39.75 35.203125 
Q 39.75 40.578125 37.25 42.78125 
Q 33.890625 45.75 27.25 45.75 
Q 21.046875 45.75 18.09375 43.578125 
Q 15.140625 41.40625 13.71875 35.890625 
L 5.125 37.0625 
Q 6.296875 42.578125 8.984375 45.96875 
Q 11.671875 49.359375 16.75 51.1875 
Q 21.828125 53.03125 28.515625 53.03125 
Q 35.15625 53.03125 39.296875 51.46875 
Q 43.453125 49.90625 45.40625 47.53125 
Q 47.359375 45.171875 48.140625 41.546875 
Q 48.578125 39.3125 48.578125 33.453125 
L 48.578125 21.734375 
Q 48.578125 9.46875 49.140625 6.21875 
Q 49.703125 2.984375 51.375 0 
L 42.1875 0 
Q 40.828125 2.734375 40.4375 6.390625 
z
M 39.703125 26.03125 
Q 34.90625 24.078125 25.34375 22.703125 
Q 19.921875 21.921875 17.671875 20.9375 
Q 15.4375 19.96875 14.203125 18.09375 
Q 12.984375 16.21875 12.984375 13.921875 
Q 12.984375 10.40625 15.640625 8.0625 
Q 18.3125 5.71875 23.4375 5.71875 
Q 28.515625 5.71875 32.46875 7.9375 
Q 36.421875 10.15625 38.28125 14.015625 
Q 39.703125 17 39.703125 22.796875 
z
" id="ArialMT-97"/>
       <path d="M 6.59375 0 
L 6.59375 51.859375 
L 14.5 51.859375 
L 14.5 44.484375 
Q 20.21875 53.03125 31 53.03125 
Q 35.6875 53.03125 39.625 51.34375 
Q 43.5625 49.65625 45.515625 46.921875 
Q 47.46875 44.1875 48.25 40.4375 
Q 48.734375 37.984375 48.734375 31.890625 
L 48.734375 0 
L 39.9375 0 
L 39.9375 31.546875 
Q 39.9375 36.921875 38.90625 39.578125 
Q 37.890625 42.234375 35.28125 43.8125 
Q 32.671875 45.40625 29.15625 45.40625 
Q 23.53125 45.40625 19.453125 41.84375 
Q 15.375 38.28125 15.375 28.328125 
L 15.375 0 
z
" id="ArialMT-110"/>
      </defs>
      <use xlink:href="#ArialMT-84"/>
      <use x="57.333984" xlink:href="#ArialMT-114"/>
      <use x="90.634766" xlink:href="#ArialMT-97"/>
      <use x="146.25" xlink:href="#ArialMT-105"/>
      <use x="168.466797" xlink:href="#ArialMT-110"/>
     </g>
    </g>
    <g id="line2d_9">
     <path d="M 830.307169 301.39 
L 862.307169 301.39 
" style="fill:none;stroke:#0000ff;stroke-dasharray:5.55,2.4;stroke-dashoffset:0;stroke-width:1.5;"/>
    </g>
    <g id="line2d_10">
     <g>
      <use style="fill:#0000ff;stroke:#0000ff;" x="846.307169" xlink:href="#m362cabb743" y="301.39"/>
     </g>
    </g>
    <g id="text_7">
     <!-- Validation -->
     <g style="fill:#262626;" transform="translate(875.107169 306.99)scale(0.16 -0.16)">
      <defs>
       <path d="M 28.171875 0 
L 0.4375 71.578125 
L 10.6875 71.578125 
L 29.296875 19.578125 
Q 31.546875 13.328125 33.0625 7.859375 
Q 34.71875 13.71875 36.921875 19.578125 
L 56.25 71.578125 
L 65.921875 71.578125 
L 37.890625 0 
z
" id="ArialMT-86"/>
       <path d="M 40.234375 0 
L 40.234375 6.546875 
Q 35.296875 -1.171875 25.734375 -1.171875 
Q 19.53125 -1.171875 14.328125 2.25 
Q 9.125 5.671875 6.265625 11.796875 
Q 3.421875 17.921875 3.421875 25.875 
Q 3.421875 33.640625 6 39.96875 
Q 8.59375 46.296875 13.765625 49.65625 
Q 18.953125 53.03125 25.34375 53.03125 
Q 30.03125 53.03125 33.6875 51.046875 
Q 37.359375 49.078125 39.65625 45.90625 
L 39.65625 71.578125 
L 48.390625 71.578125 
L 48.390625 0 
z
M 12.453125 25.875 
Q 12.453125 15.921875 16.640625 10.984375 
Q 20.84375 6.0625 26.5625 6.0625 
Q 32.328125 6.0625 36.34375 10.765625 
Q 40.375 15.484375 40.375 25.140625 
Q 40.375 35.796875 36.265625 40.765625 
Q 32.171875 45.75 26.171875 45.75 
Q 20.3125 45.75 16.375 40.96875 
Q 12.453125 36.1875 12.453125 25.875 
z
" id="ArialMT-100"/>
      </defs>
      <use xlink:href="#ArialMT-86"/>
      <use x="59.324219" xlink:href="#ArialMT-97"/>
      <use x="114.939453" xlink:href="#ArialMT-108"/>
      <use x="137.15625" xlink:href="#ArialMT-105"/>
      <use x="159.373047" xlink:href="#ArialMT-100"/>
      <use x="214.988281" xlink:href="#ArialMT-97"/>
      <use x="270.603516" xlink:href="#ArialMT-116"/>
      <use x="298.386719" xlink:href="#ArialMT-105"/>
      <use x="320.603516" xlink:href="#ArialMT-111"/>
      <use x="376.21875" xlink:href="#ArialMT-110"/>
     </g>
    </g>
    <g id="line2d_11"/>
    <g id="line2d_12">
     <g>
      <use style="fill-opacity:0;stroke:#000000;stroke-linejoin:miter;" x="846.307169" xlink:href="#ma462da7623" y="324.0225"/>
     </g>
    </g>
    <g id="text_8">
     <!-- Model Selection -->
     <g style="fill:#262626;" transform="translate(875.107169 329.6225)scale(0.16 -0.16)">
      <defs>
       <path id="ArialMT-32"/>
       <path d="M 40.4375 19 
L 49.078125 17.875 
Q 47.65625 8.9375 41.8125 3.875 
Q 35.984375 -1.171875 27.484375 -1.171875 
Q 16.84375 -1.171875 10.375 5.78125 
Q 3.90625 12.75 3.90625 25.734375 
Q 3.90625 34.125 6.6875 40.421875 
Q 9.46875 46.734375 15.15625 49.875 
Q 20.84375 53.03125 27.546875 53.03125 
Q 35.984375 53.03125 41.359375 48.75 
Q 46.734375 44.484375 48.25 36.625 
L 39.703125 35.296875 
Q 38.484375 40.53125 35.375 43.15625 
Q 32.28125 45.796875 27.875 45.796875 
Q 21.234375 45.796875 17.078125 41.03125 
Q 12.9375 36.28125 12.9375 25.984375 
Q 12.9375 15.53125 16.9375 10.796875 
Q 20.953125 6.0625 27.390625 6.0625 
Q 32.5625 6.0625 36.03125 9.234375 
Q 39.5 12.40625 40.4375 19 
z
" id="ArialMT-99"/>
      </defs>
      <use xlink:href="#ArialMT-77"/>
      <use x="83.300781" xlink:href="#ArialMT-111"/>
      <use x="138.916016" xlink:href="#ArialMT-100"/>
      <use x="194.53125" xlink:href="#ArialMT-101"/>
      <use x="250.146484" xlink:href="#ArialMT-108"/>
      <use x="272.363281" xlink:href="#ArialMT-32"/>
      <use x="300.146484" xlink:href="#ArialMT-83"/>
      <use x="366.845703" xlink:href="#ArialMT-101"/>
      <use x="422.460938" xlink:href="#ArialMT-108"/>
      <use x="444.677734" xlink:href="#ArialMT-101"/>
      <use x="500.292969" xlink:href="#ArialMT-99"/>
      <use x="550.292969" xlink:href="#ArialMT-116"/>
      <use x="578.076172" xlink:href="#ArialMT-105"/>
      <use x="600.292969" xlink:href="#ArialMT-111"/>
      <use x="655.908203" xlink:href="#ArialMT-110"/>
     </g>
    </g>
    <g id="line2d_13">
     <path d="M 830.307169 346.655 
L 862.307169 346.655 
" style="fill:none;stroke:#000000;stroke-dasharray:5.55,2.4;stroke-dashoffset:0;stroke-opacity:0.5;stroke-width:1.5;"/>
    </g>
    <g id="line2d_14"/>
    <g id="text_9">
     <!-- FEAT Test -->
     <g style="fill:#262626;" transform="translate(875.107169 352.255)scale(0.16 -0.16)">
      <defs>
       <path d="M 8.203125 0 
L 8.203125 71.578125 
L 56.5 71.578125 
L 56.5 63.140625 
L 17.671875 63.140625 
L 17.671875 40.96875 
L 51.265625 40.96875 
L 51.265625 32.515625 
L 17.671875 32.515625 
L 17.671875 0 
z
" id="ArialMT-70"/>
       <path d="M -0.140625 0 
L 27.34375 71.578125 
L 37.546875 71.578125 
L 66.84375 0 
L 56.0625 0 
L 47.703125 21.6875 
L 17.78125 21.6875 
L 9.90625 0 
z
M 20.515625 29.390625 
L 44.78125 29.390625 
L 37.3125 49.21875 
Q 33.890625 58.25 32.234375 64.0625 
Q 30.859375 57.171875 28.375 50.390625 
z
" id="ArialMT-65"/>
       <path d="M 3.078125 15.484375 
L 11.765625 16.84375 
Q 12.5 11.625 15.84375 8.84375 
Q 19.1875 6.0625 25.203125 6.0625 
Q 31.25 6.0625 34.171875 8.515625 
Q 37.109375 10.984375 37.109375 14.3125 
Q 37.109375 17.28125 34.515625 19 
Q 32.71875 20.171875 25.53125 21.96875 
Q 15.875 24.421875 12.140625 26.203125 
Q 8.40625 27.984375 6.46875 31.125 
Q 4.546875 34.28125 4.546875 38.09375 
Q 4.546875 41.546875 6.125 44.5 
Q 7.71875 47.46875 10.453125 49.421875 
Q 12.5 50.921875 16.03125 51.96875 
Q 19.578125 53.03125 23.640625 53.03125 
Q 29.734375 53.03125 34.34375 51.265625 
Q 38.96875 49.515625 41.15625 46.5 
Q 43.359375 43.5 44.1875 38.484375 
L 35.59375 37.3125 
Q 35.015625 41.3125 32.203125 43.546875 
Q 29.390625 45.796875 24.265625 45.796875 
Q 18.21875 45.796875 15.625 43.796875 
Q 13.03125 41.796875 13.03125 39.109375 
Q 13.03125 37.40625 14.109375 36.03125 
Q 15.1875 34.625 17.484375 33.6875 
Q 18.796875 33.203125 25.25 31.453125 
Q 34.578125 28.953125 38.25 27.359375 
Q 41.9375 25.78125 44.03125 22.75 
Q 46.140625 19.734375 46.140625 15.234375 
Q 46.140625 10.84375 43.578125 6.953125 
Q 41.015625 3.078125 36.171875 0.953125 
Q 31.34375 -1.171875 25.25 -1.171875 
Q 15.140625 -1.171875 9.84375 3.03125 
Q 4.546875 7.234375 3.078125 15.484375 
z
" id="ArialMT-115"/>
      </defs>
      <use xlink:href="#ArialMT-70"/>
      <use x="61.083984" xlink:href="#ArialMT-69"/>
      <use x="127.783203" xlink:href="#ArialMT-65"/>
      <use x="187.107422" xlink:href="#ArialMT-84"/>
      <use x="246.441406" xlink:href="#ArialMT-32"/>
      <use x="272.474609" xlink:href="#ArialMT-84"/>
      <use x="322.433594" xlink:href="#ArialMT-101"/>
      <use x="378.048828" xlink:href="#ArialMT-115"/>
      <use x="428.048828" xlink:href="#ArialMT-116"/>
     </g>
    </g>
    <g id="line2d_15">
     <path d="M 830.307169 369.2875 
L 862.307169 369.2875 
" style="fill:none;stroke:#008000;stroke-dasharray:9.6,2.4,1.5,2.4;stroke-dashoffset:0;stroke-opacity:0.5;stroke-width:1.5;"/>
    </g>
    <g id="line2d_16">
     <g>
      <use style="fill:#008000;fill-opacity:0.5;stroke:#008000;stroke-opacity:0.5;" x="846.307169" xlink:href="#m5d8d5e3bae" y="369.2875"/>
     </g>
    </g>
    <g id="text_10">
     <!-- RF Test -->
     <g style="fill:#262626;" transform="translate(875.107169 374.8875)scale(0.16 -0.16)">
      <defs>
       <path d="M 7.859375 0 
L 7.859375 71.578125 
L 39.59375 71.578125 
Q 49.171875 71.578125 54.140625 69.640625 
Q 59.125 67.71875 62.109375 62.828125 
Q 65.09375 57.953125 65.09375 52.046875 
Q 65.09375 44.4375 60.15625 39.203125 
Q 55.21875 33.984375 44.921875 32.5625 
Q 48.6875 30.765625 50.640625 29 
Q 54.78125 25.203125 58.5 19.484375 
L 70.953125 0 
L 59.03125 0 
L 49.5625 14.890625 
Q 45.40625 21.34375 42.71875 24.75 
Q 40.046875 28.171875 37.921875 29.53125 
Q 35.796875 30.90625 33.59375 31.453125 
Q 31.984375 31.78125 28.328125 31.78125 
L 17.328125 31.78125 
L 17.328125 0 
z
M 17.328125 39.984375 
L 37.703125 39.984375 
Q 44.1875 39.984375 47.84375 41.328125 
Q 51.515625 42.671875 53.421875 45.625 
Q 55.328125 48.578125 55.328125 52.046875 
Q 55.328125 57.125 51.640625 60.390625 
Q 47.953125 63.671875 39.984375 63.671875 
L 17.328125 63.671875 
z
" id="ArialMT-82"/>
      </defs>
      <use xlink:href="#ArialMT-82"/>
      <use x="72.216797" xlink:href="#ArialMT-70"/>
      <use x="133.300781" xlink:href="#ArialMT-32"/>
      <use x="159.333984" xlink:href="#ArialMT-84"/>
      <use x="209.292969" xlink:href="#ArialMT-101"/>
      <use x="264.908203" xlink:href="#ArialMT-115"/>
      <use x="314.908203" xlink:href="#ArialMT-116"/>
     </g>
    </g>
    <g id="line2d_17">
     <path d="M 830.307169 391.92 
L 862.307169 391.92 
" style="fill:none;stroke:#bf00bf;stroke-linecap:round;stroke-opacity:0.5;stroke-width:1.5;"/>
    </g>
    <g id="line2d_18">
     <g>
      <use style="fill:#bf00bf;fill-opacity:0.5;stroke:#bf00bf;stroke-linejoin:miter;stroke-opacity:0.5;" x="846.307169" xlink:href="#m8469207f0e" y="391.92"/>
     </g>
    </g>
    <g id="text_11">
     <!-- ElasticNet Test -->
     <g style="fill:#262626;" transform="translate(875.107169 397.52)scale(0.16 -0.16)">
      <defs>
       <path d="M 7.625 0 
L 7.625 71.578125 
L 17.328125 71.578125 
L 54.9375 15.375 
L 54.9375 71.578125 
L 64.015625 71.578125 
L 64.015625 0 
L 54.296875 0 
L 16.703125 56.25 
L 16.703125 0 
z
" id="ArialMT-78"/>
      </defs>
      <use xlink:href="#ArialMT-69"/>
      <use x="66.699219" xlink:href="#ArialMT-108"/>
      <use x="88.916016" xlink:href="#ArialMT-97"/>
      <use x="144.53125" xlink:href="#ArialMT-115"/>
      <use x="194.53125" xlink:href="#ArialMT-116"/>
      <use x="222.314453" xlink:href="#ArialMT-105"/>
      <use x="244.53125" xlink:href="#ArialMT-99"/>
      <use x="294.53125" xlink:href="#ArialMT-78"/>
      <use x="366.748047" xlink:href="#ArialMT-101"/>
      <use x="422.363281" xlink:href="#ArialMT-116"/>
      <use x="450.146484" xlink:href="#ArialMT-32"/>
      <use x="476.179688" xlink:href="#ArialMT-84"/>
      <use x="526.138672" xlink:href="#ArialMT-101"/>
      <use x="581.753906" xlink:href="#ArialMT-115"/>
      <use x="631.753906" xlink:href="#ArialMT-116"/>
     </g>
    </g>
   </g>
  </g>
 </g>
 <defs>
  <clipPath id="p04314d6135">
   <rect height="528.4" width="776.343732" x="39.8" y="10.8"/>
  </clipPath>
 </defs>
</svg>
