<?xml version="1.0" encoding="utf-8" standalone="no"?>
<!DOCTYPE svg PUBLIC "-//W3C//DTD SVG 1.1//EN"
  "http://www.w3.org/Graphics/SVG/1.1/DTD/svg11.dtd">
<!-- Created with matplotlib (https://matplotlib.org/) -->
<svg height="432pt" version="1.1" viewBox="0 0 720 432" width="720pt" xmlns="http://www.w3.org/2000/svg" xmlns:xlink="http://www.w3.org/1999/xlink">
 <defs>
  <style type="text/css">
*{stroke-linecap:butt;stroke-linejoin:round;white-space:pre;}
  </style>
 </defs>
 <g id="figure_1">
  <g id="patch_1">
   <path d="M 0 432 
L 720 432 
L 720 0 
L 0 0 
z
" style="fill:#ffffff;"/>
  </g>
  <g id="axes_1">
   <g id="patch_2">
    <path d="M 39.8 395.2 
L 590.680369 395.2 
L 590.680369 10.8 
L 39.8 10.8 
z
" style="fill:#ffffff;"/>
   </g>
   <g id="matplotlib.axis_1">
    <g id="xtick_1"/>
    <g id="xtick_2"/>
    <g id="xtick_3"/>
    <g id="xtick_4"/>
    <g id="xtick_5"/>
    <g id="xtick_6"/>
    <g id="xtick_7"/>
    <g id="xtick_8"/>
    <g id="xtick_9"/>
    <g id="xtick_10"/>
    <g id="xtick_11"/>
    <g id="xtick_12"/>
    <g id="xtick_13"/>
    <g id="xtick_14"/>
    <g id="xtick_15"/>
    <g id="xtick_16"/>
    <g id="xtick_17"/>
    <g id="xtick_18"/>
    <g id="xtick_19"/>
    <g id="text_1">
     <!-- MSE -->
     <defs>
      <path d="M 9.8125 72.90625 
L 24.515625 72.90625 
L 43.109375 23.296875 
L 61.8125 72.90625 
L 76.515625 72.90625 
L 76.515625 0 
L 66.890625 0 
L 66.890625 64.015625 
L 48.09375 14.015625 
L 38.1875 14.015625 
L 19.390625 64.015625 
L 19.390625 0 
L 9.8125 0 
z
" id="DejaVuSans-77"/>
      <path d="M 53.515625 70.515625 
L 53.515625 60.890625 
Q 47.90625 63.578125 42.921875 64.890625 
Q 37.9375 66.21875 33.296875 66.21875 
Q 25.25 66.21875 20.875 63.09375 
Q 16.5 59.96875 16.5 54.203125 
Q 16.5 49.359375 19.40625 46.890625 
Q 22.3125 44.4375 30.421875 42.921875 
L 36.375 41.703125 
Q 47.40625 39.59375 52.65625 34.296875 
Q 57.90625 29 57.90625 20.125 
Q 57.90625 9.515625 50.796875 4.046875 
Q 43.703125 -1.421875 29.984375 -1.421875 
Q 24.8125 -1.421875 18.96875 -0.25 
Q 13.140625 0.921875 6.890625 3.21875 
L 6.890625 13.375 
Q 12.890625 10.015625 18.65625 8.296875 
Q 24.421875 6.59375 29.984375 6.59375 
Q 38.421875 6.59375 43.015625 9.90625 
Q 47.609375 13.234375 47.609375 19.390625 
Q 47.609375 24.75 44.3125 27.78125 
Q 41.015625 30.8125 33.5 32.328125 
L 27.484375 33.5 
Q 16.453125 35.6875 11.515625 40.375 
Q 6.59375 45.0625 6.59375 53.421875 
Q 6.59375 63.09375 13.40625 68.65625 
Q 20.21875 74.21875 32.171875 74.21875 
Q 37.3125 74.21875 42.625 73.28125 
Q 47.953125 72.359375 53.515625 70.515625 
z
" id="DejaVuSans-83"/>
      <path d="M 9.8125 72.90625 
L 55.90625 72.90625 
L 55.90625 64.59375 
L 19.671875 64.59375 
L 19.671875 43.015625 
L 54.390625 43.015625 
L 54.390625 34.71875 
L 19.671875 34.71875 
L 19.671875 8.296875 
L 56.78125 8.296875 
L 56.78125 0 
L 9.8125 0 
z
" id="DejaVuSans-69"/>
     </defs>
     <g style="fill:#262626;" transform="translate(298.203935 418.3575)scale(0.16 -0.16)">
      <use xlink:href="#DejaVuSans-77"/>
      <use x="86.279297" xlink:href="#DejaVuSans-83"/>
      <use x="149.755859" xlink:href="#DejaVuSans-69"/>
     </g>
    </g>
   </g>
   <g id="matplotlib.axis_2">
    <g id="ytick_1"/>
    <g id="ytick_2"/>
    <g id="ytick_3"/>
    <g id="ytick_4"/>
    <g id="ytick_5"/>
    <g id="ytick_6"/>
    <g id="text_2">
     <!-- Complexity -->
     <defs>
      <path d="M 64.40625 67.28125 
L 64.40625 56.890625 
Q 59.421875 61.53125 53.78125 63.8125 
Q 48.140625 66.109375 41.796875 66.109375 
Q 29.296875 66.109375 22.65625 58.46875 
Q 16.015625 50.828125 16.015625 36.375 
Q 16.015625 21.96875 22.65625 14.328125 
Q 29.296875 6.6875 41.796875 6.6875 
Q 48.140625 6.6875 53.78125 8.984375 
Q 59.421875 11.28125 64.40625 15.921875 
L 64.40625 5.609375 
Q 59.234375 2.09375 53.4375 0.328125 
Q 47.65625 -1.421875 41.21875 -1.421875 
Q 24.65625 -1.421875 15.125 8.703125 
Q 5.609375 18.84375 5.609375 36.375 
Q 5.609375 53.953125 15.125 64.078125 
Q 24.65625 74.21875 41.21875 74.21875 
Q 47.75 74.21875 53.53125 72.484375 
Q 59.328125 70.75 64.40625 67.28125 
z
" id="DejaVuSans-67"/>
      <path d="M 30.609375 48.390625 
Q 23.390625 48.390625 19.1875 42.75 
Q 14.984375 37.109375 14.984375 27.296875 
Q 14.984375 17.484375 19.15625 11.84375 
Q 23.34375 6.203125 30.609375 6.203125 
Q 37.796875 6.203125 41.984375 11.859375 
Q 46.1875 17.53125 46.1875 27.296875 
Q 46.1875 37.015625 41.984375 42.703125 
Q 37.796875 48.390625 30.609375 48.390625 
z
M 30.609375 56 
Q 42.328125 56 49.015625 48.375 
Q 55.71875 40.765625 55.71875 27.296875 
Q 55.71875 13.875 49.015625 6.21875 
Q 42.328125 -1.421875 30.609375 -1.421875 
Q 18.84375 -1.421875 12.171875 6.21875 
Q 5.515625 13.875 5.515625 27.296875 
Q 5.515625 40.765625 12.171875 48.375 
Q 18.84375 56 30.609375 56 
z
" id="DejaVuSans-111"/>
      <path d="M 52 44.1875 
Q 55.375 50.25 60.0625 53.125 
Q 64.75 56 71.09375 56 
Q 79.640625 56 84.28125 50.015625 
Q 88.921875 44.046875 88.921875 33.015625 
L 88.921875 0 
L 79.890625 0 
L 79.890625 32.71875 
Q 79.890625 40.578125 77.09375 44.375 
Q 74.3125 48.1875 68.609375 48.1875 
Q 61.625 48.1875 57.5625 43.546875 
Q 53.515625 38.921875 53.515625 30.90625 
L 53.515625 0 
L 44.484375 0 
L 44.484375 32.71875 
Q 44.484375 40.625 41.703125 44.40625 
Q 38.921875 48.1875 33.109375 48.1875 
Q 26.21875 48.1875 22.15625 43.53125 
Q 18.109375 38.875 18.109375 30.90625 
L 18.109375 0 
L 9.078125 0 
L 9.078125 54.6875 
L 18.109375 54.6875 
L 18.109375 46.1875 
Q 21.1875 51.21875 25.484375 53.609375 
Q 29.78125 56 35.6875 56 
Q 41.65625 56 45.828125 52.96875 
Q 50 49.953125 52 44.1875 
z
" id="DejaVuSans-109"/>
      <path d="M 18.109375 8.203125 
L 18.109375 -20.796875 
L 9.078125 -20.796875 
L 9.078125 54.6875 
L 18.109375 54.6875 
L 18.109375 46.390625 
Q 20.953125 51.265625 25.265625 53.625 
Q 29.59375 56 35.59375 56 
Q 45.5625 56 51.78125 48.09375 
Q 58.015625 40.1875 58.015625 27.296875 
Q 58.015625 14.40625 51.78125 6.484375 
Q 45.5625 -1.421875 35.59375 -1.421875 
Q 29.59375 -1.421875 25.265625 0.953125 
Q 20.953125 3.328125 18.109375 8.203125 
z
M 48.6875 27.296875 
Q 48.6875 37.203125 44.609375 42.84375 
Q 40.53125 48.484375 33.40625 48.484375 
Q 26.265625 48.484375 22.1875 42.84375 
Q 18.109375 37.203125 18.109375 27.296875 
Q 18.109375 17.390625 22.1875 11.75 
Q 26.265625 6.109375 33.40625 6.109375 
Q 40.53125 6.109375 44.609375 11.75 
Q 48.6875 17.390625 48.6875 27.296875 
z
" id="DejaVuSans-112"/>
      <path d="M 9.421875 75.984375 
L 18.40625 75.984375 
L 18.40625 0 
L 9.421875 0 
z
" id="DejaVuSans-108"/>
      <path d="M 56.203125 29.59375 
L 56.203125 25.203125 
L 14.890625 25.203125 
Q 15.484375 15.921875 20.484375 11.0625 
Q 25.484375 6.203125 34.421875 6.203125 
Q 39.59375 6.203125 44.453125 7.46875 
Q 49.3125 8.734375 54.109375 11.28125 
L 54.109375 2.78125 
Q 49.265625 0.734375 44.1875 -0.34375 
Q 39.109375 -1.421875 33.890625 -1.421875 
Q 20.796875 -1.421875 13.15625 6.1875 
Q 5.515625 13.8125 5.515625 26.8125 
Q 5.515625 40.234375 12.765625 48.109375 
Q 20.015625 56 32.328125 56 
Q 43.359375 56 49.78125 48.890625 
Q 56.203125 41.796875 56.203125 29.59375 
z
M 47.21875 32.234375 
Q 47.125 39.59375 43.09375 43.984375 
Q 39.0625 48.390625 32.421875 48.390625 
Q 24.90625 48.390625 20.390625 44.140625 
Q 15.875 39.890625 15.1875 32.171875 
z
" id="DejaVuSans-101"/>
      <path d="M 54.890625 54.6875 
L 35.109375 28.078125 
L 55.90625 0 
L 45.3125 0 
L 29.390625 21.484375 
L 13.484375 0 
L 2.875 0 
L 24.125 28.609375 
L 4.6875 54.6875 
L 15.28125 54.6875 
L 29.78125 35.203125 
L 44.28125 54.6875 
z
" id="DejaVuSans-120"/>
      <path d="M 9.421875 54.6875 
L 18.40625 54.6875 
L 18.40625 0 
L 9.421875 0 
z
M 9.421875 75.984375 
L 18.40625 75.984375 
L 18.40625 64.59375 
L 9.421875 64.59375 
z
" id="DejaVuSans-105"/>
      <path d="M 18.3125 70.21875 
L 18.3125 54.6875 
L 36.8125 54.6875 
L 36.8125 47.703125 
L 18.3125 47.703125 
L 18.3125 18.015625 
Q 18.3125 11.328125 20.140625 9.421875 
Q 21.96875 7.515625 27.59375 7.515625 
L 36.8125 7.515625 
L 36.8125 0 
L 27.59375 0 
Q 17.1875 0 13.234375 3.875 
Q 9.28125 7.765625 9.28125 18.015625 
L 9.28125 47.703125 
L 2.6875 47.703125 
L 2.6875 54.6875 
L 9.28125 54.6875 
L 9.28125 70.21875 
z
" id="DejaVuSans-116"/>
      <path d="M 32.171875 -5.078125 
Q 28.375 -14.84375 24.75 -17.8125 
Q 21.140625 -20.796875 15.09375 -20.796875 
L 7.90625 -20.796875 
L 7.90625 -13.28125 
L 13.1875 -13.28125 
Q 16.890625 -13.28125 18.9375 -11.515625 
Q 21 -9.765625 23.484375 -3.21875 
L 25.09375 0.875 
L 2.984375 54.6875 
L 12.5 54.6875 
L 29.59375 11.921875 
L 46.6875 54.6875 
L 56.203125 54.6875 
z
" id="DejaVuSans-121"/>
     </defs>
     <g style="fill:#262626;" transform="translate(25.056562 253.990625)rotate(-90)scale(0.18 -0.18)">
      <use xlink:href="#DejaVuSans-67"/>
      <use x="69.824219" xlink:href="#DejaVuSans-111"/>
      <use x="131.005859" xlink:href="#DejaVuSans-109"/>
      <use x="228.417969" xlink:href="#DejaVuSans-112"/>
      <use x="291.894531" xlink:href="#DejaVuSans-108"/>
      <use x="319.677734" xlink:href="#DejaVuSans-101"/>
      <use x="381.185547" xlink:href="#DejaVuSans-120"/>
      <use x="440.365234" xlink:href="#DejaVuSans-105"/>
      <use x="468.148438" xlink:href="#DejaVuSans-116"/>
      <use x="507.357422" xlink:href="#DejaVuSans-121"/>
     </g>
    </g>
   </g>
   <g id="line2d_1">
    <path clip-path="url(#p00493fd7c3)" d="M 721 361.568927 
L 236.975559 361.397621 
L 153.817146 338.536109 
L 150.104501 332.004248 
L 147.78563 328.738318 
L 126.332723 325.472387 
L 124.703699 322.206457 
L 124.679332 315.674596 
L 123.284501 312.408666 
L 121.381552 309.142736 
L 114.679435 302.610875 
L 112.220312 292.813084 
L 110.533055 289.547154 
L 110.255995 279.749363 
L 106.183587 276.483432 
L 101.452442 273.217502 
L 101.452008 269.951572 
L 100.904581 266.685641 
L 98.092806 263.419711 
L 94.952678 260.153781 
L 93.46012 247.090059 
L 89.11257 243.824129 
L 88.499614 227.494477 
L 85.417299 224.228547 
L 80.624105 220.962617 
L 80.084833 207.898895 
L 72.860496 201.367035 
L 69.248593 165.441801 
L 69.087838 145.846219 
L 68.388955 132.782498 
L 67.825655 122.984707 
L 67.281282 116.452846 
L 67.274814 103.389125 
L 67.246583 96.857264 
L 66.780935 90.325404 
L 66.446131 87.059473 
L 65.769349 80.527613 
L 63.893762 77.261682 
L 63.333648 70.729822 
L 62.86434 64.197961 
L 61.049988 47.868309 
L 60.625955 44.602379 
L 60.007911 31.538658 
L 58.740619 28.272727 
" style="fill:none;stroke:#ff0000;stroke-dasharray:5.55,2.4;stroke-dashoffset:0;stroke-width:1.5;"/>
    <defs>
     <path d="M 0 3 
C 0.795609 3 1.55874 2.683901 2.12132 2.12132 
C 2.683901 1.55874 3 0.795609 3 0 
C 3 -0.795609 2.683901 -1.55874 2.12132 -2.12132 
C 1.55874 -2.683901 0.795609 -3 0 -3 
C -0.795609 -3 -1.55874 -2.683901 -2.12132 -2.12132 
C -2.683901 -1.55874 -3 -0.795609 -3 0 
C -3 0.795609 -2.683901 1.55874 -2.12132 2.12132 
C -1.55874 2.683901 -0.795609 3 0 3 
z
" id="m446aeaf56a" style="stroke:#ff0000;"/>
    </defs>
    <g clip-path="url(#p00493fd7c3)">
     <use style="fill:#ff0000;stroke:#ff0000;" x="9464.856537" xlink:href="#m446aeaf56a" y="364.663551"/>
     <use style="fill:#ff0000;stroke:#ff0000;" x="236.975559" xlink:href="#m446aeaf56a" y="361.397621"/>
     <use style="fill:#ff0000;stroke:#ff0000;" x="153.817146" xlink:href="#m446aeaf56a" y="338.536109"/>
     <use style="fill:#ff0000;stroke:#ff0000;" x="150.104501" xlink:href="#m446aeaf56a" y="332.004248"/>
     <use style="fill:#ff0000;stroke:#ff0000;" x="147.78563" xlink:href="#m446aeaf56a" y="328.738318"/>
     <use style="fill:#ff0000;stroke:#ff0000;" x="126.332723" xlink:href="#m446aeaf56a" y="325.472387"/>
     <use style="fill:#ff0000;stroke:#ff0000;" x="124.703699" xlink:href="#m446aeaf56a" y="322.206457"/>
     <use style="fill:#ff0000;stroke:#ff0000;" x="124.679332" xlink:href="#m446aeaf56a" y="315.674596"/>
     <use style="fill:#ff0000;stroke:#ff0000;" x="123.284501" xlink:href="#m446aeaf56a" y="312.408666"/>
     <use style="fill:#ff0000;stroke:#ff0000;" x="121.381552" xlink:href="#m446aeaf56a" y="309.142736"/>
     <use style="fill:#ff0000;stroke:#ff0000;" x="114.679435" xlink:href="#m446aeaf56a" y="302.610875"/>
     <use style="fill:#ff0000;stroke:#ff0000;" x="112.220312" xlink:href="#m446aeaf56a" y="292.813084"/>
     <use style="fill:#ff0000;stroke:#ff0000;" x="110.533055" xlink:href="#m446aeaf56a" y="289.547154"/>
     <use style="fill:#ff0000;stroke:#ff0000;" x="110.255995" xlink:href="#m446aeaf56a" y="279.749363"/>
     <use style="fill:#ff0000;stroke:#ff0000;" x="106.183587" xlink:href="#m446aeaf56a" y="276.483432"/>
     <use style="fill:#ff0000;stroke:#ff0000;" x="101.452442" xlink:href="#m446aeaf56a" y="273.217502"/>
     <use style="fill:#ff0000;stroke:#ff0000;" x="101.452008" xlink:href="#m446aeaf56a" y="269.951572"/>
     <use style="fill:#ff0000;stroke:#ff0000;" x="100.904581" xlink:href="#m446aeaf56a" y="266.685641"/>
     <use style="fill:#ff0000;stroke:#ff0000;" x="98.092806" xlink:href="#m446aeaf56a" y="263.419711"/>
     <use style="fill:#ff0000;stroke:#ff0000;" x="94.952678" xlink:href="#m446aeaf56a" y="260.153781"/>
     <use style="fill:#ff0000;stroke:#ff0000;" x="93.46012" xlink:href="#m446aeaf56a" y="247.090059"/>
     <use style="fill:#ff0000;stroke:#ff0000;" x="89.11257" xlink:href="#m446aeaf56a" y="243.824129"/>
     <use style="fill:#ff0000;stroke:#ff0000;" x="88.499614" xlink:href="#m446aeaf56a" y="227.494477"/>
     <use style="fill:#ff0000;stroke:#ff0000;" x="85.417299" xlink:href="#m446aeaf56a" y="224.228547"/>
     <use style="fill:#ff0000;stroke:#ff0000;" x="80.624105" xlink:href="#m446aeaf56a" y="220.962617"/>
     <use style="fill:#ff0000;stroke:#ff0000;" x="80.084833" xlink:href="#m446aeaf56a" y="207.898895"/>
     <use style="fill:#ff0000;stroke:#ff0000;" x="72.860496" xlink:href="#m446aeaf56a" y="201.367035"/>
     <use style="fill:#ff0000;stroke:#ff0000;" x="69.248593" xlink:href="#m446aeaf56a" y="165.441801"/>
     <use style="fill:#ff0000;stroke:#ff0000;" x="69.087838" xlink:href="#m446aeaf56a" y="145.846219"/>
     <use style="fill:#ff0000;stroke:#ff0000;" x="68.388955" xlink:href="#m446aeaf56a" y="132.782498"/>
     <use style="fill:#ff0000;stroke:#ff0000;" x="67.825655" xlink:href="#m446aeaf56a" y="122.984707"/>
     <use style="fill:#ff0000;stroke:#ff0000;" x="67.281282" xlink:href="#m446aeaf56a" y="116.452846"/>
     <use style="fill:#ff0000;stroke:#ff0000;" x="67.274814" xlink:href="#m446aeaf56a" y="103.389125"/>
     <use style="fill:#ff0000;stroke:#ff0000;" x="67.246583" xlink:href="#m446aeaf56a" y="96.857264"/>
     <use style="fill:#ff0000;stroke:#ff0000;" x="66.780935" xlink:href="#m446aeaf56a" y="90.325404"/>
     <use style="fill:#ff0000;stroke:#ff0000;" x="66.446131" xlink:href="#m446aeaf56a" y="87.059473"/>
     <use style="fill:#ff0000;stroke:#ff0000;" x="65.769349" xlink:href="#m446aeaf56a" y="80.527613"/>
     <use style="fill:#ff0000;stroke:#ff0000;" x="63.893762" xlink:href="#m446aeaf56a" y="77.261682"/>
     <use style="fill:#ff0000;stroke:#ff0000;" x="63.333648" xlink:href="#m446aeaf56a" y="70.729822"/>
     <use style="fill:#ff0000;stroke:#ff0000;" x="62.86434" xlink:href="#m446aeaf56a" y="64.197961"/>
     <use style="fill:#ff0000;stroke:#ff0000;" x="61.049988" xlink:href="#m446aeaf56a" y="47.868309"/>
     <use style="fill:#ff0000;stroke:#ff0000;" x="60.625955" xlink:href="#m446aeaf56a" y="44.602379"/>
     <use style="fill:#ff0000;stroke:#ff0000;" x="60.007911" xlink:href="#m446aeaf56a" y="31.538658"/>
     <use style="fill:#ff0000;stroke:#ff0000;" x="58.740619" xlink:href="#m446aeaf56a" y="28.272727"/>
    </g>
   </g>
   <g id="line2d_2">
    <path clip-path="url(#p00493fd7c3)" d="M 721 363.128745 
L 251.564746 361.397621 
L 163.509703 338.536109 
L 157.420505 332.004248 
L 152.029463 328.738318 
L 127.995454 325.472387 
L 126.962286 322.206457 
L 126.647945 315.674596 
L 115.380892 312.408666 
L 119.274084 309.142736 
L 117.562172 302.610875 
L 113.655802 292.813084 
L 108.940418 289.547154 
L 126.979243 279.749363 
L 116.011272 276.483432 
L 104.348938 273.217502 
L 104.349785 269.951572 
L 104.588988 266.685641 
L 96.545479 263.419711 
L 86.312705 260.153781 
L 94.104198 247.090059 
L 81.05263 243.824129 
L 79.493383 227.494477 
L 117.193998 224.228547 
L 83.801517 220.962617 
L 86.407512 207.898895 
L 79.13564 201.367035 
L 79.591998 165.441801 
L 95.975429 145.846219 
L 82.986126 132.782498 
L 84.990528 122.984707 
L 76.658086 116.452846 
L 82.8208 103.389125 
L 83.600766 96.857264 
L 78.078516 90.325404 
L 96.318532 87.059473 
L 80.096378 80.527613 
L 75.860479 77.261682 
L 72.628022 70.729822 
L 56.384183 64.197961 
L 71.915856 47.868309 
L 66.751399 44.602379 
L 58.855382 31.538658 
L 67.645858 28.272727 
" style="fill:none;stroke:#0000ff;stroke-dasharray:5.55,2.4;stroke-dashoffset:0;stroke-width:1.5;"/>
    <defs>
     <path d="M -3 3 
L 3 -3 
M -3 -3 
L 3 3 
" id="m291be060d6" style="stroke:#0000ff;"/>
    </defs>
    <g clip-path="url(#p00493fd7c3)">
     <use style="fill:#0000ff;stroke:#0000ff;" x="1137.199248" xlink:href="#m291be060d6" y="364.663551"/>
     <use style="fill:#0000ff;stroke:#0000ff;" x="251.564746" xlink:href="#m291be060d6" y="361.397621"/>
     <use style="fill:#0000ff;stroke:#0000ff;" x="163.509703" xlink:href="#m291be060d6" y="338.536109"/>
     <use style="fill:#0000ff;stroke:#0000ff;" x="157.420505" xlink:href="#m291be060d6" y="332.004248"/>
     <use style="fill:#0000ff;stroke:#0000ff;" x="152.029463" xlink:href="#m291be060d6" y="328.738318"/>
     <use style="fill:#0000ff;stroke:#0000ff;" x="127.995454" xlink:href="#m291be060d6" y="325.472387"/>
     <use style="fill:#0000ff;stroke:#0000ff;" x="126.962286" xlink:href="#m291be060d6" y="322.206457"/>
     <use style="fill:#0000ff;stroke:#0000ff;" x="126.647945" xlink:href="#m291be060d6" y="315.674596"/>
     <use style="fill:#0000ff;stroke:#0000ff;" x="115.380892" xlink:href="#m291be060d6" y="312.408666"/>
     <use style="fill:#0000ff;stroke:#0000ff;" x="119.274084" xlink:href="#m291be060d6" y="309.142736"/>
     <use style="fill:#0000ff;stroke:#0000ff;" x="117.562172" xlink:href="#m291be060d6" y="302.610875"/>
     <use style="fill:#0000ff;stroke:#0000ff;" x="113.655802" xlink:href="#m291be060d6" y="292.813084"/>
     <use style="fill:#0000ff;stroke:#0000ff;" x="108.940418" xlink:href="#m291be060d6" y="289.547154"/>
     <use style="fill:#0000ff;stroke:#0000ff;" x="126.979243" xlink:href="#m291be060d6" y="279.749363"/>
     <use style="fill:#0000ff;stroke:#0000ff;" x="116.011272" xlink:href="#m291be060d6" y="276.483432"/>
     <use style="fill:#0000ff;stroke:#0000ff;" x="104.348938" xlink:href="#m291be060d6" y="273.217502"/>
     <use style="fill:#0000ff;stroke:#0000ff;" x="104.349785" xlink:href="#m291be060d6" y="269.951572"/>
     <use style="fill:#0000ff;stroke:#0000ff;" x="104.588988" xlink:href="#m291be060d6" y="266.685641"/>
     <use style="fill:#0000ff;stroke:#0000ff;" x="96.545479" xlink:href="#m291be060d6" y="263.419711"/>
     <use style="fill:#0000ff;stroke:#0000ff;" x="86.312705" xlink:href="#m291be060d6" y="260.153781"/>
     <use style="fill:#0000ff;stroke:#0000ff;" x="94.104198" xlink:href="#m291be060d6" y="247.090059"/>
     <use style="fill:#0000ff;stroke:#0000ff;" x="81.05263" xlink:href="#m291be060d6" y="243.824129"/>
     <use style="fill:#0000ff;stroke:#0000ff;" x="79.493383" xlink:href="#m291be060d6" y="227.494477"/>
     <use style="fill:#0000ff;stroke:#0000ff;" x="117.193998" xlink:href="#m291be060d6" y="224.228547"/>
     <use style="fill:#0000ff;stroke:#0000ff;" x="83.801517" xlink:href="#m291be060d6" y="220.962617"/>
     <use style="fill:#0000ff;stroke:#0000ff;" x="86.407512" xlink:href="#m291be060d6" y="207.898895"/>
     <use style="fill:#0000ff;stroke:#0000ff;" x="79.13564" xlink:href="#m291be060d6" y="201.367035"/>
     <use style="fill:#0000ff;stroke:#0000ff;" x="79.591998" xlink:href="#m291be060d6" y="165.441801"/>
     <use style="fill:#0000ff;stroke:#0000ff;" x="95.975429" xlink:href="#m291be060d6" y="145.846219"/>
     <use style="fill:#0000ff;stroke:#0000ff;" x="82.986126" xlink:href="#m291be060d6" y="132.782498"/>
     <use style="fill:#0000ff;stroke:#0000ff;" x="84.990528" xlink:href="#m291be060d6" y="122.984707"/>
     <use style="fill:#0000ff;stroke:#0000ff;" x="76.658086" xlink:href="#m291be060d6" y="116.452846"/>
     <use style="fill:#0000ff;stroke:#0000ff;" x="82.8208" xlink:href="#m291be060d6" y="103.389125"/>
     <use style="fill:#0000ff;stroke:#0000ff;" x="83.600766" xlink:href="#m291be060d6" y="96.857264"/>
     <use style="fill:#0000ff;stroke:#0000ff;" x="78.078516" xlink:href="#m291be060d6" y="90.325404"/>
     <use style="fill:#0000ff;stroke:#0000ff;" x="96.318532" xlink:href="#m291be060d6" y="87.059473"/>
     <use style="fill:#0000ff;stroke:#0000ff;" x="80.096378" xlink:href="#m291be060d6" y="80.527613"/>
     <use style="fill:#0000ff;stroke:#0000ff;" x="75.860479" xlink:href="#m291be060d6" y="77.261682"/>
     <use style="fill:#0000ff;stroke:#0000ff;" x="72.628022" xlink:href="#m291be060d6" y="70.729822"/>
     <use style="fill:#0000ff;stroke:#0000ff;" x="56.384183" xlink:href="#m291be060d6" y="64.197961"/>
     <use style="fill:#0000ff;stroke:#0000ff;" x="71.915856" xlink:href="#m291be060d6" y="47.868309"/>
     <use style="fill:#0000ff;stroke:#0000ff;" x="66.751399" xlink:href="#m291be060d6" y="44.602379"/>
     <use style="fill:#0000ff;stroke:#0000ff;" x="58.855382" xlink:href="#m291be060d6" y="31.538658"/>
     <use style="fill:#0000ff;stroke:#0000ff;" x="67.645858" xlink:href="#m291be060d6" y="28.272727"/>
    </g>
   </g>
   <g id="line2d_3">
    <defs>
     <path d="M -8 8 
L 8 8 
L 8 -8 
L -8 -8 
z
" id="m9d329bb9e4" style="stroke:#000000;stroke-linejoin:miter;"/>
    </defs>
    <g clip-path="url(#p00493fd7c3)">
     <use style="fill-opacity:0;stroke:#000000;stroke-linejoin:miter;" x="56.384183" xlink:href="#m9d329bb9e4" y="64.197961"/>
    </g>
   </g>
   <g id="line2d_4">
    <path clip-path="url(#p00493fd7c3)" d="M 96.065612 377.727273 
L 96.065612 185.037383 
" style="fill:none;stroke:#000000;stroke-dasharray:5.55,2.4;stroke-dashoffset:0;stroke-opacity:0.5;stroke-width:1.5;"/>
   </g>
   <g id="line2d_5">
    <path clip-path="url(#p00493fd7c3)" d="M 137.200983 377.727273 
L 137.200983 185.037383 
" style="fill:none;stroke:#008000;stroke-dasharray:9.6,2.4,1.5,2.4;stroke-dashoffset:0;stroke-opacity:0.5;stroke-width:1.5;"/>
    <defs>
     <path d="M -3 3 
L 3 -3 
M -3 -3 
L 3 3 
" id="mc3057cca39" style="stroke:#008000;stroke-opacity:0.5;"/>
    </defs>
    <g clip-path="url(#p00493fd7c3)">
     <use style="fill:#008000;fill-opacity:0.5;stroke:#008000;stroke-opacity:0.5;" x="137.200983" xlink:href="#mc3057cca39" y="377.727273"/>
     <use style="fill:#008000;fill-opacity:0.5;stroke:#008000;stroke-opacity:0.5;" x="137.200983" xlink:href="#mc3057cca39" y="185.037383"/>
    </g>
   </g>
   <g id="line2d_6">
    <path clip-path="url(#p00493fd7c3)" d="M 243.927242 377.727273 
L 243.927242 185.037383 
" style="fill:none;stroke:#bf00bf;stroke-linecap:round;stroke-opacity:0.5;stroke-width:1.5;"/>
    <defs>
     <path d="M -3 3 
L 3 3 
L 3 -3 
L -3 -3 
z
" id="mc1972ceb92" style="stroke:#bf00bf;stroke-linejoin:miter;stroke-opacity:0.5;"/>
    </defs>
    <g clip-path="url(#p00493fd7c3)">
     <use style="fill:#bf00bf;fill-opacity:0.5;stroke:#bf00bf;stroke-linejoin:miter;stroke-opacity:0.5;" x="243.927242" xlink:href="#mc1972ceb92" y="377.727273"/>
     <use style="fill:#bf00bf;fill-opacity:0.5;stroke:#bf00bf;stroke-linejoin:miter;stroke-opacity:0.5;" x="243.927242" xlink:href="#mc1972ceb92" y="185.037383"/>
    </g>
   </g>
   <g id="patch_3">
    <path d="M 39.8 395.2 
L 39.8 10.8 
" style="fill:none;stroke:#262626;stroke-linecap:square;stroke-linejoin:miter;stroke-width:0.8;"/>
   </g>
   <g id="patch_4">
    <path d="M 590.680369 395.2 
L 590.680369 10.8 
" style="fill:none;stroke:#262626;stroke-linecap:square;stroke-linejoin:miter;stroke-width:0.8;"/>
   </g>
   <g id="patch_5">
    <path d="M 39.8 395.2 
L 590.680369 395.2 
" style="fill:none;stroke:#262626;stroke-linecap:square;stroke-linejoin:miter;stroke-width:0.8;"/>
   </g>
   <g id="patch_6">
    <path d="M 39.8 10.8 
L 590.680369 10.8 
" style="fill:none;stroke:#262626;stroke-linecap:square;stroke-linejoin:miter;stroke-width:0.8;"/>
   </g>
   <g id="text_3">
    <g id="patch_7">
     <path d="M 255.342966 372.366989 
L 418.242966 372.366989 
L 418.242966 347.026364 
L 255.342966 347.026364 
z
" style="fill:#ffffff;opacity:0.75;"/>
    </g>
    <!-- $\leftarrow[x_0][x_1][x_2][x_3]$ -->
    <defs>
     <path d="M 4.890625 29.15625 
L 4.890625 33.546875 
L 24.078125 52.734375 
L 29.9375 46.875 
L 18.5625 35.5 
L 78.078125 35.5 
L 78.078125 27.203125 
L 18.5625 27.203125 
L 29.9375 15.828125 
L 24.078125 9.96875 
z
" id="DejaVuSans-8592"/>
     <path d="M 8.59375 75.984375 
L 29.296875 75.984375 
L 29.296875 69 
L 17.578125 69 
L 17.578125 -6.203125 
L 29.296875 -6.203125 
L 29.296875 -13.1875 
L 8.59375 -13.1875 
z
" id="DejaVuSans-91"/>
     <path d="M 60.015625 54.6875 
L 34.90625 27.875 
L 50.296875 0 
L 39.984375 0 
L 28.421875 21.6875 
L 8.296875 0 
L -2.59375 0 
L 24.3125 28.8125 
L 10.015625 54.6875 
L 20.3125 54.6875 
L 30.8125 34.90625 
L 49.125 54.6875 
z
" id="DejaVuSans-Oblique-120"/>
     <path d="M 31.78125 66.40625 
Q 24.171875 66.40625 20.328125 58.90625 
Q 16.5 51.421875 16.5 36.375 
Q 16.5 21.390625 20.328125 13.890625 
Q 24.171875 6.390625 31.78125 6.390625 
Q 39.453125 6.390625 43.28125 13.890625 
Q 47.125 21.390625 47.125 36.375 
Q 47.125 51.421875 43.28125 58.90625 
Q 39.453125 66.40625 31.78125 66.40625 
z
M 31.78125 74.21875 
Q 44.046875 74.21875 50.515625 64.515625 
Q 56.984375 54.828125 56.984375 36.375 
Q 56.984375 17.96875 50.515625 8.265625 
Q 44.046875 -1.421875 31.78125 -1.421875 
Q 19.53125 -1.421875 13.0625 8.265625 
Q 6.59375 17.96875 6.59375 36.375 
Q 6.59375 54.828125 13.0625 64.515625 
Q 19.53125 74.21875 31.78125 74.21875 
z
" id="DejaVuSans-48"/>
     <path d="M 30.421875 75.984375 
L 30.421875 -13.1875 
L 9.71875 -13.1875 
L 9.71875 -6.203125 
L 21.390625 -6.203125 
L 21.390625 69 
L 9.71875 69 
L 9.71875 75.984375 
z
" id="DejaVuSans-93"/>
     <path d="M 12.40625 8.296875 
L 28.515625 8.296875 
L 28.515625 63.921875 
L 10.984375 60.40625 
L 10.984375 69.390625 
L 28.421875 72.90625 
L 38.28125 72.90625 
L 38.28125 8.296875 
L 54.390625 8.296875 
L 54.390625 0 
L 12.40625 0 
z
" id="DejaVuSans-49"/>
     <path d="M 19.1875 8.296875 
L 53.609375 8.296875 
L 53.609375 0 
L 7.328125 0 
L 7.328125 8.296875 
Q 12.9375 14.109375 22.625 23.890625 
Q 32.328125 33.6875 34.8125 36.53125 
Q 39.546875 41.84375 41.421875 45.53125 
Q 43.3125 49.21875 43.3125 52.78125 
Q 43.3125 58.59375 39.234375 62.25 
Q 35.15625 65.921875 28.609375 65.921875 
Q 23.96875 65.921875 18.8125 64.3125 
Q 13.671875 62.703125 7.8125 59.421875 
L 7.8125 69.390625 
Q 13.765625 71.78125 18.9375 73 
Q 24.125 74.21875 28.421875 74.21875 
Q 39.75 74.21875 46.484375 68.546875 
Q 53.21875 62.890625 53.21875 53.421875 
Q 53.21875 48.921875 51.53125 44.890625 
Q 49.859375 40.875 45.40625 35.40625 
Q 44.1875 33.984375 37.640625 27.21875 
Q 31.109375 20.453125 19.1875 8.296875 
z
" id="DejaVuSans-50"/>
     <path d="M 40.578125 39.3125 
Q 47.65625 37.796875 51.625 33 
Q 55.609375 28.21875 55.609375 21.1875 
Q 55.609375 10.40625 48.1875 4.484375 
Q 40.765625 -1.421875 27.09375 -1.421875 
Q 22.515625 -1.421875 17.65625 -0.515625 
Q 12.796875 0.390625 7.625 2.203125 
L 7.625 11.71875 
Q 11.71875 9.328125 16.59375 8.109375 
Q 21.484375 6.890625 26.8125 6.890625 
Q 36.078125 6.890625 40.9375 10.546875 
Q 45.796875 14.203125 45.796875 21.1875 
Q 45.796875 27.640625 41.28125 31.265625 
Q 36.765625 34.90625 28.71875 34.90625 
L 20.21875 34.90625 
L 20.21875 43.015625 
L 29.109375 43.015625 
Q 36.375 43.015625 40.234375 45.921875 
Q 44.09375 48.828125 44.09375 54.296875 
Q 44.09375 59.90625 40.109375 62.90625 
Q 36.140625 65.921875 28.71875 65.921875 
Q 24.65625 65.921875 20.015625 65.03125 
Q 15.375 64.15625 9.8125 62.3125 
L 9.8125 71.09375 
Q 15.4375 72.65625 20.34375 73.4375 
Q 25.25 74.21875 29.59375 74.21875 
Q 40.828125 74.21875 47.359375 69.109375 
Q 53.90625 64.015625 53.90625 55.328125 
Q 53.90625 49.265625 50.4375 45.09375 
Q 46.96875 40.921875 40.578125 39.3125 
z
" id="DejaVuSans-51"/>
    </defs>
    <g style="fill:#262626;" transform="translate(259.302966 364.663551)scale(0.18 -0.18)">
     <use transform="translate(19.482422 0.015625)" xlink:href="#DejaVuSans-8592"/>
     <use transform="translate(122.753906 0.015625)" xlink:href="#DejaVuSans-91"/>
     <use transform="translate(161.767578 0.015625)" xlink:href="#DejaVuSans-Oblique-120"/>
     <use transform="translate(220.947266 -16.390625)scale(0.7)" xlink:href="#DejaVuSans-48"/>
     <use transform="translate(268.217773 0.015625)" xlink:href="#DejaVuSans-93"/>
     <use transform="translate(307.231445 0.015625)" xlink:href="#DejaVuSans-91"/>
     <use transform="translate(346.245117 0.015625)" xlink:href="#DejaVuSans-Oblique-120"/>
     <use transform="translate(405.424805 -16.390625)scale(0.7)" xlink:href="#DejaVuSans-49"/>
     <use transform="translate(452.695312 0.015625)" xlink:href="#DejaVuSans-93"/>
     <use transform="translate(491.708984 0.015625)" xlink:href="#DejaVuSans-91"/>
     <use transform="translate(530.722656 0.015625)" xlink:href="#DejaVuSans-Oblique-120"/>
     <use transform="translate(589.902344 -16.390625)scale(0.7)" xlink:href="#DejaVuSans-50"/>
     <use transform="translate(637.172852 0.015625)" xlink:href="#DejaVuSans-93"/>
     <use transform="translate(676.186523 0.015625)" xlink:href="#DejaVuSans-91"/>
     <use transform="translate(715.200195 0.015625)" xlink:href="#DejaVuSans-Oblique-120"/>
     <use transform="translate(774.379883 -16.390625)scale(0.7)" xlink:href="#DejaVuSans-51"/>
     <use transform="translate(821.650391 0.015625)" xlink:href="#DejaVuSans-93"/>
    </g>
   </g>
   <g id="text_4">
    <g id="patch_8">
     <path d="M 126.680689 284.763432 
L 606.380689 284.763432 
L 606.380689 255.963432 
L 126.680689 255.963432 
z
" style="fill:#ffffff;opacity:0.75;"/>
    </g>
    <!-- $\leftarrow[sqrt(|x_1|)][x_3][(x_0)^(x_1)][x_1][tanh(x_1)][x_0][tanh(x_0)]$ -->
    <defs>
     <path d="M 50 53.078125 
L 48.296875 44.578125 
Q 44.734375 46.53125 40.765625 47.5 
Q 36.8125 48.484375 32.625 48.484375 
Q 25.53125 48.484375 21.453125 46.0625 
Q 17.390625 43.65625 17.390625 39.5 
Q 17.390625 34.671875 26.859375 32.078125 
Q 27.59375 31.890625 27.9375 31.78125 
L 30.8125 30.90625 
Q 39.796875 28.421875 42.796875 25.6875 
Q 45.796875 22.953125 45.796875 18.21875 
Q 45.796875 9.515625 38.890625 4.046875 
Q 31.984375 -1.421875 20.796875 -1.421875 
Q 16.453125 -1.421875 11.671875 -0.578125 
Q 6.890625 0.25 1.125 2 
L 2.875 11.28125 
Q 7.8125 8.734375 12.59375 7.421875 
Q 17.390625 6.109375 21.78125 6.109375 
Q 28.375 6.109375 32.5 8.9375 
Q 36.625 11.765625 36.625 16.109375 
Q 36.625 20.796875 25.78125 23.6875 
L 24.859375 23.921875 
L 21.78125 24.703125 
Q 14.9375 26.515625 11.765625 29.46875 
Q 8.59375 32.421875 8.59375 37.015625 
Q 8.59375 45.75 15.15625 50.875 
Q 21.734375 56 33.015625 56 
Q 37.453125 56 41.671875 55.265625 
Q 45.90625 54.546875 50 53.078125 
z
" id="DejaVuSans-Oblique-115"/>
     <path d="M 41.703125 8.203125 
Q 38.09375 3.46875 33.171875 1.015625 
Q 28.265625 -1.421875 22.3125 -1.421875 
Q 14.015625 -1.421875 9.296875 4.171875 
Q 4.59375 9.765625 4.59375 19.578125 
Q 4.59375 27.484375 7.5 34.859375 
Q 10.40625 42.234375 15.828125 48.09375 
Q 19.34375 51.90625 23.90625 53.953125 
Q 28.46875 56 33.5 56 
Q 39.546875 56 43.453125 53.609375 
Q 47.359375 51.21875 49.125 46.390625 
L 50.6875 54.59375 
L 59.71875 54.59375 
L 45.125 -20.609375 
L 36.078125 -20.609375 
z
M 13.921875 20.90625 
Q 13.921875 13.671875 16.9375 9.890625 
Q 19.96875 6.109375 25.6875 6.109375 
Q 34.1875 6.109375 40.1875 14.234375 
Q 46.1875 22.359375 46.1875 33.984375 
Q 46.1875 41.015625 43.078125 44.75 
Q 39.984375 48.484375 34.1875 48.484375 
Q 29.9375 48.484375 26.3125 46.5 
Q 22.703125 44.53125 20.015625 40.71875 
Q 17.1875 36.71875 15.546875 31.34375 
Q 13.921875 25.984375 13.921875 20.90625 
z
" id="DejaVuSans-Oblique-113"/>
     <path d="M 44.578125 46.390625 
Q 43.21875 47.125 41.453125 47.515625 
Q 39.703125 47.90625 37.703125 47.90625 
Q 30.515625 47.90625 25.140625 42.453125 
Q 19.78125 37.015625 18.015625 27.875 
L 12.5 0 
L 3.515625 0 
L 14.203125 54.6875 
L 23.1875 54.6875 
L 21.484375 46.1875 
Q 25.046875 50.921875 30 53.453125 
Q 34.96875 56 40.578125 56 
Q 42.046875 56 43.453125 55.828125 
Q 44.875 55.671875 46.296875 55.28125 
z
" id="DejaVuSans-Oblique-114"/>
     <path d="M 42.28125 54.6875 
L 40.921875 47.703125 
L 23 47.703125 
L 17.1875 18.015625 
Q 16.890625 16.359375 16.75 15.234375 
Q 16.609375 14.109375 16.609375 13.484375 
Q 16.609375 10.359375 18.484375 8.9375 
Q 20.359375 7.515625 24.515625 7.515625 
L 33.59375 7.515625 
L 32.078125 0 
L 23.484375 0 
Q 15.484375 0 11.546875 3.125 
Q 7.625 6.25 7.625 12.59375 
Q 7.625 13.71875 7.765625 15.0625 
Q 7.90625 16.40625 8.203125 18.015625 
L 14.015625 47.703125 
L 6.390625 47.703125 
L 7.8125 54.6875 
L 15.28125 54.6875 
L 18.3125 70.21875 
L 27.296875 70.21875 
L 24.3125 54.6875 
z
" id="DejaVuSans-Oblique-116"/>
     <path d="M 31 75.875 
Q 24.46875 64.65625 21.28125 53.65625 
Q 18.109375 42.671875 18.109375 31.390625 
Q 18.109375 20.125 21.3125 9.0625 
Q 24.515625 -2 31 -13.1875 
L 23.1875 -13.1875 
Q 15.875 -1.703125 12.234375 9.375 
Q 8.59375 20.453125 8.59375 31.390625 
Q 8.59375 42.28125 12.203125 53.3125 
Q 15.828125 64.359375 23.1875 75.875 
z
" id="DejaVuSans-40"/>
     <path d="M 21 76.421875 
L 21 -23.578125 
L 12.703125 -23.578125 
L 12.703125 76.421875 
z
" id="DejaVuSans-124"/>
     <path d="M 8.015625 75.875 
L 15.828125 75.875 
Q 23.140625 64.359375 26.78125 53.3125 
Q 30.421875 42.28125 30.421875 31.390625 
Q 30.421875 20.453125 26.78125 9.375 
Q 23.140625 -1.703125 15.828125 -13.1875 
L 8.015625 -13.1875 
Q 14.5 -2 17.703125 9.0625 
Q 20.90625 20.125 20.90625 31.390625 
Q 20.90625 42.671875 17.703125 53.65625 
Q 14.5 64.65625 8.015625 75.875 
z
" id="DejaVuSans-41"/>
     <path d="M 53.71875 31.203125 
L 47.609375 0 
L 38.625 0 
L 40.28125 8.296875 
Q 36.328125 3.421875 31.265625 1 
Q 26.21875 -1.421875 20.015625 -1.421875 
Q 13.03125 -1.421875 8.5625 2.84375 
Q 4.109375 7.125 4.109375 13.8125 
Q 4.109375 23.390625 11.75 28.953125 
Q 19.390625 34.515625 32.8125 34.515625 
L 45.3125 34.515625 
L 45.796875 36.921875 
Q 45.90625 37.3125 45.953125 37.765625 
Q 46 38.234375 46 39.203125 
Q 46 43.5625 42.453125 45.96875 
Q 38.921875 48.390625 32.515625 48.390625 
Q 28.125 48.390625 23.5 47.265625 
Q 18.890625 46.140625 14.015625 43.890625 
L 15.578125 52.203125 
Q 20.65625 54.109375 25.515625 55.046875 
Q 30.375 56 34.90625 56 
Q 44.578125 56 49.625 51.796875 
Q 54.6875 47.609375 54.6875 39.59375 
Q 54.6875 37.984375 54.4375 35.8125 
Q 54.203125 33.640625 53.71875 31.203125 
z
M 44 27.484375 
L 35.015625 27.484375 
Q 23.96875 27.484375 18.671875 24.53125 
Q 13.375 21.578125 13.375 15.375 
Q 13.375 11.078125 16.078125 8.640625 
Q 18.796875 6.203125 23.578125 6.203125 
Q 30.90625 6.203125 36.375 11.453125 
Q 41.84375 16.703125 43.609375 25.484375 
z
" id="DejaVuSans-Oblique-97"/>
     <path d="M 55.71875 33.015625 
L 49.3125 0 
L 40.28125 0 
L 46.6875 32.671875 
Q 47.125 34.96875 47.359375 36.71875 
Q 47.609375 38.484375 47.609375 39.5 
Q 47.609375 43.609375 45.015625 45.890625 
Q 42.4375 48.1875 37.796875 48.1875 
Q 30.5625 48.1875 25.34375 43.375 
Q 20.125 38.578125 18.5 30.328125 
L 12.5 0 
L 3.515625 0 
L 14.109375 54.6875 
L 23.09375 54.6875 
L 21.296875 46.09375 
Q 25.046875 50.828125 30.3125 53.40625 
Q 35.59375 56 41.40625 56 
Q 48.640625 56 52.609375 52.09375 
Q 56.59375 48.1875 56.59375 41.109375 
Q 56.59375 39.359375 56.375 37.359375 
Q 56.15625 35.359375 55.71875 33.015625 
z
" id="DejaVuSans-Oblique-110"/>
     <path d="M 55.71875 33.015625 
L 49.3125 0 
L 40.28125 0 
L 46.6875 32.671875 
Q 47.125 34.96875 47.359375 36.71875 
Q 47.609375 38.484375 47.609375 39.5 
Q 47.609375 43.609375 45.015625 45.890625 
Q 42.4375 48.1875 37.796875 48.1875 
Q 30.5625 48.1875 25.265625 43.296875 
Q 19.96875 38.421875 18.40625 30.328125 
L 12.5 0 
L 3.515625 0 
L 18.3125 75.984375 
L 27.296875 75.984375 
L 21.484375 46.09375 
Q 24.90625 50.6875 30.21875 53.34375 
Q 35.546875 56 41.40625 56 
Q 48.640625 56 52.609375 52.09375 
Q 56.59375 48.1875 56.59375 41.109375 
Q 56.59375 39.359375 56.375 37.359375 
Q 56.15625 35.359375 55.71875 33.015625 
z
" id="DejaVuSans-Oblique-104"/>
    </defs>
    <g style="fill:#262626;" transform="translate(130.640689 276.483432)scale(0.18 -0.18)">
     <use transform="translate(19.482422 0.60625)" xlink:href="#DejaVuSans-8592"/>
     <use transform="translate(122.753906 0.60625)" xlink:href="#DejaVuSans-91"/>
     <use transform="translate(161.767578 0.60625)" xlink:href="#DejaVuSans-Oblique-115"/>
     <use transform="translate(213.867188 0.60625)" xlink:href="#DejaVuSans-Oblique-113"/>
     <use transform="translate(277.34375 0.60625)" xlink:href="#DejaVuSans-Oblique-114"/>
     <use transform="translate(318.457031 0.60625)" xlink:href="#DejaVuSans-Oblique-116"/>
     <use transform="translate(357.666016 0.60625)" xlink:href="#DejaVuSans-40"/>
     <use transform="translate(396.679688 0.60625)" xlink:href="#DejaVuSans-124"/>
     <use transform="translate(430.371094 0.60625)" xlink:href="#DejaVuSans-Oblique-120"/>
     <use transform="translate(489.550781 -15.8)scale(0.7)" xlink:href="#DejaVuSans-49"/>
     <use transform="translate(536.821289 0.60625)" xlink:href="#DejaVuSans-124"/>
     <use transform="translate(570.512695 0.60625)" xlink:href="#DejaVuSans-41"/>
     <use transform="translate(609.526367 0.60625)" xlink:href="#DejaVuSans-93"/>
     <use transform="translate(648.540039 0.60625)" xlink:href="#DejaVuSans-91"/>
     <use transform="translate(687.553711 0.60625)" xlink:href="#DejaVuSans-Oblique-120"/>
     <use transform="translate(746.733398 -15.8)scale(0.7)" xlink:href="#DejaVuSans-51"/>
     <use transform="translate(794.003906 0.60625)" xlink:href="#DejaVuSans-93"/>
     <use transform="translate(833.017578 0.60625)" xlink:href="#DejaVuSans-91"/>
     <use transform="translate(872.03125 0.60625)" xlink:href="#DejaVuSans-40"/>
     <use transform="translate(911.044922 0.60625)" xlink:href="#DejaVuSans-Oblique-120"/>
     <use transform="translate(970.224609 -15.8)scale(0.7)" xlink:href="#DejaVuSans-48"/>
     <use transform="translate(1017.495117 0.60625)" xlink:href="#DejaVuSans-41"/>
     <use transform="translate(1057.46582 38.8875)scale(0.7)" xlink:href="#DejaVuSans-40"/>
     <use transform="translate(1087.509766 0.60625)" xlink:href="#DejaVuSans-Oblique-120"/>
     <use transform="translate(1146.689453 -15.8)scale(0.7)" xlink:href="#DejaVuSans-49"/>
     <use transform="translate(1193.959961 0.60625)" xlink:href="#DejaVuSans-41"/>
     <use transform="translate(1232.973633 0.60625)" xlink:href="#DejaVuSans-93"/>
     <use transform="translate(1271.987305 0.60625)" xlink:href="#DejaVuSans-91"/>
     <use transform="translate(1311.000977 0.60625)" xlink:href="#DejaVuSans-Oblique-120"/>
     <use transform="translate(1370.180664 -15.8)scale(0.7)" xlink:href="#DejaVuSans-49"/>
     <use transform="translate(1417.451172 0.60625)" xlink:href="#DejaVuSans-93"/>
     <use transform="translate(1456.464844 0.60625)" xlink:href="#DejaVuSans-91"/>
     <use transform="translate(1495.478516 0.60625)" xlink:href="#DejaVuSans-Oblique-116"/>
     <use transform="translate(1534.6875 0.60625)" xlink:href="#DejaVuSans-Oblique-97"/>
     <use transform="translate(1595.966797 0.60625)" xlink:href="#DejaVuSans-Oblique-110"/>
     <use transform="translate(1659.345703 0.60625)" xlink:href="#DejaVuSans-Oblique-104"/>
     <use transform="translate(1722.724609 0.60625)" xlink:href="#DejaVuSans-40"/>
     <use transform="translate(1761.738281 0.60625)" xlink:href="#DejaVuSans-Oblique-120"/>
     <use transform="translate(1820.917969 -15.8)scale(0.7)" xlink:href="#DejaVuSans-49"/>
     <use transform="translate(1868.188477 0.60625)" xlink:href="#DejaVuSans-41"/>
     <use transform="translate(1907.202148 0.60625)" xlink:href="#DejaVuSans-93"/>
     <use transform="translate(1946.21582 0.60625)" xlink:href="#DejaVuSans-91"/>
     <use transform="translate(1985.229492 0.60625)" xlink:href="#DejaVuSans-Oblique-120"/>
     <use transform="translate(2044.40918 -15.8)scale(0.7)" xlink:href="#DejaVuSans-48"/>
     <use transform="translate(2091.679688 0.60625)" xlink:href="#DejaVuSans-93"/>
     <use transform="translate(2130.693359 0.60625)" xlink:href="#DejaVuSans-91"/>
     <use transform="translate(2169.707031 0.60625)" xlink:href="#DejaVuSans-Oblique-116"/>
     <use transform="translate(2208.916016 0.60625)" xlink:href="#DejaVuSans-Oblique-97"/>
     <use transform="translate(2270.195312 0.60625)" xlink:href="#DejaVuSans-Oblique-110"/>
     <use transform="translate(2333.574219 0.60625)" xlink:href="#DejaVuSans-Oblique-104"/>
     <use transform="translate(2396.953125 0.60625)" xlink:href="#DejaVuSans-40"/>
     <use transform="translate(2435.966797 0.60625)" xlink:href="#DejaVuSans-Oblique-120"/>
     <use transform="translate(2495.146484 -15.8)scale(0.7)" xlink:href="#DejaVuSans-48"/>
     <use transform="translate(2542.416992 0.60625)" xlink:href="#DejaVuSans-41"/>
     <use transform="translate(2581.430664 0.60625)" xlink:href="#DejaVuSans-93"/>
    </g>
   </g>
   <g id="text_5">
    <g id="patch_9">
     <path d="M 107.204015 212.372965 
L 718.844015 212.372965 
L 718.844015 184.112965 
L 107.204015 184.112965 
z
" style="fill:#ffffff;opacity:0.75;"/>
    </g>
    <!-- $\leftarrow[cos(x_1)][x_3][(x_0)^(x_1)][x_1][tanh(x_1)][x_0][tanh(x_0)][(x_1*gauss(x_2))]$ -->
    <defs>
     <path d="M 53.609375 52.59375 
L 51.8125 43.703125 
Q 48.578125 46.046875 44.9375 47.21875 
Q 41.3125 48.390625 37.40625 48.390625 
Q 33.109375 48.390625 29.21875 46.875 
Q 25.34375 45.359375 22.703125 42.578125 
Q 18.5 38.328125 16.203125 32.609375 
Q 13.921875 26.90625 13.921875 20.796875 
Q 13.921875 13.421875 17.609375 9.8125 
Q 21.296875 6.203125 28.8125 6.203125 
Q 32.515625 6.203125 36.6875 7.328125 
Q 40.875 8.453125 45.40625 10.6875 
L 43.703125 1.8125 
Q 39.796875 0.203125 35.671875 -0.609375 
Q 31.546875 -1.421875 27.203125 -1.421875 
Q 16.3125 -1.421875 10.453125 4.015625 
Q 4.59375 9.46875 4.59375 19.578125 
Q 4.59375 28.078125 7.640625 35.234375 
Q 10.6875 42.390625 16.703125 48.09375 
Q 20.796875 52 26.3125 54 
Q 31.84375 56 38.375 56 
Q 42.1875 56 45.9375 55.140625 
Q 49.703125 54.296875 53.609375 52.59375 
z
" id="DejaVuSans-Oblique-99"/>
     <path d="M 25.390625 -1.421875 
Q 15.765625 -1.421875 10.171875 4.515625 
Q 4.59375 10.453125 4.59375 20.703125 
Q 4.59375 26.65625 6.515625 32.828125 
Q 8.453125 39.015625 11.53125 43.21875 
Q 16.359375 49.75 22.3125 52.875 
Q 28.265625 56 35.796875 56 
Q 45.125 56 50.859375 50.1875 
Q 56.59375 44.390625 56.59375 35.015625 
Q 56.59375 28.515625 54.6875 22.0625 
Q 52.78125 15.625 49.703125 11.375 
Q 44.921875 4.828125 38.96875 1.703125 
Q 33.015625 -1.421875 25.390625 -1.421875 
z
M 13.921875 21 
Q 13.921875 13.578125 17.015625 9.890625 
Q 20.125 6.203125 26.421875 6.203125 
Q 35.453125 6.203125 41.375 14.078125 
Q 47.3125 21.96875 47.3125 34.078125 
Q 47.3125 41.15625 44.140625 44.765625 
Q 40.96875 48.390625 34.8125 48.390625 
Q 29.734375 48.390625 25.78125 46.015625 
Q 21.828125 43.65625 18.703125 38.8125 
Q 16.40625 35.203125 15.15625 30.5625 
Q 13.921875 25.921875 13.921875 21 
z
" id="DejaVuSans-Oblique-111"/>
     <path d="M 47.015625 60.890625 
L 29.5 51.421875 
L 47.015625 41.890625 
L 44.1875 37.109375 
L 27.78125 47.015625 
L 27.78125 28.609375 
L 22.21875 28.609375 
L 22.21875 47.015625 
L 5.8125 37.109375 
L 2.984375 41.890625 
L 20.515625 51.421875 
L 2.984375 60.890625 
L 5.8125 65.71875 
L 22.21875 55.8125 
L 22.21875 74.21875 
L 27.78125 74.21875 
L 27.78125 55.8125 
L 44.1875 65.71875 
z
" id="DejaVuSans-42"/>
     <path d="M 59.625 54.6875 
L 50.296875 6.78125 
Q 47.609375 -7.125 40.015625 -13.953125 
Q 32.421875 -20.796875 19.578125 -20.796875 
Q 14.84375 -20.796875 10.78125 -20.09375 
Q 6.734375 -19.390625 3.21875 -17.921875 
L 4.890625 -9.1875 
Q 8.203125 -11.328125 11.90625 -12.34375 
Q 15.625 -13.375 19.828125 -13.375 
Q 28.375 -13.375 33.859375 -8.703125 
Q 39.359375 -4.046875 41.109375 4.6875 
L 41.890625 8.796875 
Q 38.140625 4.5 33.15625 2.25 
Q 28.171875 0 22.40625 0 
Q 14.109375 0 9.34375 5.484375 
Q 4.59375 10.984375 4.59375 20.609375 
Q 4.59375 28.171875 7.46875 35.421875 
Q 10.359375 42.671875 15.578125 48.296875 
Q 19.046875 52 23.65625 54 
Q 28.265625 56 33.296875 56 
Q 38.8125 56 42.90625 53.4375 
Q 47.015625 50.875 49.03125 46.1875 
L 50.59375 54.6875 
z
M 46.09375 34.625 
Q 46.09375 41.265625 42.96875 44.875 
Q 39.84375 48.484375 34.078125 48.484375 
Q 30.515625 48.484375 27.296875 47.0625 
Q 24.078125 45.65625 21.78125 43.109375 
Q 18.0625 38.921875 15.984375 33.234375 
Q 13.921875 27.546875 13.921875 21.484375 
Q 13.921875 14.75 17.0625 11.125 
Q 20.21875 7.515625 26.125 7.515625 
Q 34.671875 7.515625 40.375 15.25 
Q 46.09375 23 46.09375 34.625 
z
" id="DejaVuSans-Oblique-103"/>
     <path d="M 6.6875 21.6875 
L 13.09375 54.6875 
L 22.125 54.6875 
L 15.71875 22.015625 
Q 15.234375 19.625 15.015625 17.921875 
Q 14.796875 16.21875 14.796875 15.09375 
Q 14.796875 10.9375 17.328125 8.65625 
Q 19.875 6.390625 24.515625 6.390625 
Q 31.734375 6.390625 37 11.265625 
Q 42.28125 16.15625 43.890625 24.421875 
L 49.90625 54.6875 
L 58.890625 54.6875 
L 48.296875 0 
L 39.3125 0 
L 41.109375 8.59375 
Q 37.3125 3.8125 32.0625 1.1875 
Q 26.8125 -1.421875 20.90625 -1.421875 
Q 13.71875 -1.421875 9.71875 2.515625 
Q 5.71875 6.453125 5.71875 13.484375 
Q 5.71875 14.9375 5.953125 17.140625 
Q 6.203125 19.34375 6.6875 21.6875 
z
" id="DejaVuSans-Oblique-117"/>
    </defs>
    <g style="fill:#262626;" transform="translate(111.164015 204.632965)scale(0.18 -0.18)">
     <use transform="translate(19.482422 0.60625)" xlink:href="#DejaVuSans-8592"/>
     <use transform="translate(122.753906 0.60625)" xlink:href="#DejaVuSans-91"/>
     <use transform="translate(161.767578 0.60625)" xlink:href="#DejaVuSans-Oblique-99"/>
     <use transform="translate(216.748047 0.60625)" xlink:href="#DejaVuSans-Oblique-111"/>
     <use transform="translate(277.929688 0.60625)" xlink:href="#DejaVuSans-Oblique-115"/>
     <use transform="translate(330.029297 0.60625)" xlink:href="#DejaVuSans-40"/>
     <use transform="translate(369.042969 0.60625)" xlink:href="#DejaVuSans-Oblique-120"/>
     <use transform="translate(428.222656 -15.8)scale(0.7)" xlink:href="#DejaVuSans-49"/>
     <use transform="translate(475.493164 0.60625)" xlink:href="#DejaVuSans-41"/>
     <use transform="translate(514.506836 0.60625)" xlink:href="#DejaVuSans-93"/>
     <use transform="translate(553.520508 0.60625)" xlink:href="#DejaVuSans-91"/>
     <use transform="translate(592.53418 0.60625)" xlink:href="#DejaVuSans-Oblique-120"/>
     <use transform="translate(651.713867 -15.8)scale(0.7)" xlink:href="#DejaVuSans-51"/>
     <use transform="translate(698.984375 0.60625)" xlink:href="#DejaVuSans-93"/>
     <use transform="translate(737.998047 0.60625)" xlink:href="#DejaVuSans-91"/>
     <use transform="translate(777.011719 0.60625)" xlink:href="#DejaVuSans-40"/>
     <use transform="translate(816.025391 0.60625)" xlink:href="#DejaVuSans-Oblique-120"/>
     <use transform="translate(875.205078 -15.8)scale(0.7)" xlink:href="#DejaVuSans-48"/>
     <use transform="translate(922.475586 0.60625)" xlink:href="#DejaVuSans-41"/>
     <use transform="translate(962.446289 38.8875)scale(0.7)" xlink:href="#DejaVuSans-40"/>
     <use transform="translate(992.490234 0.60625)" xlink:href="#DejaVuSans-Oblique-120"/>
     <use transform="translate(1051.669922 -15.8)scale(0.7)" xlink:href="#DejaVuSans-49"/>
     <use transform="translate(1098.94043 0.60625)" xlink:href="#DejaVuSans-41"/>
     <use transform="translate(1137.954102 0.60625)" xlink:href="#DejaVuSans-93"/>
     <use transform="translate(1176.967773 0.60625)" xlink:href="#DejaVuSans-91"/>
     <use transform="translate(1215.981445 0.60625)" xlink:href="#DejaVuSans-Oblique-120"/>
     <use transform="translate(1275.161133 -15.8)scale(0.7)" xlink:href="#DejaVuSans-49"/>
     <use transform="translate(1322.431641 0.60625)" xlink:href="#DejaVuSans-93"/>
     <use transform="translate(1361.445312 0.60625)" xlink:href="#DejaVuSans-91"/>
     <use transform="translate(1400.458984 0.60625)" xlink:href="#DejaVuSans-Oblique-116"/>
     <use transform="translate(1439.667969 0.60625)" xlink:href="#DejaVuSans-Oblique-97"/>
     <use transform="translate(1500.947266 0.60625)" xlink:href="#DejaVuSans-Oblique-110"/>
     <use transform="translate(1564.326172 0.60625)" xlink:href="#DejaVuSans-Oblique-104"/>
     <use transform="translate(1627.705078 0.60625)" xlink:href="#DejaVuSans-40"/>
     <use transform="translate(1666.71875 0.60625)" xlink:href="#DejaVuSans-Oblique-120"/>
     <use transform="translate(1725.898438 -15.8)scale(0.7)" xlink:href="#DejaVuSans-49"/>
     <use transform="translate(1773.168945 0.60625)" xlink:href="#DejaVuSans-41"/>
     <use transform="translate(1812.182617 0.60625)" xlink:href="#DejaVuSans-93"/>
     <use transform="translate(1851.196289 0.60625)" xlink:href="#DejaVuSans-91"/>
     <use transform="translate(1890.209961 0.60625)" xlink:href="#DejaVuSans-Oblique-120"/>
     <use transform="translate(1949.389648 -15.8)scale(0.7)" xlink:href="#DejaVuSans-48"/>
     <use transform="translate(1996.660156 0.60625)" xlink:href="#DejaVuSans-93"/>
     <use transform="translate(2035.673828 0.60625)" xlink:href="#DejaVuSans-91"/>
     <use transform="translate(2074.6875 0.60625)" xlink:href="#DejaVuSans-Oblique-116"/>
     <use transform="translate(2113.896484 0.60625)" xlink:href="#DejaVuSans-Oblique-97"/>
     <use transform="translate(2175.175781 0.60625)" xlink:href="#DejaVuSans-Oblique-110"/>
     <use transform="translate(2238.554688 0.60625)" xlink:href="#DejaVuSans-Oblique-104"/>
     <use transform="translate(2301.933594 0.60625)" xlink:href="#DejaVuSans-40"/>
     <use transform="translate(2340.947266 0.60625)" xlink:href="#DejaVuSans-Oblique-120"/>
     <use transform="translate(2400.126953 -15.8)scale(0.7)" xlink:href="#DejaVuSans-48"/>
     <use transform="translate(2447.397461 0.60625)" xlink:href="#DejaVuSans-41"/>
     <use transform="translate(2486.411133 0.60625)" xlink:href="#DejaVuSans-93"/>
     <use transform="translate(2525.424805 0.60625)" xlink:href="#DejaVuSans-91"/>
     <use transform="translate(2564.438477 0.60625)" xlink:href="#DejaVuSans-40"/>
     <use transform="translate(2603.452148 0.60625)" xlink:href="#DejaVuSans-Oblique-120"/>
     <use transform="translate(2662.631836 -15.8)scale(0.7)" xlink:href="#DejaVuSans-49"/>
     <use transform="translate(2729.384766 0.60625)" xlink:href="#DejaVuSans-42"/>
     <use transform="translate(2798.867188 0.60625)" xlink:href="#DejaVuSans-Oblique-103"/>
     <use transform="translate(2862.34375 0.60625)" xlink:href="#DejaVuSans-Oblique-97"/>
     <use transform="translate(2923.623047 0.60625)" xlink:href="#DejaVuSans-Oblique-117"/>
     <use transform="translate(2987.001953 0.60625)" xlink:href="#DejaVuSans-Oblique-115"/>
     <use transform="translate(3039.101562 0.60625)" xlink:href="#DejaVuSans-Oblique-115"/>
     <use transform="translate(3091.201172 0.60625)" xlink:href="#DejaVuSans-40"/>
     <use transform="translate(3130.214844 0.60625)" xlink:href="#DejaVuSans-Oblique-120"/>
     <use transform="translate(3189.394531 -15.8)scale(0.7)" xlink:href="#DejaVuSans-50"/>
     <use transform="translate(3236.665039 0.60625)" xlink:href="#DejaVuSans-41"/>
     <use transform="translate(3275.678711 0.60625)" xlink:href="#DejaVuSans-41"/>
     <use transform="translate(3314.692383 0.60625)" xlink:href="#DejaVuSans-93"/>
    </g>
   </g>
   <g id="legend_1">
    <g id="patch_10">
     <path d="M 401.415369 164.51 
L 579.480369 164.51 
Q 582.680369 164.51 582.680369 161.31 
L 582.680369 22 
Q 582.680369 18.8 579.480369 18.8 
L 401.415369 18.8 
Q 398.215369 18.8 398.215369 22 
L 398.215369 161.31 
Q 398.215369 164.51 401.415369 164.51 
z
" style="fill:#ffffff;opacity:0.8;stroke:#cccccc;stroke-linejoin:miter;"/>
    </g>
    <g id="line2d_7">
     <path d="M 404.615369 31.7575 
L 436.615369 31.7575 
" style="fill:none;stroke:#ff0000;stroke-dasharray:5.55,2.4;stroke-dashoffset:0;stroke-width:1.5;"/>
    </g>
    <g id="line2d_8">
     <g>
      <use style="fill:#ff0000;stroke:#ff0000;" x="420.615369" xlink:href="#m446aeaf56a" y="31.7575"/>
     </g>
    </g>
    <g id="text_6">
     <!-- Train -->
     <defs>
      <path d="M -0.296875 72.90625 
L 61.375 72.90625 
L 61.375 64.59375 
L 35.5 64.59375 
L 35.5 0 
L 25.59375 0 
L 25.59375 64.59375 
L -0.296875 64.59375 
z
" id="DejaVuSans-84"/>
      <path d="M 41.109375 46.296875 
Q 39.59375 47.171875 37.8125 47.578125 
Q 36.03125 48 33.890625 48 
Q 26.265625 48 22.1875 43.046875 
Q 18.109375 38.09375 18.109375 28.8125 
L 18.109375 0 
L 9.078125 0 
L 9.078125 54.6875 
L 18.109375 54.6875 
L 18.109375 46.1875 
Q 20.953125 51.171875 25.484375 53.578125 
Q 30.03125 56 36.53125 56 
Q 37.453125 56 38.578125 55.875 
Q 39.703125 55.765625 41.0625 55.515625 
z
" id="DejaVuSans-114"/>
      <path d="M 34.28125 27.484375 
Q 23.390625 27.484375 19.1875 25 
Q 14.984375 22.515625 14.984375 16.5 
Q 14.984375 11.71875 18.140625 8.90625 
Q 21.296875 6.109375 26.703125 6.109375 
Q 34.1875 6.109375 38.703125 11.40625 
Q 43.21875 16.703125 43.21875 25.484375 
L 43.21875 27.484375 
z
M 52.203125 31.203125 
L 52.203125 0 
L 43.21875 0 
L 43.21875 8.296875 
Q 40.140625 3.328125 35.546875 0.953125 
Q 30.953125 -1.421875 24.3125 -1.421875 
Q 15.921875 -1.421875 10.953125 3.296875 
Q 6 8.015625 6 15.921875 
Q 6 25.140625 12.171875 29.828125 
Q 18.359375 34.515625 30.609375 34.515625 
L 43.21875 34.515625 
L 43.21875 35.40625 
Q 43.21875 41.609375 39.140625 45 
Q 35.0625 48.390625 27.6875 48.390625 
Q 23 48.390625 18.546875 47.265625 
Q 14.109375 46.140625 10.015625 43.890625 
L 10.015625 52.203125 
Q 14.9375 54.109375 19.578125 55.046875 
Q 24.21875 56 28.609375 56 
Q 40.484375 56 46.34375 49.84375 
Q 52.203125 43.703125 52.203125 31.203125 
z
" id="DejaVuSans-97"/>
      <path d="M 54.890625 33.015625 
L 54.890625 0 
L 45.90625 0 
L 45.90625 32.71875 
Q 45.90625 40.484375 42.875 44.328125 
Q 39.84375 48.1875 33.796875 48.1875 
Q 26.515625 48.1875 22.3125 43.546875 
Q 18.109375 38.921875 18.109375 30.90625 
L 18.109375 0 
L 9.078125 0 
L 9.078125 54.6875 
L 18.109375 54.6875 
L 18.109375 46.1875 
Q 21.34375 51.125 25.703125 53.5625 
Q 30.078125 56 35.796875 56 
Q 45.21875 56 50.046875 50.171875 
Q 54.890625 44.34375 54.890625 33.015625 
z
" id="DejaVuSans-110"/>
     </defs>
     <g style="fill:#262626;" transform="translate(449.415369 37.3575)scale(0.16 -0.16)">
      <use xlink:href="#DejaVuSans-84"/>
      <use x="60.865234" xlink:href="#DejaVuSans-114"/>
      <use x="101.978516" xlink:href="#DejaVuSans-97"/>
      <use x="163.257812" xlink:href="#DejaVuSans-105"/>
      <use x="191.041016" xlink:href="#DejaVuSans-110"/>
     </g>
    </g>
    <g id="line2d_9">
     <path d="M 404.615369 55.2425 
L 436.615369 55.2425 
" style="fill:none;stroke:#0000ff;stroke-dasharray:5.55,2.4;stroke-dashoffset:0;stroke-width:1.5;"/>
    </g>
    <g id="line2d_10">
     <g>
      <use style="fill:#0000ff;stroke:#0000ff;" x="420.615369" xlink:href="#m291be060d6" y="55.2425"/>
     </g>
    </g>
    <g id="text_7">
     <!-- Validation -->
     <defs>
      <path d="M 28.609375 0 
L 0.78125 72.90625 
L 11.078125 72.90625 
L 34.1875 11.53125 
L 57.328125 72.90625 
L 67.578125 72.90625 
L 39.796875 0 
z
" id="DejaVuSans-86"/>
      <path d="M 45.40625 46.390625 
L 45.40625 75.984375 
L 54.390625 75.984375 
L 54.390625 0 
L 45.40625 0 
L 45.40625 8.203125 
Q 42.578125 3.328125 38.25 0.953125 
Q 33.9375 -1.421875 27.875 -1.421875 
Q 17.96875 -1.421875 11.734375 6.484375 
Q 5.515625 14.40625 5.515625 27.296875 
Q 5.515625 40.1875 11.734375 48.09375 
Q 17.96875 56 27.875 56 
Q 33.9375 56 38.25 53.625 
Q 42.578125 51.265625 45.40625 46.390625 
z
M 14.796875 27.296875 
Q 14.796875 17.390625 18.875 11.75 
Q 22.953125 6.109375 30.078125 6.109375 
Q 37.203125 6.109375 41.296875 11.75 
Q 45.40625 17.390625 45.40625 27.296875 
Q 45.40625 37.203125 41.296875 42.84375 
Q 37.203125 48.484375 30.078125 48.484375 
Q 22.953125 48.484375 18.875 42.84375 
Q 14.796875 37.203125 14.796875 27.296875 
z
" id="DejaVuSans-100"/>
     </defs>
     <g style="fill:#262626;" transform="translate(449.415369 60.8425)scale(0.16 -0.16)">
      <use xlink:href="#DejaVuSans-86"/>
      <use x="68.298828" xlink:href="#DejaVuSans-97"/>
      <use x="129.578125" xlink:href="#DejaVuSans-108"/>
      <use x="157.361328" xlink:href="#DejaVuSans-105"/>
      <use x="185.144531" xlink:href="#DejaVuSans-100"/>
      <use x="248.621094" xlink:href="#DejaVuSans-97"/>
      <use x="309.900391" xlink:href="#DejaVuSans-116"/>
      <use x="349.109375" xlink:href="#DejaVuSans-105"/>
      <use x="376.892578" xlink:href="#DejaVuSans-111"/>
      <use x="438.074219" xlink:href="#DejaVuSans-110"/>
     </g>
    </g>
    <g id="line2d_11"/>
    <g id="line2d_12">
     <g>
      <use style="fill-opacity:0;stroke:#000000;stroke-linejoin:miter;" x="420.615369" xlink:href="#m9d329bb9e4" y="78.7275"/>
     </g>
    </g>
    <g id="text_8">
     <!-- Model Selection -->
     <defs>
      <path id="DejaVuSans-32"/>
      <path d="M 48.78125 52.59375 
L 48.78125 44.1875 
Q 44.96875 46.296875 41.140625 47.34375 
Q 37.3125 48.390625 33.40625 48.390625 
Q 24.65625 48.390625 19.8125 42.84375 
Q 14.984375 37.3125 14.984375 27.296875 
Q 14.984375 17.28125 19.8125 11.734375 
Q 24.65625 6.203125 33.40625 6.203125 
Q 37.3125 6.203125 41.140625 7.25 
Q 44.96875 8.296875 48.78125 10.40625 
L 48.78125 2.09375 
Q 45.015625 0.34375 40.984375 -0.53125 
Q 36.96875 -1.421875 32.421875 -1.421875 
Q 20.0625 -1.421875 12.78125 6.34375 
Q 5.515625 14.109375 5.515625 27.296875 
Q 5.515625 40.671875 12.859375 48.328125 
Q 20.21875 56 33.015625 56 
Q 37.15625 56 41.109375 55.140625 
Q 45.0625 54.296875 48.78125 52.59375 
z
" id="DejaVuSans-99"/>
     </defs>
     <g style="fill:#262626;" transform="translate(449.415369 84.3275)scale(0.16 -0.16)">
      <use xlink:href="#DejaVuSans-77"/>
      <use x="86.279297" xlink:href="#DejaVuSans-111"/>
      <use x="147.460938" xlink:href="#DejaVuSans-100"/>
      <use x="210.9375" xlink:href="#DejaVuSans-101"/>
      <use x="272.460938" xlink:href="#DejaVuSans-108"/>
      <use x="300.244141" xlink:href="#DejaVuSans-32"/>
      <use x="332.03125" xlink:href="#DejaVuSans-83"/>
      <use x="395.507812" xlink:href="#DejaVuSans-101"/>
      <use x="457.03125" xlink:href="#DejaVuSans-108"/>
      <use x="484.814453" xlink:href="#DejaVuSans-101"/>
      <use x="546.337891" xlink:href="#DejaVuSans-99"/>
      <use x="601.318359" xlink:href="#DejaVuSans-116"/>
      <use x="640.527344" xlink:href="#DejaVuSans-105"/>
      <use x="668.310547" xlink:href="#DejaVuSans-111"/>
      <use x="729.492188" xlink:href="#DejaVuSans-110"/>
     </g>
    </g>
    <g id="line2d_13">
     <path d="M 404.615369 102.2125 
L 436.615369 102.2125 
" style="fill:none;stroke:#000000;stroke-dasharray:5.55,2.4;stroke-dashoffset:0;stroke-opacity:0.5;stroke-width:1.5;"/>
    </g>
    <g id="line2d_14"/>
    <g id="text_9">
     <!-- FEAT Test -->
     <defs>
      <path d="M 9.8125 72.90625 
L 51.703125 72.90625 
L 51.703125 64.59375 
L 19.671875 64.59375 
L 19.671875 43.109375 
L 48.578125 43.109375 
L 48.578125 34.8125 
L 19.671875 34.8125 
L 19.671875 0 
L 9.8125 0 
z
" id="DejaVuSans-70"/>
      <path d="M 34.1875 63.1875 
L 20.796875 26.90625 
L 47.609375 26.90625 
z
M 28.609375 72.90625 
L 39.796875 72.90625 
L 67.578125 0 
L 57.328125 0 
L 50.6875 18.703125 
L 17.828125 18.703125 
L 11.1875 0 
L 0.78125 0 
z
" id="DejaVuSans-65"/>
      <path d="M 44.28125 53.078125 
L 44.28125 44.578125 
Q 40.484375 46.53125 36.375 47.5 
Q 32.28125 48.484375 27.875 48.484375 
Q 21.1875 48.484375 17.84375 46.4375 
Q 14.5 44.390625 14.5 40.28125 
Q 14.5 37.15625 16.890625 35.375 
Q 19.28125 33.59375 26.515625 31.984375 
L 29.59375 31.296875 
Q 39.15625 29.25 43.1875 25.515625 
Q 47.21875 21.78125 47.21875 15.09375 
Q 47.21875 7.46875 41.1875 3.015625 
Q 35.15625 -1.421875 24.609375 -1.421875 
Q 20.21875 -1.421875 15.453125 -0.5625 
Q 10.6875 0.296875 5.421875 2 
L 5.421875 11.28125 
Q 10.40625 8.6875 15.234375 7.390625 
Q 20.0625 6.109375 24.8125 6.109375 
Q 31.15625 6.109375 34.5625 8.28125 
Q 37.984375 10.453125 37.984375 14.40625 
Q 37.984375 18.0625 35.515625 20.015625 
Q 33.0625 21.96875 24.703125 23.78125 
L 21.578125 24.515625 
Q 13.234375 26.265625 9.515625 29.90625 
Q 5.8125 33.546875 5.8125 39.890625 
Q 5.8125 47.609375 11.28125 51.796875 
Q 16.75 56 26.8125 56 
Q 31.78125 56 36.171875 55.265625 
Q 40.578125 54.546875 44.28125 53.078125 
z
" id="DejaVuSans-115"/>
     </defs>
     <g style="fill:#262626;" transform="translate(449.415369 107.8125)scale(0.16 -0.16)">
      <use xlink:href="#DejaVuSans-70"/>
      <use x="57.519531" xlink:href="#DejaVuSans-69"/>
      <use x="120.703125" xlink:href="#DejaVuSans-65"/>
      <use x="189.001953" xlink:href="#DejaVuSans-84"/>
      <use x="250.085938" xlink:href="#DejaVuSans-32"/>
      <use x="281.873047" xlink:href="#DejaVuSans-84"/>
      <use x="342.691406" xlink:href="#DejaVuSans-101"/>
      <use x="404.214844" xlink:href="#DejaVuSans-115"/>
      <use x="456.314453" xlink:href="#DejaVuSans-116"/>
     </g>
    </g>
    <g id="line2d_15">
     <path d="M 404.615369 125.6975 
L 436.615369 125.6975 
" style="fill:none;stroke:#008000;stroke-dasharray:9.6,2.4,1.5,2.4;stroke-dashoffset:0;stroke-opacity:0.5;stroke-width:1.5;"/>
    </g>
    <g id="line2d_16">
     <g>
      <use style="fill:#008000;fill-opacity:0.5;stroke:#008000;stroke-opacity:0.5;" x="420.615369" xlink:href="#mc3057cca39" y="125.6975"/>
     </g>
    </g>
    <g id="text_10">
     <!-- RF Test -->
     <defs>
      <path d="M 44.390625 34.1875 
Q 47.5625 33.109375 50.5625 29.59375 
Q 53.5625 26.078125 56.59375 19.921875 
L 66.609375 0 
L 56 0 
L 46.6875 18.703125 
Q 43.0625 26.03125 39.671875 28.421875 
Q 36.28125 30.8125 30.421875 30.8125 
L 19.671875 30.8125 
L 19.671875 0 
L 9.8125 0 
L 9.8125 72.90625 
L 32.078125 72.90625 
Q 44.578125 72.90625 50.734375 67.671875 
Q 56.890625 62.453125 56.890625 51.90625 
Q 56.890625 45.015625 53.6875 40.46875 
Q 50.484375 35.9375 44.390625 34.1875 
z
M 19.671875 64.796875 
L 19.671875 38.921875 
L 32.078125 38.921875 
Q 39.203125 38.921875 42.84375 42.21875 
Q 46.484375 45.515625 46.484375 51.90625 
Q 46.484375 58.296875 42.84375 61.546875 
Q 39.203125 64.796875 32.078125 64.796875 
z
" id="DejaVuSans-82"/>
     </defs>
     <g style="fill:#262626;" transform="translate(449.415369 131.2975)scale(0.16 -0.16)">
      <use xlink:href="#DejaVuSans-82"/>
      <use x="69.482422" xlink:href="#DejaVuSans-70"/>
      <use x="127.001953" xlink:href="#DejaVuSans-32"/>
      <use x="158.789062" xlink:href="#DejaVuSans-84"/>
      <use x="219.607422" xlink:href="#DejaVuSans-101"/>
      <use x="281.130859" xlink:href="#DejaVuSans-115"/>
      <use x="333.230469" xlink:href="#DejaVuSans-116"/>
     </g>
    </g>
    <g id="line2d_17">
     <path d="M 404.615369 149.1825 
L 436.615369 149.1825 
" style="fill:none;stroke:#bf00bf;stroke-linecap:round;stroke-opacity:0.5;stroke-width:1.5;"/>
    </g>
    <g id="line2d_18">
     <g>
      <use style="fill:#bf00bf;fill-opacity:0.5;stroke:#bf00bf;stroke-linejoin:miter;stroke-opacity:0.5;" x="420.615369" xlink:href="#mc1972ceb92" y="149.1825"/>
     </g>
    </g>
    <g id="text_11">
     <!-- ElasticNet Test -->
     <defs>
      <path d="M 9.8125 72.90625 
L 23.09375 72.90625 
L 55.421875 11.921875 
L 55.421875 72.90625 
L 64.984375 72.90625 
L 64.984375 0 
L 51.703125 0 
L 19.390625 60.984375 
L 19.390625 0 
L 9.8125 0 
z
" id="DejaVuSans-78"/>
     </defs>
     <g style="fill:#262626;" transform="translate(449.415369 154.7825)scale(0.16 -0.16)">
      <use xlink:href="#DejaVuSans-69"/>
      <use x="63.183594" xlink:href="#DejaVuSans-108"/>
      <use x="90.966797" xlink:href="#DejaVuSans-97"/>
      <use x="152.246094" xlink:href="#DejaVuSans-115"/>
      <use x="204.345703" xlink:href="#DejaVuSans-116"/>
      <use x="243.554688" xlink:href="#DejaVuSans-105"/>
      <use x="271.337891" xlink:href="#DejaVuSans-99"/>
      <use x="326.318359" xlink:href="#DejaVuSans-78"/>
      <use x="401.123047" xlink:href="#DejaVuSans-101"/>
      <use x="462.646484" xlink:href="#DejaVuSans-116"/>
      <use x="501.855469" xlink:href="#DejaVuSans-32"/>
      <use x="533.642578" xlink:href="#DejaVuSans-84"/>
      <use x="594.460938" xlink:href="#DejaVuSans-101"/>
      <use x="655.984375" xlink:href="#DejaVuSans-115"/>
      <use x="708.083984" xlink:href="#DejaVuSans-116"/>
     </g>
    </g>
   </g>
  </g>
 </g>
 <defs>
  <clipPath id="p00493fd7c3">
   <rect height="384.4" width="550.880369" x="39.8" y="10.8"/>
  </clipPath>
 </defs>
</svg>
